<svg width="101" height="49" viewBox="0 0 101 49" fill="none" xmlns="http://www.w3.org/2000/svg">
<path fill-rule="evenodd" clip-rule="evenodd" d="M32.5697 29.3847C33.8139 30.7804 34.5718 32.6183 34.5718 34.6203C34.5718 38.9592 31.0287 42.5022 26.6899 42.5022C23.7468 42.5022 21.17 40.8728 19.8184 38.4729C18.4606 40.8475 15.8964 42.458 12.9723 42.458C8.63346 42.458 5.09039 38.9149 5.09039 34.5761C5.09039 32.5867 5.83563 30.7678 7.05455 29.3783C3.51148 28.6078 0.839966 25.4437 0.839966 21.6733C0.839966 17.3344 4.38304 13.7914 8.72188 13.7914C9.87764 13.7914 10.9702 14.044 11.9618 14.4924C11.9365 14.2398 11.9239 13.9808 11.9239 13.7156C11.9239 9.37673 15.467 5.83366 19.8058 5.83366C24.1447 5.83366 27.6877 9.37673 27.6877 13.7156C27.6877 13.9745 27.6751 14.2335 27.6498 14.4924C28.6351 14.0503 29.7214 13.804 30.8645 13.804C35.2033 13.804 38.7464 17.3471 38.7464 21.6859C38.7464 25.4437 36.0938 28.6015 32.5634 29.3847H32.5697Z" fill="#FEFEFE"/>
<path fill-rule="evenodd" clip-rule="evenodd" d="M33.9718 29.8331C34.3191 30.3573 34.6097 30.9257 34.837 31.5257C35.2033 32.4919 35.4054 33.534 35.4054 34.6203C35.4054 37.0203 34.4265 39.2055 32.8476 40.7844C31.2687 42.3633 29.0835 43.3422 26.6835 43.3422C25.0857 43.3422 23.5889 42.9064 22.2942 42.1486C21.3342 41.5865 20.4942 40.8475 19.8121 39.976C19.1301 40.8349 18.2901 41.5675 17.3364 42.1233C16.048 42.8748 14.5575 43.3043 12.966 43.3043C10.5661 43.3043 8.38084 42.3254 6.80194 40.7465C5.22303 39.1676 4.24411 36.9824 4.24411 34.5824C4.24411 33.5088 4.43989 32.473 4.8062 31.513C5.02724 30.9257 5.31145 30.3636 5.65249 29.8457C4.18095 29.2899 2.89888 28.3489 1.93258 27.1426C0.726298 25.6458 0 23.7448 0 21.6796C0 19.2796 0.978923 17.0944 2.55783 15.5155C4.13674 13.9366 6.32195 12.9577 8.72189 12.9577C9.34714 12.9577 9.95975 13.0272 10.5534 13.1535C10.7366 13.1914 10.9134 13.2356 11.0903 13.2861C11.1976 11.0567 12.1576 9.042 13.6418 7.55783C15.2207 5.97892 17.4059 5 19.8058 5C22.2058 5 24.391 5.97892 25.9699 7.55783C27.4541 9.042 28.4077 11.063 28.5214 13.2924C28.6982 13.2419 28.8688 13.1977 29.0519 13.1598C29.6456 13.0335 30.2519 12.964 30.8708 12.964C33.2708 12.964 35.456 13.9429 37.0349 15.5218C38.6138 17.1008 39.5927 19.286 39.5927 21.6859C39.5927 23.7448 38.8727 25.6395 37.6727 27.1363C36.7128 28.3363 35.437 29.2773 33.9781 29.8331H33.9718ZM11.9618 14.4924C11.9365 14.2398 11.9239 13.9808 11.9239 13.7156C11.9239 9.37673 15.467 5.83366 19.8058 5.83366C24.1447 5.83366 27.6877 9.37673 27.6877 13.7156C27.6877 13.9745 27.6751 14.2335 27.6498 14.4924C28.6351 14.0503 29.7214 13.804 30.8645 13.804C35.2033 13.804 38.7464 17.3471 38.7464 21.6859C38.7464 25.4437 36.0938 28.6015 32.5634 29.3847C33.8076 30.7804 34.5655 32.6183 34.5655 34.6203C34.5655 38.9592 31.0224 42.5022 26.6835 42.5022C23.7405 42.5022 21.1637 40.8728 19.8121 38.4729C18.4543 40.8475 15.8901 42.458 12.966 42.458C8.62715 42.458 5.08408 38.9149 5.08408 34.5761C5.08408 32.5867 5.82933 30.7678 7.04825 29.3783C3.50518 28.6078 0.833664 25.4437 0.833664 21.6733C0.833664 17.3344 4.37673 13.7914 8.71557 13.7914C9.87133 13.7914 10.9639 14.044 11.9555 14.4924H11.9618Z" fill="#E62129"/>
<path fill-rule="evenodd" clip-rule="evenodd" d="M15.9406 13.2672H23.6457V20.9596H31.3381V28.6647H23.6457V36.3634H15.9406V28.6647H8.24188V20.9596H15.9406V13.2672Z" fill="#E62129"/>
<path fill-rule="evenodd" clip-rule="evenodd" d="M58.8554 43.4559C58.647 43.4243 58.3817 43.3675 58.1985 43.2475C57.8386 43.1022 57.5101 42.6728 57.3901 42.3191C57.3838 42.3128 57.3775 42.3064 57.3712 42.3001C57.3017 42.0791 57.2323 41.858 57.1754 41.637C57.1501 41.517 57.1312 41.4096 57.1123 41.2959C57.087 41.0433 57.0617 40.797 57.0365 40.5507C57.0365 39.9886 57.0428 39.4328 57.0491 38.8771C57.1123 38.4539 57.1312 38.0308 57.2765 37.6266C57.3838 37.1845 57.6301 36.774 57.9775 36.4897C58.0722 36.4266 58.1607 36.3634 58.2554 36.3129C58.3122 36.2813 58.3754 36.2561 58.4322 36.2308C58.5017 36.2055 58.5712 36.1866 58.6406 36.1677C58.8491 36.1424 59.0638 36.1045 59.2722 36.1045C59.4111 36.1234 59.5438 36.1424 59.689 36.1677C59.8217 36.2245 59.9543 36.2624 60.0743 36.3382C60.308 36.4582 60.5101 36.6855 60.6616 36.8876C60.668 36.8876 60.6743 36.8876 60.6869 36.8876C60.6932 36.875 60.6995 36.8624 60.7122 36.8497C60.7122 35.915 60.7122 34.9803 60.7185 34.0519C60.7501 34.0203 60.788 34.0203 60.8322 34.0014C61.369 34.0014 61.9058 34.0014 62.449 34.0014C62.4869 34.0014 62.5121 34.033 62.5374 34.0582C62.5311 37.1339 62.5311 40.2033 62.5311 43.2854C62.4932 43.3233 62.449 43.3296 62.3921 43.3359C61.8806 43.3359 61.3627 43.3359 60.8574 43.3359C60.8385 43.3169 60.8195 43.298 60.8006 43.2791C60.7943 43.0833 60.788 42.8812 60.788 42.6917C60.769 42.6854 60.7501 42.6791 60.7311 42.6791C60.428 43.0706 60.2448 43.2096 59.7775 43.4117C59.5564 43.4748 59.0006 43.5064 58.8491 43.4559H58.8554ZM59.6322 42.117C59.5817 42.1043 59.5311 42.0917 59.4869 42.0791C59.2911 41.978 59.1522 41.8896 59.0575 41.6812C59.0069 41.6307 59.0259 41.5359 58.9754 41.4854C58.9438 41.3402 58.9185 41.1949 58.8933 41.0496C58.8743 40.8665 58.8554 40.677 58.8427 40.4939C58.8364 40.1654 58.8301 39.837 58.8301 39.5086C58.8491 39.1992 58.868 38.896 58.8933 38.5929C58.9312 38.3213 58.9817 38.0118 59.1522 37.7971C59.1522 37.6771 59.4932 37.5508 59.569 37.5255C59.7017 37.5255 59.828 37.5255 59.9606 37.5255C60.0238 37.5445 60.0869 37.5634 60.1438 37.5887C60.188 37.6202 60.2322 37.6518 60.2764 37.6834C60.409 37.8223 60.4848 37.9423 60.5227 38.1255C60.5859 38.1887 60.5606 38.3339 60.6111 38.416C60.6301 38.5802 60.6553 38.7507 60.6806 38.9213C60.7059 39.6728 60.7311 40.4433 60.6174 41.1886C60.5922 41.2959 60.5669 41.397 60.5416 41.5107C60.5101 41.5801 60.4785 41.6496 60.4532 41.7128C60.428 41.8138 60.308 41.9338 60.2385 41.9907C60.188 42.0159 60.1438 42.0412 60.0996 42.0665C59.948 42.098 59.7838 42.1107 59.6259 42.117H59.6322Z" fill="white"/>
<path fill-rule="evenodd" clip-rule="evenodd" d="M66.2131 43.4938C66.2068 43.4811 66.2005 43.4685 66.2005 43.4559C65.9352 43.4117 65.6257 43.3738 65.3794 43.2727C65.291 43.2285 65.2152 43.1843 65.1331 43.1464C65.0258 43.0643 64.9247 42.9885 64.8237 42.9064C64.7605 42.837 64.6531 42.7422 64.6152 42.6601C64.5142 42.6601 64.2931 42.0538 64.2552 41.9907C64.2047 41.8201 64.1605 41.6433 64.1163 41.4791C64.0721 41.138 64.0279 40.797 63.99 40.456C63.99 40.4433 63.99 40.437 63.99 40.4307C63.99 40.0454 63.99 39.6665 63.9963 39.2813C63.9963 39.1549 63.99 39.0223 64.0342 38.9023C64.0531 38.5486 64.1037 38.195 64.2174 37.8666C64.2679 37.6202 64.4068 37.4055 64.5205 37.1781C64.5584 37.115 64.5963 37.0582 64.6342 37.0076C64.6468 36.995 64.6594 36.9887 64.6721 36.9824C64.7163 36.8876 64.8994 36.6729 65.0005 36.6476C65.0005 36.5845 65.2342 36.4897 65.2847 36.4392C65.3226 36.414 65.3668 36.395 65.411 36.3761C65.5436 36.3255 65.6699 36.275 65.8089 36.2245C66.2131 36.1424 66.5983 36.0982 67.0089 36.0982C67.192 36.1171 67.3815 36.1361 67.5646 36.1613C67.7667 36.2119 67.9752 36.275 68.1709 36.3445C68.2594 36.395 68.3478 36.4455 68.4425 36.4897C68.4425 36.5087 68.6004 36.6097 68.6257 36.6224C68.6257 36.6287 68.6257 36.635 68.632 36.6476C68.9541 36.9255 69.1688 37.3108 69.2825 37.7087C69.2888 37.715 69.2951 37.7276 69.3078 37.7402C69.3646 38.0308 69.453 38.3213 69.4656 38.6181C69.5162 38.8581 69.5225 39.1234 69.5288 39.3697C69.5225 39.8118 69.5162 40.2475 69.5099 40.696C69.4404 40.8665 69.4972 41.1759 69.4025 41.3212C69.3709 41.4538 69.3456 41.5865 69.3204 41.7254C69.2951 41.8012 69.2699 41.877 69.2446 41.9591C69.2193 42.0096 69.2004 42.0601 69.1814 42.1107C69.0614 42.3317 68.9414 42.5528 68.7772 42.7549C68.7267 42.7864 68.5815 42.9064 68.5625 42.9506C68.4172 43.0517 68.2341 43.2033 68.0636 43.2348C67.792 43.3738 67.4446 43.4117 67.1415 43.4496C67.1415 43.4559 67.1415 43.4685 67.1415 43.4811C66.851 43.4811 66.5605 43.4811 66.2762 43.4811C66.2762 43.4685 66.2762 43.4559 66.2762 43.4496C66.2636 43.4496 66.251 43.4496 66.2384 43.4496C66.2384 43.4559 66.2384 43.4685 66.2384 43.4811C66.2257 43.4811 66.2131 43.4811 66.2068 43.4811L66.2131 43.4938ZM66.5857 42.2685C66.5099 42.237 66.4341 42.2117 66.371 42.1864C66.371 42.1738 66.371 42.1675 66.371 42.1612C66.2257 42.1043 66.1689 41.997 66.0868 41.877C66.0805 41.877 66.0741 41.877 66.0678 41.877C66.0236 41.7696 65.9794 41.6749 65.9415 41.5738C65.872 41.3275 65.8531 41.0686 65.8405 40.816C65.7394 40.2223 65.8152 39.5844 65.8152 38.9844C65.8657 38.6118 65.8531 38.2265 66.0047 37.8792C66.0426 37.8034 66.0868 37.7276 66.131 37.6645C66.2762 37.5002 66.3899 37.4245 66.6047 37.3739C66.7247 37.3739 66.9773 37.336 67.0657 37.4308C67.1289 37.4624 67.192 37.4939 67.2552 37.5318C67.2552 37.5697 67.2931 37.5823 67.3183 37.595C67.3815 37.715 67.4446 37.8287 67.5078 37.955C67.7352 38.7192 67.7036 39.5528 67.7036 40.3423C67.691 40.6391 67.6467 40.9486 67.6215 41.2454C67.5962 41.3402 67.5773 41.4349 67.5583 41.5359C67.5141 41.6433 67.4762 41.8328 67.4004 41.9149C67.3625 41.997 67.2804 42.0664 67.2362 42.1296C67.1478 42.1738 67.0657 42.218 66.9773 42.2622C66.8383 42.2685 66.7057 42.2749 66.5731 42.2812L66.5857 42.2685Z" fill="white"/>
<path fill-rule="evenodd" clip-rule="evenodd" d="M80.0822 43.4938C80.0822 43.4811 80.0822 43.4685 80.0822 43.4622C79.7664 43.4243 79.438 43.3801 79.1538 43.2412C79.078 43.2412 78.9202 43.1212 78.857 43.0896C78.857 43.0769 78.857 43.0706 78.857 43.0643C78.737 43.0643 78.4844 42.7612 78.4212 42.7043C78.2507 42.458 78.0675 42.1738 77.9981 41.8707C77.8907 41.6622 77.8654 41.3528 77.8339 41.1191C77.8275 40.9359 77.8212 40.7465 77.8149 40.5633C77.7328 40.3991 77.8465 40.1212 77.7707 39.9381C77.777 39.6981 77.7833 39.4581 77.796 39.2118C77.8086 39.0476 77.8212 38.8771 77.8339 38.7192C77.8528 38.5676 77.8718 38.416 77.897 38.2708C77.9475 38.0939 77.9981 37.9108 78.0486 37.7339C78.0928 37.6202 78.137 37.5129 78.1875 37.4055C78.2191 37.3866 78.2886 37.2224 78.3075 37.1781C78.4023 37.0518 78.4907 36.9382 78.5917 36.8182C78.6802 36.7424 78.7686 36.6729 78.8633 36.6034C78.8633 36.534 79.1412 36.4455 79.2044 36.3824C79.2422 36.3697 79.2801 36.3571 79.318 36.3508C79.3244 36.3382 79.337 36.3319 79.3496 36.3255C79.7917 36.1803 80.2464 36.1234 80.7201 36.1234C80.9222 36.155 81.2506 36.1171 81.4211 36.2308C81.699 36.2687 81.9643 36.4392 82.2043 36.5845C82.4632 36.8118 82.678 37.0455 82.8169 37.3739C82.9053 37.5445 82.9748 37.7402 83.0064 37.936C83.0127 37.9487 83.019 37.9676 83.0316 37.9865C83.0569 38.1444 83.0822 38.315 83.1137 38.4792C83.1327 38.7571 83.1516 39.0349 83.1769 39.3128C83.1769 39.4202 83.2085 40.0518 83.1643 40.096C81.9959 40.096 80.8338 40.1023 79.6717 40.1086C79.6275 40.1275 79.6275 40.1465 79.6086 40.1907C79.6086 40.4054 79.5959 40.6328 79.6338 40.8475C79.6338 41.3275 79.7286 41.8643 80.1201 42.1801C80.1896 42.2117 80.2591 42.2433 80.3222 42.2749C80.4485 42.2749 80.5685 42.2749 80.6948 42.2749C80.7517 42.2496 80.8148 42.2307 80.8717 42.2117C81.0801 42.0791 81.2127 41.8833 81.3011 41.6622C81.3454 41.4601 81.4211 41.2391 81.4338 41.0307C81.4464 41.0054 81.459 40.9802 81.4717 40.9612C81.9895 40.9612 82.5074 40.9612 83.0316 40.9612C83.0443 40.9802 83.0569 40.9991 83.0695 41.0244C83.0569 41.1759 83.0443 41.3338 83.0379 41.4917C83 41.6054 83.0064 41.757 82.9495 41.8454C82.8611 42.2496 82.5453 42.8748 82.1538 43.0706C82.1538 43.1212 81.8127 43.2601 81.7432 43.3043C81.598 43.3296 81.4338 43.3801 81.3011 43.4306C81.1748 43.4433 81.0612 43.4559 80.9412 43.4748C80.9412 43.4811 80.9412 43.4938 80.9412 43.5064C80.657 43.5064 80.3727 43.5064 80.0949 43.5064L80.0822 43.4938ZM79.6464 39.0034C79.6275 38.9907 79.6149 38.9781 79.6022 38.9718C79.5959 38.8834 79.5959 38.8013 79.5959 38.7192C79.6401 38.4034 79.6212 38.0623 79.8107 37.7908C79.817 37.7655 79.8296 37.7402 79.8422 37.715C79.8485 37.7087 79.8612 37.7087 79.8738 37.7087C79.8738 37.6202 80.0443 37.5066 80.1012 37.456C80.1454 37.4308 80.1959 37.4118 80.2464 37.3929C80.417 37.3676 80.638 37.3424 80.8085 37.3929C80.9096 37.4434 81.0106 37.5066 81.099 37.576C81.3896 37.9929 81.3959 38.4792 81.4211 38.9718C81.4148 38.9718 81.4085 38.9781 81.4085 38.9844C80.8212 38.9844 80.2338 38.9907 79.6464 38.997V39.0034Z" fill="white"/>
<path fill-rule="evenodd" clip-rule="evenodd" d="M86.6757 43.4938C86.6757 43.4812 86.6757 43.4685 86.6757 43.4622C86.4357 43.4369 86.1894 43.3927 85.9494 43.3422C85.8358 43.3043 85.7347 43.2664 85.6273 43.2285C85.3684 43.0959 84.9958 42.8622 84.8884 42.5717C84.6863 42.3001 84.6674 41.8896 84.6295 41.5675C84.6232 41.4033 84.6232 41.2328 84.6232 41.0686C84.6358 41.0496 84.6484 41.0307 84.6674 41.0181C85.1852 41.0117 85.7094 41.0117 86.24 41.0117C86.2463 41.1823 86.2589 41.3591 86.2715 41.5359C86.3221 41.6749 86.3789 41.9401 86.5052 41.997C86.5052 42.1043 86.8968 42.237 86.9789 42.2496C87.1178 42.2496 87.2568 42.2496 87.402 42.2496C87.5283 42.2243 87.6736 42.1738 87.781 42.1043C87.901 42.0033 87.9704 41.8833 88.0462 41.757C88.0652 41.6307 88.0904 41.5044 88.0904 41.3717C88.0715 41.2896 88.0589 41.2138 88.0462 41.1381C88.0273 41.1065 88.0083 41.0749 87.9957 41.0433C87.9578 41.0054 87.9262 40.9675 87.8947 40.9296C87.7936 40.8539 87.6989 40.7781 87.6041 40.7149C87.4083 40.6581 87.2126 40.5444 87.0105 40.4939C86.9663 40.4496 86.8842 40.4433 86.8273 40.4244C86.8273 40.3991 86.682 40.3675 86.6631 40.3675C86.5368 40.3107 86.3473 40.2728 86.24 40.2033C86.1073 40.1781 85.9684 40.1023 85.8421 40.0581C85.6652 39.9318 85.4 39.856 85.2673 39.6728C85.0905 39.5276 84.8884 39.3002 84.8253 39.0728C84.8126 39.0539 84.8 39.0349 84.7937 39.016C84.7621 38.9213 84.7368 38.8328 84.7116 38.7381C84.6926 38.6118 84.6737 38.4918 84.6547 38.3655C84.6547 38.2644 84.6547 38.176 84.6547 38.0813C84.7179 37.9234 84.68 37.7087 84.7621 37.5445C84.8189 37.2476 85.0021 36.9697 85.2168 36.755C85.3431 36.654 85.4631 36.5655 85.5958 36.4708C85.7663 36.395 85.9368 36.3066 86.1136 36.2561C86.3915 36.1613 86.6884 36.1045 86.9915 36.1045C87.3199 36.054 87.6926 36.1171 88.0146 36.1487C88.2862 36.2119 88.5515 36.2876 88.7978 36.4076C88.9115 36.4897 89.0188 36.5655 89.1325 36.654C89.1578 36.7045 89.2272 36.7613 89.2651 36.7992C89.3725 36.9508 89.4988 37.1403 89.543 37.3297C89.682 37.6581 89.663 38.0244 89.663 38.3655C89.1325 38.3718 88.6083 38.3781 88.0778 38.3844C88.0083 38.315 88.0273 38.2265 88.021 38.1318C88.002 38.0371 87.9894 37.955 87.9768 37.8666C87.9262 37.7655 87.882 37.6708 87.8378 37.5697C87.781 37.5192 87.7241 37.475 87.6736 37.4308C87.6231 37.4055 87.5789 37.3866 87.5347 37.3676C87.3452 37.3424 87.1368 37.3487 86.9473 37.3676C86.8084 37.4308 86.6884 37.5002 86.5684 37.5824C86.5242 37.6455 86.4799 37.7087 86.4421 37.7718C86.4231 37.8476 86.4042 37.9171 86.3915 37.9992C86.3978 38.075 86.4042 38.1508 86.4105 38.2265C86.4168 38.2708 86.4294 38.315 86.4421 38.3592C86.4673 38.4034 86.4926 38.4476 86.5178 38.4981C86.6378 38.6434 86.7831 38.7192 86.941 38.8076C87.2189 38.9023 87.522 39.0413 87.8062 39.0981C88.0589 39.1865 88.3115 39.2749 88.5704 39.3697C88.6967 39.4328 88.8673 39.4897 88.9683 39.5844C89.0188 39.616 89.0757 39.6476 89.1262 39.6791C89.1578 39.7044 89.1894 39.7297 89.2272 39.7549C89.2272 39.7612 89.2272 39.7676 89.2272 39.7802C89.2336 39.7802 89.2399 39.7802 89.2462 39.7802C89.322 39.8749 89.3978 39.9633 89.4799 40.0581C89.6062 40.0581 89.7388 40.6454 89.7767 40.7275C89.802 40.9738 89.8209 41.2265 89.8083 41.4791C89.7957 41.7696 89.7199 42.0728 89.5936 42.3317C89.4483 42.5338 89.3094 42.7738 89.1009 42.9127C89.1009 42.9885 88.6588 43.1969 88.5515 43.2348C88.5452 43.2412 88.5388 43.2475 88.5388 43.2538C88.3683 43.298 88.1978 43.3422 88.0336 43.3927C87.882 43.4054 87.7431 43.418 87.5978 43.4369C87.5978 43.4433 87.5978 43.4559 87.5978 43.4685C87.3199 43.4685 87.042 43.4685 86.7642 43.4685C86.7642 43.4559 86.7642 43.4433 86.7642 43.4369C86.7389 43.4369 86.7199 43.4369 86.701 43.4369C86.701 43.4433 86.701 43.4559 86.701 43.4685C86.6884 43.4685 86.6757 43.4685 86.6631 43.4685L86.6757 43.4938Z" fill="white"/>
<path fill-rule="evenodd" clip-rule="evenodd" d="M95.9534 43.4938C95.9471 43.4811 95.9408 43.4685 95.9408 43.4559C95.5997 43.4054 95.1766 43.2475 94.9871 42.9317C94.9808 42.9317 94.9745 42.9317 94.9682 42.9317C94.8734 42.8054 94.7913 42.6664 94.7471 42.5085C94.6334 42.3696 94.5955 42.0159 94.5703 41.8643C94.5703 41.5928 94.5703 41.3212 94.5703 41.0496C94.6019 40.9044 94.6082 40.7023 94.6903 40.5823C94.7471 40.2981 94.9619 39.976 95.2018 39.8181C95.2082 39.8054 95.2145 39.7928 95.2271 39.7802C95.4671 39.6286 95.6755 39.5086 95.9408 39.4265C96.0734 39.376 96.206 39.3191 96.345 39.3002C96.3829 39.2813 96.4208 39.2686 96.4587 39.256C96.7555 39.1991 97.046 39.0918 97.3428 39.0349C97.406 39.0097 97.4755 38.9907 97.5386 38.9718C97.5892 38.9465 97.6397 38.9276 97.6902 38.9086C97.7597 38.8581 97.8355 38.8076 97.9049 38.7571C97.9239 38.7255 97.9428 38.6939 97.9681 38.6623C97.9997 38.5739 98.0376 38.5107 98.0502 38.416C98.0502 38.2897 98.1007 37.9171 97.9997 37.816C97.987 37.7781 97.9744 37.7402 97.9681 37.7087C97.9555 37.7023 97.9491 37.696 97.9428 37.696C97.9428 37.6518 97.8544 37.5634 97.8291 37.5255C97.7913 37.5002 97.7534 37.475 97.7155 37.4497C97.6586 37.4245 97.6018 37.4055 97.5576 37.3866C97.2986 37.3424 96.8439 37.3045 96.6671 37.5571C96.5344 37.6392 96.4902 37.8413 96.4397 37.9739C96.4334 38.1255 96.4271 38.2834 96.4208 38.4413C95.8839 38.4413 95.3471 38.4476 94.804 38.4539C94.7913 38.4476 94.785 38.4413 94.7787 38.4413C94.7787 38.2897 94.7787 38.1318 94.785 37.9865C94.8545 37.475 94.9808 37.1718 95.2839 36.7676C95.3597 36.6982 95.4292 36.6287 95.5113 36.5718C95.6566 36.4708 95.7892 36.3887 95.9534 36.3382C96.0545 36.2876 96.1681 36.2497 96.2755 36.2182C96.3639 36.1929 96.446 36.174 96.5408 36.155C96.6987 36.1424 96.8692 36.1298 97.0334 36.1171C97.2481 36.0476 97.5386 36.1171 97.7723 36.1171C97.8923 36.1298 98.0123 36.1424 98.1386 36.155C98.2397 36.174 98.3344 36.1929 98.4354 36.2182C98.5302 36.2497 98.6439 36.2687 98.7197 36.3255C99.0039 36.395 99.3512 36.6476 99.4902 36.9129C99.6544 37.0771 99.6733 37.4055 99.7554 37.6202C99.7617 37.715 99.7744 37.8034 99.787 37.8981C99.8186 39.4328 99.8186 40.9865 99.8249 42.5149C99.8438 42.7043 99.8628 42.9569 99.9638 43.1212C99.9701 43.1717 100.033 43.2727 99.9765 43.3106C99.427 43.3106 98.8775 43.3169 98.3344 43.3233C98.3155 43.3106 98.2965 43.298 98.2776 43.2917C98.246 43.2348 98.2144 43.178 98.1891 43.1275C98.1639 43.0517 98.1449 42.9759 98.126 42.9127C98.107 42.8243 98.0881 42.7422 98.0755 42.6538C98.0502 42.6601 98.0249 42.6664 98.006 42.6791C97.8355 42.9317 97.627 43.1969 97.3302 43.3043C97.1281 43.4054 96.8565 43.4369 96.6292 43.4622C96.6292 43.4685 96.6292 43.4748 96.6292 43.4875C96.4018 43.4875 96.1745 43.4875 95.9471 43.4875L95.9534 43.4938ZM96.7934 42.2685C96.7113 42.218 96.5976 42.1928 96.5408 42.1043C96.3008 41.8643 96.3008 41.4791 96.3008 41.1633C96.3387 40.7907 96.4839 40.5254 96.8123 40.3423C96.8755 40.317 96.9386 40.2918 96.9955 40.2728C97.3239 40.1402 97.6965 40.1086 97.9934 39.8876C98.006 39.8939 98.0249 39.9002 98.0439 39.9065C98.0439 40.4054 98.0439 40.917 98.0439 41.4223C98.0123 41.6054 97.9302 41.757 97.8228 41.9022C97.7344 41.978 97.6523 42.0538 97.5639 42.1233C97.4439 42.1612 97.3365 42.2054 97.2228 42.2496C97.0776 42.2559 96.9386 42.2622 96.7934 42.2685Z" fill="white"/>
<path fill-rule="evenodd" clip-rule="evenodd" d="M47.0136 43.3359C46.9693 43.3233 46.9251 43.3106 46.8872 43.3043C46.8872 40.2097 46.8872 37.115 46.8872 34.0267C46.9062 34.0203 46.9251 34.014 46.9504 34.0077C47.5188 34.0077 48.0935 34.0077 48.6682 34.0077C48.6998 34.014 48.7314 34.0203 48.763 34.0267C48.763 37.1087 48.7693 40.1907 48.7756 43.2791C48.7567 43.2917 48.744 43.3106 48.7314 43.3296C48.1567 43.3296 47.582 43.3359 47.0136 43.3422V43.3359Z" fill="white"/>
<path fill-rule="evenodd" clip-rule="evenodd" d="M50.3546 43.3359C50.304 43.3296 50.2598 43.3169 50.2282 43.2854C50.2219 40.9802 50.2219 38.6813 50.2219 36.3761C50.2282 36.3508 50.2346 36.3255 50.2409 36.3066C50.803 36.3003 51.3651 36.3003 51.9271 36.3003C51.9335 36.3129 51.9398 36.3255 51.9524 36.3445C51.9524 36.5718 51.9524 36.7992 51.9587 37.0392C51.965 37.0518 51.9714 37.0645 51.984 37.0834C51.9966 37.0329 52.0219 37.0266 52.0535 36.995C52.1356 36.8876 52.2113 36.7866 52.2935 36.6792C52.325 36.654 52.3566 36.6287 52.3945 36.6034C52.3945 36.4834 52.9061 36.275 52.9882 36.2371C53.2724 36.155 53.5692 36.0982 53.866 36.0982C54.0176 36.1171 54.1818 36.1361 54.3397 36.1613C54.4092 36.1803 54.485 36.1992 54.5544 36.2245C54.6113 36.2498 54.6744 36.275 54.7313 36.3003C54.8576 36.4076 55.0155 36.4834 55.1292 36.6097C55.1607 36.6476 55.1923 36.6855 55.2302 36.7297C55.2871 36.8308 55.3439 36.9318 55.4007 37.0392C55.426 37.1087 55.4513 37.1781 55.4765 37.2413C55.5081 37.4245 55.546 37.6076 55.5586 37.7971C55.5586 39.6223 55.5586 41.4538 55.5586 43.279C55.546 43.2917 55.5334 43.3043 55.5207 43.3233C54.9397 43.3169 54.3587 43.3169 53.7839 43.3169C53.7713 43.3043 53.7587 43.2917 53.7524 43.279C53.746 41.5865 53.746 39.8939 53.746 38.2076C53.7208 38.0939 53.6955 37.9929 53.6703 37.8855C53.645 37.8413 53.6197 37.7971 53.5945 37.7529C53.5818 37.7529 53.5755 37.7529 53.5692 37.7529C53.4366 37.576 53.3292 37.5634 53.1208 37.5066C52.9313 37.5066 52.7671 37.5192 52.584 37.5697C52.5398 37.595 52.4956 37.6202 52.4513 37.6455C52.3882 37.696 52.3313 37.7466 52.2808 37.7971C52.2303 37.8729 52.1861 37.9487 52.1419 38.0308C52.1229 38.075 52.104 38.1255 52.0914 38.176C52.0724 38.2897 52.0598 38.3971 52.0471 38.5171C52.0408 40.0897 52.0408 41.6559 52.0408 43.2348C52.0408 43.3106 51.9461 43.3169 51.8956 43.3233C51.3777 43.3233 50.8661 43.3233 50.3482 43.3296L50.3546 43.3359Z" fill="white"/>
<path fill-rule="evenodd" clip-rule="evenodd" d="M71.0824 43.3359C71.0382 43.3296 71.0066 43.3043 70.9877 43.2664C70.9877 40.9675 70.9877 38.675 70.9877 36.3761C70.9877 36.3382 71.0066 36.3129 71.0256 36.294C71.5687 36.294 72.1182 36.294 72.6677 36.294C72.6803 36.294 72.6929 36.3003 72.7056 36.3066C72.7813 36.5276 72.6171 36.8371 72.7561 37.0455C72.775 37.0455 72.8761 36.8876 72.8887 36.8624C72.9077 36.8624 72.9961 36.7487 73.0087 36.7234C73.0466 36.6982 73.1603 36.5845 73.1792 36.5529C73.3371 36.4519 73.5013 36.3129 73.6908 36.2624C73.975 36.1171 74.335 36.0982 74.6508 36.0982C74.8023 36.1171 74.9476 36.1361 75.0992 36.1613C75.1939 36.1929 75.3013 36.2119 75.3834 36.2687C75.4592 36.2876 75.6802 36.3824 75.7055 36.4582C75.9455 36.5782 76.116 36.9255 76.1981 37.1718C76.2549 37.3802 76.3055 37.6076 76.3244 37.8223C76.3181 39.6476 76.3181 41.4791 76.3181 43.3043C76.2928 43.3106 76.2739 43.3169 76.2549 43.3296C75.6928 43.3296 75.1308 43.3296 74.5687 43.3296C74.5497 43.3169 74.5371 43.3043 74.5245 43.298C74.5118 41.6244 74.5055 39.9444 74.4992 38.2771C74.4866 38.1823 74.4739 38.0939 74.4613 37.9992C74.436 37.9423 74.4171 37.8855 74.3981 37.835C74.3224 37.7213 74.2339 37.6518 74.1203 37.5823C74.0634 37.5634 74.0066 37.5445 73.9624 37.5255C73.8171 37.5255 73.6782 37.5255 73.5329 37.5255C73.4571 37.5445 73.3813 37.5697 73.3182 37.595C73.2866 37.6076 73.255 37.6266 73.2234 37.6455C73.0845 37.7655 73.0213 37.816 72.9392 37.9676C72.9329 38.0055 72.914 38.0623 72.8824 38.0939C72.8508 38.2455 72.8192 38.4034 72.794 38.5613C72.7877 40.1465 72.7877 41.7254 72.7877 43.3106C72.775 43.3169 72.7687 43.3233 72.7624 43.3359C72.2003 43.3359 71.6382 43.3359 71.0761 43.3422L71.0824 43.3359Z" fill="white"/>
<path fill-rule="evenodd" clip-rule="evenodd" d="M91.3114 43.3359C91.2988 43.3233 91.2925 43.3106 91.2862 43.3043C91.2798 40.9928 91.2798 38.6813 91.2798 36.3697C91.2862 36.3445 91.2925 36.3192 91.3051 36.3003C91.8861 36.3003 92.4735 36.3003 93.0609 36.3066C93.0672 36.3129 93.0735 36.3255 93.0798 36.3382C93.0798 38.656 93.0798 40.9738 93.0798 43.2917C93.0735 43.298 93.0672 43.3043 93.0609 43.3169C92.4735 43.3233 91.8925 43.3296 91.3114 43.3359Z" fill="white"/>
<path fill-rule="evenodd" clip-rule="evenodd" d="M91.2988 35.574C91.2925 35.5487 91.2862 35.5235 91.2798 35.4982C91.2798 35.0182 91.2798 34.5382 91.2798 34.0645C91.2988 34.0203 91.2988 34.0203 91.343 34.0014C91.8988 34.0014 92.4546 34.0014 93.0103 34.0014C93.0293 34.0077 93.0482 34.014 93.0672 34.0203C93.0672 34.5193 93.0735 35.0245 93.0798 35.5298C93.0735 35.5361 93.0672 35.5487 93.0672 35.5613C92.4735 35.5613 91.8861 35.5677 91.2988 35.574Z" fill="white"/>
<path fill-rule="evenodd" clip-rule="evenodd" d="M58.9627 29.5173C58.7164 29.5173 58.4701 29.4731 58.2238 29.4604C58.1417 29.4352 57.9143 29.4036 57.8638 29.3531C57.8322 29.3468 57.8007 29.3404 57.7691 29.3341C57.4975 29.2141 57.1186 29.0183 56.9544 28.7657C56.847 28.7152 56.8028 28.5573 56.7207 28.4752C56.607 28.2289 56.4996 27.9889 56.4365 27.7236C56.367 27.5784 56.3607 27.3952 56.3291 27.2437C56.3102 27.01 56.2912 26.7763 56.2786 26.5426C56.2723 26.2268 56.266 25.9111 56.266 25.6016C56.2912 25.2227 56.3165 24.85 56.3481 24.4711C56.3796 24.3511 56.3733 24.1869 56.4365 24.0858C56.4554 23.9848 56.4933 23.7511 56.5628 23.6816C56.5944 23.5869 56.626 23.5048 56.6638 23.4164C56.7523 23.2711 56.8344 23.0753 56.967 22.9743C56.9733 22.9553 56.9796 22.9364 56.9859 22.9238C57.0365 22.8985 57.0933 22.8353 57.1249 22.7911C57.2386 22.7027 57.3459 22.6206 57.4596 22.5322C57.5417 22.4817 57.6175 22.4375 57.7059 22.3933C57.788 22.3617 57.8638 22.3301 57.9522 22.2985C58.0849 22.2606 58.2112 22.229 58.3438 22.1975C58.4764 22.1785 58.6091 22.1596 58.748 22.1406C58.9627 22.1406 59.1838 22.1406 59.3985 22.1406C59.5438 22.1596 59.6827 22.1785 59.828 22.2038C59.9859 22.2543 60.188 22.2859 60.3269 22.3806C60.409 22.3806 60.6111 22.5322 60.668 22.5701C60.7501 22.6332 60.8258 22.7027 60.908 22.7659C60.9648 22.8353 61.0216 22.9048 61.0785 22.968C61.1669 23.1195 61.249 23.2774 61.3374 23.4353C61.3627 23.4922 61.3879 23.5553 61.4132 23.6122C61.4321 23.6816 61.4511 23.7511 61.4764 23.8143C61.4953 23.9027 61.5143 23.9848 61.5395 24.0732C61.5585 24.2058 61.5774 24.3321 61.6027 24.4648C61.6216 24.7363 61.6406 25.0079 61.6658 25.2858C61.6595 25.5511 61.6595 25.8163 61.6595 26.0816C60.4722 26.0879 59.2848 26.1005 58.0975 26.1132C58.0975 26.3342 58.0975 26.5616 58.0975 26.7826C58.1164 26.9784 58.1354 27.1805 58.1607 27.3826C58.1796 27.4584 58.1985 27.5279 58.2238 27.6036C58.3122 27.85 58.4385 28.0521 58.6596 28.2099C58.7101 28.2289 58.767 28.2478 58.8175 28.2731C58.9375 28.2731 59.0575 28.2731 59.1838 28.2731C59.2785 28.2289 59.3669 28.1847 59.468 28.1468C59.5059 28.1026 59.5438 28.0647 59.5817 28.0268C59.6701 28.0268 59.8217 27.5405 59.8343 27.471C59.8785 27.3258 59.8974 27.1868 59.9227 27.0352C59.9353 27.01 59.9543 26.9847 59.9732 26.9658C60.4911 26.9658 61.0153 26.9658 61.5458 26.9721C61.5521 26.9847 61.5585 26.9973 61.5648 27.01C61.5648 27.3321 61.4953 27.6605 61.4195 27.9636C61.3627 28.0963 61.3058 28.2289 61.2616 28.3678C61.1795 28.5131 61.0848 28.671 60.9648 28.8036C60.8953 28.8226 60.7311 29.0183 60.668 29.0752C60.5795 29.1257 60.4974 29.1762 60.409 29.2268C60.3585 29.2394 60.2953 29.2583 60.2638 29.2899C60.1753 29.3152 60.0995 29.3404 60.0174 29.372C59.9227 29.391 59.8343 29.4099 59.7396 29.4352C59.6132 29.4478 59.4932 29.4604 59.3669 29.4794C59.2406 29.4794 59.1206 29.4857 58.9943 29.492L58.9627 29.5173ZM58.1417 25.0458C58.1164 25.0332 58.0975 25.0206 58.0785 25.0142C58.0849 24.4521 58.0975 23.8458 58.5964 23.4859C58.767 23.4101 58.8996 23.3911 59.0954 23.3911C59.2785 23.4227 59.3796 23.4669 59.5311 23.568C59.569 23.6122 59.6132 23.6564 59.6575 23.7069C59.6764 23.7448 59.6953 23.7827 59.7206 23.8206C59.7396 23.8711 59.7585 23.9279 59.7838 23.9785C59.8027 24.0606 59.8217 24.1427 59.8469 24.2311C59.8659 24.4837 59.8911 24.7363 59.9164 24.9953C59.9101 25.0016 59.9038 25.0079 59.9038 25.0206C59.3164 25.0269 58.7291 25.0332 58.148 25.0395L58.1417 25.0458Z" fill="white"/>
<path fill-rule="evenodd" clip-rule="evenodd" d="M69.0425 29.511C68.9351 29.492 68.8341 29.4731 68.733 29.4604C68.5562 29.4099 68.1836 29.2647 68.0951 29.0878C67.9183 28.9489 67.8299 28.7278 67.7225 28.551C67.7036 28.5005 67.6846 28.4563 67.672 28.4121C67.6467 28.3173 67.6215 28.2352 67.5962 28.1468C67.5709 28.0015 67.552 27.85 67.5331 27.7047C67.5331 27.3952 67.5204 27.01 67.6404 26.7258C67.6909 26.4163 67.912 25.9932 68.1836 25.8605C68.1836 25.8479 68.1836 25.8353 68.1836 25.829C68.3604 25.7405 68.5436 25.57 68.7457 25.5321C68.9983 25.4058 69.3014 25.3237 69.5793 25.2669C69.6614 25.229 69.7814 25.229 69.8572 25.1784C70.0656 25.1216 70.2804 25.0648 70.4888 25.0206C70.5393 24.9953 70.5898 24.9763 70.6403 24.9574C70.7414 24.8879 70.8361 24.8185 70.9245 24.7364C70.9435 24.6985 70.9624 24.6606 70.9877 24.6227C71.0066 24.5343 71.0256 24.4585 71.0509 24.3764C71.0509 24.2816 71.0509 24.1932 71.0509 24.0985C71.0256 24.0101 71.0066 23.928 70.9877 23.8395C70.874 23.6501 70.7793 23.4985 70.5456 23.429C70.3056 23.4101 69.914 23.3343 69.7183 23.5364C69.5098 23.6059 69.4404 23.9785 69.3962 24.149C69.3898 24.2627 69.3835 24.37 69.3772 24.49C68.8404 24.49 68.3099 24.49 67.773 24.49C67.7667 24.3511 67.7667 24.2185 67.7667 24.0858C67.7857 23.7764 67.8551 23.4669 67.9941 23.2017C68.0194 23.1574 68.0446 23.1196 68.0762 23.0817C68.2783 22.6396 68.7772 22.4185 69.2004 22.2733C69.2888 22.248 69.3772 22.229 69.472 22.2101C69.6235 22.1848 69.7814 22.1659 69.933 22.1469C70.4509 22.1469 70.9751 22.1406 71.4866 22.2859C71.6003 22.3238 71.7077 22.368 71.8277 22.4122C72.0108 22.5006 72.1624 22.6143 72.314 22.7406C72.3835 22.8353 72.4529 22.9238 72.5224 23.0248C72.5477 23.1132 72.5982 23.2395 72.6487 23.3153C72.6677 23.3974 72.6866 23.4732 72.7119 23.5616C72.7308 23.688 72.7498 23.8143 72.775 23.9469C72.7813 25.4627 72.7877 26.9784 72.794 28.5005C72.8129 28.772 72.8698 29.0373 72.9771 29.2836C72.9708 29.3089 72.9645 29.3341 72.9645 29.3657C72.415 29.3657 71.8656 29.3657 71.3161 29.372C71.2151 29.3404 71.1772 29.1762 71.1393 29.0815C71.1203 28.9489 71.0824 28.8036 71.0319 28.6773C71.0256 28.671 71.0193 28.671 71.013 28.671C70.9245 28.8415 70.754 29.0626 70.5961 29.1699C70.5961 29.2268 70.2867 29.3341 70.2425 29.3783C70.1351 29.4036 70.034 29.4289 69.933 29.4604C69.8383 29.4668 69.6867 29.4541 69.6109 29.5047C69.4151 29.5047 69.213 29.5047 69.0235 29.511H69.0425ZM69.8888 28.311C69.7372 28.311 69.6046 28.2036 69.4972 28.1152C69.4593 28.0647 69.4277 28.0142 69.3962 27.9636C69.3709 27.9068 69.352 27.85 69.333 27.7994C69.3077 27.6794 69.2888 27.5658 69.2698 27.4458C69.2698 27.1868 69.3014 26.9658 69.4151 26.7258C69.4277 26.6942 69.4467 26.6689 69.4656 26.6437C69.5288 26.5805 69.5919 26.5174 69.6488 26.4605C69.9014 26.3089 70.154 26.2268 70.4446 26.17C70.5077 26.1447 70.5709 26.1258 70.6277 26.1068C70.7224 26.0563 70.874 25.9995 70.9498 25.93C70.9751 25.9237 71.0003 25.9237 71.0256 25.9237C71.0256 26.4037 71.0319 26.8963 71.0382 27.3826C71.013 27.471 70.994 27.5531 70.9751 27.6479C70.8993 27.7868 70.8172 27.9131 70.7035 28.0331C70.5961 28.0963 70.4951 28.1657 70.3877 28.2289C70.2172 28.2731 70.053 28.3047 69.8762 28.311H69.8888Z" fill="white"/>
<path fill-rule="evenodd" clip-rule="evenodd" d="M46.9378 29.3783C46.9188 29.372 46.8999 29.3657 46.8873 29.3594C46.8809 26.2647 46.8746 23.1638 46.8746 20.0754C46.8936 20.0565 46.9125 20.0438 46.9315 20.0312C47.8409 20.0312 48.7567 20.0312 49.6725 20.0375C49.6914 20.1007 49.7104 20.1701 49.7356 20.2333C49.7672 20.4165 49.7988 20.6059 49.8367 20.7891C49.843 20.808 49.8493 20.827 49.8619 20.8522C49.9125 21.1806 49.9819 21.5343 50.064 21.8564C50.0703 21.9764 50.1019 22.1027 50.1398 22.2164C50.1461 22.3175 50.1651 22.4185 50.203 22.5132C50.2219 22.6964 50.2788 22.8859 50.304 23.069C50.3356 23.1764 50.3356 23.3469 50.3924 23.4353C50.424 23.6248 50.4556 23.8206 50.4935 24.0101C50.5566 24.1364 50.5503 24.3195 50.6009 24.4585C50.6261 24.6606 50.6766 24.8753 50.7272 25.0711C50.7903 25.5574 50.9356 26.05 51.0177 26.53C51.0177 26.5363 51.024 26.5426 51.0303 26.5489C51.0872 26.4037 51.1314 26.2521 51.1503 26.0942C51.1756 25.9742 51.2072 25.8605 51.2387 25.7405C51.2703 25.5574 51.3019 25.3679 51.3398 25.1848C51.384 25.0395 51.3903 24.8753 51.4472 24.7364C51.504 24.2879 51.6556 23.8332 51.7124 23.3848C51.744 23.2332 51.7819 23.0753 51.8198 22.9238C51.9145 22.4248 52.0408 21.9006 52.1166 21.408C52.1229 21.3827 52.1292 21.3638 52.1419 21.3449C52.1734 21.1175 52.224 20.8838 52.2871 20.6565C52.3124 20.4544 52.325 20.208 52.445 20.0375C53.3545 20.0375 54.2639 20.0375 55.1734 20.0438C55.1797 20.0691 55.1923 20.0944 55.205 20.1196C55.1986 23.1953 55.1986 26.2647 55.1986 29.3404C55.186 29.3531 55.1797 29.3657 55.1734 29.3783C54.605 29.372 54.0366 29.372 53.4745 29.372C53.4618 26.9595 53.4492 24.5469 53.4429 22.1469C53.4366 22.128 53.4303 22.109 53.4239 22.0964C53.2913 22.488 53.2661 22.9238 53.1397 23.3216C53.064 23.7637 52.925 24.2122 52.8555 24.6669C52.7798 24.8185 52.7545 25.0648 52.7292 25.2353C52.6534 25.3869 52.6219 25.6079 52.6029 25.7721C52.5082 26.0879 52.4577 26.4289 52.3755 26.7447C52.2492 27.3005 52.1292 27.8563 52.0092 28.412C51.9713 28.551 51.9398 28.6836 51.9082 28.8226C51.8892 28.9615 51.845 29.271 51.7566 29.3783C51.2893 29.3783 50.8156 29.3783 50.3545 29.3783C50.3356 29.372 50.323 29.3657 50.3103 29.3657C50.2661 29.2331 50.2282 29.0941 50.2156 28.9552C50.1019 28.5573 50.0009 28.1215 49.9377 27.711C49.8935 27.6163 49.8935 27.49 49.8493 27.3889C49.7925 27.1237 49.7356 26.8647 49.6914 26.6058C49.6409 26.5047 49.6598 26.3658 49.603 26.2774C49.5904 26.1953 49.584 26.0563 49.5398 25.9868C49.4135 25.3111 49.224 24.6479 49.0977 23.9722C49.0093 23.7953 49.0346 23.5427 48.9525 23.3722C48.8956 23.0122 48.7883 22.6522 48.7314 22.2985C48.7125 22.2669 48.6999 22.2354 48.6872 22.2038C48.6683 22.1406 48.6556 22.0838 48.643 22.0333C48.6367 22.0585 48.6304 22.0838 48.6241 22.1154C48.6177 24.5343 48.6114 26.9531 48.6051 29.372C48.0557 29.3783 47.5062 29.3847 46.9567 29.391L46.9378 29.3783Z" fill="white"/>
<path fill-rule="evenodd" clip-rule="evenodd" d="M62.7837 29.3783C62.7711 29.3594 62.7584 29.3468 62.7521 29.3341C62.7521 27.01 62.7521 24.6858 62.7521 22.3617C62.7584 22.3554 62.7647 22.349 62.7711 22.3427C63.3268 22.3427 63.8889 22.3427 64.451 22.3427C64.4573 22.3427 64.4636 22.349 64.4763 22.3554C64.4763 22.608 64.4763 22.8606 64.4826 23.1195C64.4952 23.1448 64.5079 23.1701 64.5268 23.1953C64.6721 22.949 64.8426 22.7406 65.051 22.5385C65.1331 22.4754 65.2089 22.4185 65.2973 22.368C65.3352 22.3427 65.3794 22.3175 65.4236 22.2922C65.4741 22.2669 65.531 22.2417 65.5815 22.2227C65.8278 22.1785 66.1878 22.0775 66.4215 22.1975C66.4215 22.7469 66.4215 23.3027 66.4278 23.8585C66.4152 23.8711 66.4025 23.8837 66.3962 23.9027C66.1689 23.8964 65.9415 23.8901 65.7078 23.8901C65.5941 23.909 65.4868 23.9343 65.3794 23.9595C65.2215 24.0416 65.0257 24.1048 64.9121 24.2437C64.8615 24.2879 64.811 24.3385 64.7668 24.389C64.7163 24.4711 64.6721 24.5469 64.6278 24.629C64.6026 24.6985 64.5836 24.7742 64.5647 24.8437C64.5584 26.3342 64.5521 27.8247 64.5457 29.3152C64.5394 29.3278 64.5331 29.3468 64.5268 29.3657C63.9394 29.3657 63.3521 29.372 62.7711 29.3783H62.7837Z" fill="white"/>
<path fill-rule="evenodd" clip-rule="evenodd" d="M74.1771 29.3783C74.1518 29.3531 74.1266 29.3341 74.1013 29.3152C74.1013 26.2395 74.1013 23.1764 74.1013 20.107C74.1139 20.0565 74.1139 20.0438 74.1582 20.0249C74.7266 20.0249 75.3013 20.0249 75.876 20.0249C75.895 20.0501 75.9139 20.0754 75.9329 20.107C75.9265 21.048 75.9265 21.989 75.9265 22.9301C75.9518 22.9553 75.9518 22.9617 76.0023 22.9617C76.1981 22.6017 76.577 22.3301 76.9749 22.2417C77.0444 22.1722 77.2591 22.1722 77.3602 22.1533C77.537 22.1469 77.7202 22.1469 77.9033 22.1469C78.0296 22.1659 78.1496 22.1848 78.2823 22.2101C78.5159 22.2859 78.7307 22.3806 78.9265 22.5385C78.9265 22.5448 78.9265 22.5511 78.9265 22.5575C78.9454 22.5701 78.9644 22.5827 78.9896 22.6017C78.9896 22.608 78.9896 22.6143 78.9896 22.6206C79.1222 22.709 79.2233 22.9174 79.2801 23.0564C79.3243 23.1006 79.3307 23.2017 79.3622 23.2585C79.3812 23.3532 79.4001 23.448 79.4254 23.549C79.4317 23.6564 79.4443 23.7574 79.457 23.8648C79.4507 25.69 79.4507 27.5152 79.4507 29.3341C79.4443 29.3404 79.438 29.3468 79.4317 29.3594C78.838 29.3531 78.2507 29.3531 77.6633 29.3531C77.6507 27.6289 77.6381 25.9047 77.6318 24.1806C77.5939 24.0606 77.5686 23.9343 77.5054 23.8206C77.2907 23.5427 76.9749 23.5237 76.6402 23.5616C76.4886 23.6311 76.3055 23.669 76.2044 23.808C76.1476 23.808 76.0528 24.0353 76.0276 24.0985C75.9897 24.269 75.9518 24.4458 75.9329 24.6227C75.9329 26.1637 75.9329 27.7047 75.9392 29.2394C75.9265 29.2773 75.9139 29.3152 75.9013 29.3531C75.3266 29.3594 74.7518 29.3657 74.1834 29.372L74.1771 29.3783Z" fill="white"/>
<path fill-rule="evenodd" clip-rule="evenodd" d="M79.6464 16.7344C79.5454 16.6839 79.4065 16.7344 79.3054 16.6966C78.9201 16.665 78.5538 16.5639 78.2065 16.3934C78.1623 16.3681 78.1244 16.3492 78.0865 16.3302C78.0865 16.3239 78.0865 16.3176 78.0865 16.3113C77.7833 16.1534 77.6065 15.8692 77.4549 15.5724C77.4233 15.4587 77.3918 15.3513 77.3665 15.2376C77.3539 15.0987 77.3412 14.9661 77.3349 14.8334C77.897 14.8271 78.4654 14.8271 79.0338 14.8271C79.0844 14.8587 79.1033 15.0292 79.1223 15.0924C79.1412 15.1303 79.1665 15.1745 79.1917 15.2187C79.217 15.244 79.2422 15.2692 79.2675 15.3008C79.337 15.345 79.4065 15.3955 79.4759 15.4461C79.5138 15.465 79.5517 15.4839 79.5959 15.5092C79.8359 15.5534 80.1012 15.5661 80.3349 15.4966C80.4927 15.4271 80.6759 15.3197 80.7327 15.1429C80.7833 15.0924 80.8275 14.9408 80.859 14.865C80.9664 14.4229 80.9222 13.9429 80.9222 13.4945C80.9033 13.4882 80.8843 13.4819 80.8717 13.4756C80.8212 13.5829 80.7012 13.6714 80.6254 13.7724C80.5496 13.8293 80.4801 13.8861 80.4043 13.9429C80.3664 13.9682 80.3285 13.9935 80.297 14.025C80.2022 14.0692 80.1138 14.1198 80.0191 14.1703C79.9559 14.1892 79.8991 14.2082 79.8485 14.2335C79.7286 14.2524 79.6212 14.2713 79.5075 14.2966C79.4254 14.2966 79.3496 14.2966 79.2675 14.2966C79.1286 14.2713 78.9959 14.2524 78.857 14.2335C78.7686 14.2019 78.6865 14.1766 78.5981 14.1514C78.3833 13.9808 78.0865 13.9177 77.9286 13.665C77.916 13.665 77.9096 13.665 77.9033 13.665C77.9033 13.6145 77.7265 13.3998 77.7202 13.3872C77.6507 13.2419 77.5812 13.0903 77.5244 12.9451C77.4107 12.5724 77.3349 12.1998 77.3097 11.8146C77.2907 11.7072 77.2781 11.6125 77.2655 11.5114C77.2591 11.0946 77.2528 10.6841 77.2528 10.2672C77.2655 9.95777 77.316 9.6483 77.3286 9.34515C77.3728 9.14305 77.3918 8.84622 77.4928 8.66307C77.5054 8.60622 77.5181 8.52412 77.556 8.49254C77.6065 8.36623 77.6633 8.24623 77.7139 8.11992C77.8023 7.98729 77.8907 7.8673 77.9854 7.74098C78.0423 7.74098 78.137 7.5452 78.2128 7.5452C78.2886 7.39362 78.5981 7.31152 78.7307 7.24836C78.838 7.2231 78.9391 7.19784 79.0465 7.17258C79.2928 7.17258 79.5517 7.15994 79.798 7.18521C79.9307 7.23573 80.0885 7.261 80.2022 7.33678C80.3791 7.41257 80.5685 7.56415 80.6696 7.72835C80.7706 7.77888 80.8085 7.96835 80.8843 8.05045C80.8906 8.03782 80.9033 8.02519 80.9159 8.01256C80.9159 7.81677 80.9159 7.61467 80.9222 7.4252C80.9412 7.34941 80.9538 7.35573 81.0043 7.32415C81.5096 7.32415 82.0211 7.32415 82.5327 7.32415C82.5643 7.32415 82.5958 7.33047 82.6337 7.33678C82.6401 7.34941 82.6464 7.36205 82.659 7.37468C82.6527 9.73041 82.6527 12.0861 82.6527 14.4419C82.6274 14.5871 82.6085 14.7387 82.5895 14.884C82.5327 15.0419 82.4822 15.2124 82.438 15.3766C82.3685 15.5029 82.299 15.6229 82.2422 15.7492C82.179 15.8187 82.1222 15.8881 82.0717 15.9576C81.9832 16.0145 81.8759 16.1345 81.8064 16.2166C81.579 16.3492 81.3011 16.526 81.0359 16.5639C80.9412 16.5955 80.859 16.6208 80.758 16.6271C80.6001 16.7092 80.3601 16.6587 80.1959 16.7155C80.0191 16.7218 79.8359 16.7281 79.6591 16.7408L79.6464 16.7344ZM79.8107 12.8819C79.6843 12.844 79.5517 12.7998 79.4633 12.7051C79.3433 12.6482 79.2422 12.3956 79.1917 12.2882C79.1665 12.1872 79.1412 12.0988 79.1159 12.004C79.0907 11.8398 79.0717 11.6693 79.0528 11.5114C79.0528 11.0883 79.0528 10.6778 79.0528 10.2609C79.0717 10.122 79.0465 9.95145 79.097 9.82514C79.1159 9.46515 79.1728 9.09253 79.3749 8.78938C79.4191 8.74517 79.4633 8.70096 79.5075 8.66307C79.558 8.63149 79.6149 8.60622 79.6654 8.58096C79.8864 8.54307 80.057 8.51781 80.278 8.58096C80.3475 8.62517 80.4233 8.66938 80.4927 8.71991C80.5433 8.78306 80.5938 8.84622 80.638 8.90306C80.6569 8.94727 80.6759 8.99148 80.7012 9.042C80.7201 9.10516 80.7391 9.16832 80.7643 9.22516C80.7833 9.31358 80.8022 9.39568 80.8275 9.4841C80.8527 9.74304 80.8969 10.002 80.9096 10.2609C80.9096 10.6083 80.9096 10.9556 80.9096 11.303C80.878 11.524 80.8527 11.7451 80.8275 11.9788C80.8085 12.0104 80.7959 12.0419 80.7833 12.0798C80.7706 12.1746 80.7264 12.2693 80.7012 12.3577C80.6254 12.4651 80.5496 12.5661 80.4801 12.6735C80.417 12.7177 80.3601 12.7619 80.3096 12.8061C80.2338 12.8251 80.158 12.844 80.0949 12.8693C79.9938 12.8693 79.9054 12.8756 79.8107 12.8819Z" fill="white"/>
<path fill-rule="evenodd" clip-rule="evenodd" d="M55.5523 14.4924C54.9207 14.4924 54.3586 14.0314 54.1818 13.4377C54.0807 13.2419 54.0681 12.983 54.0302 12.7619C54.0239 12.5977 54.0239 12.4272 54.0239 12.2693C54.0492 12.0356 54.0681 11.7198 54.1818 11.5114C54.327 11.082 54.7186 10.703 55.1481 10.5578C55.2491 10.5072 55.3502 10.4504 55.4702 10.4314C55.8428 10.2799 56.2659 10.1978 56.6575 10.0967C56.6765 10.0841 56.7017 10.0715 56.727 10.0651C56.8912 10.0272 57.068 9.9704 57.2133 9.90093C57.3207 9.82515 57.4217 9.73673 57.4722 9.61041C57.4912 9.53463 57.5101 9.46515 57.5354 9.38937C57.5354 9.29463 57.5354 9.20621 57.5354 9.11148C57.5101 9.01674 57.4912 8.92833 57.4722 8.83359C57.4343 8.77043 57.3964 8.70728 57.3585 8.65044C57.2196 8.51149 57.1375 8.46728 56.948 8.40413C56.8091 8.39781 56.6765 8.39781 56.5438 8.39781C56.348 8.45465 56.1144 8.50518 56.0386 8.71359C56.0323 8.71359 56.026 8.71359 56.0196 8.71359C55.9881 8.76412 55.9628 8.82096 55.9375 8.87148C55.9123 8.95359 55.8933 9.02938 55.8744 9.11148C55.8617 9.23779 55.8554 9.35779 55.8491 9.4841C55.3249 9.4841 54.807 9.4841 54.2828 9.4841C54.1881 9.43989 54.2576 8.92833 54.2639 8.80201C54.2828 8.71359 54.3018 8.63149 54.327 8.54307C54.3776 8.41676 54.4281 8.30308 54.4723 8.18308C54.5544 8.05677 54.6365 7.93677 54.7249 7.81677C54.7628 7.77256 54.807 7.72836 54.8512 7.69046C54.9649 7.61467 55.0723 7.50731 55.2112 7.4631C55.3312 7.3431 55.6533 7.27995 55.8112 7.23574C55.9186 7.21047 56.0196 7.19153 56.127 7.17258C56.7712 7.13469 57.4533 7.10311 58.0722 7.31152C58.1733 7.34942 58.3312 7.39363 58.4069 7.4631C58.5143 7.49468 58.5901 7.58941 58.6848 7.62099C58.6848 7.62731 58.6848 7.63362 58.6848 7.63994C58.7669 7.69678 58.8427 7.7852 58.8932 7.86098C59.0132 7.98098 59.0764 8.18308 59.1396 8.33466C59.1396 8.41044 59.1648 8.47992 59.1901 8.54307C59.209 8.68202 59.228 8.81464 59.2532 8.95359C59.2596 10.4693 59.2659 11.9851 59.2722 13.5008C59.2722 13.7661 59.3796 14.0629 59.468 14.3029C59.4553 14.3156 59.449 14.3282 59.4427 14.3471C58.8806 14.3471 58.3185 14.3471 57.7564 14.3535C57.668 14.265 57.6554 14.1261 57.6049 14.025C57.5985 13.9682 57.5543 13.6714 57.4975 13.6461C57.4407 13.7029 57.428 13.804 57.3585 13.8356C57.2133 14.0882 56.9165 14.2903 56.6449 14.3787C56.4933 14.4103 56.3417 14.4419 56.1965 14.4735C55.9754 14.4735 55.7544 14.4798 55.5333 14.4861L55.5523 14.4924ZM56.3859 13.2987C56.247 13.2672 56.1396 13.2356 56.026 13.1535C55.7354 12.8061 55.7165 12.3261 55.8239 11.8967C55.8681 11.8019 55.9123 11.7198 55.9565 11.6314C56.007 11.5809 56.0575 11.5304 56.1081 11.4862C56.2091 11.4293 56.2786 11.3535 56.3986 11.3283C56.5438 11.2588 56.7017 11.2083 56.8596 11.183C56.8722 11.1704 56.8849 11.1641 56.9038 11.1577C57.0112 11.1388 57.2954 11.0567 57.3522 10.9746C57.3901 10.9493 57.428 10.9304 57.4722 10.9114C57.4912 10.9051 57.5101 10.9051 57.5291 10.9051C57.5291 11.3788 57.5291 11.8651 57.5354 12.3451C57.5101 12.484 57.4785 12.6419 57.4091 12.7682C57.3396 12.8503 57.2764 12.9261 57.2196 13.0082C57.1312 13.0714 57.0491 13.1345 56.9607 13.1914C56.9038 13.2103 56.847 13.2293 56.7965 13.2545C56.6575 13.2672 56.5249 13.2861 56.3923 13.3051L56.3859 13.2987Z" fill="white"/>
<path fill-rule="evenodd" clip-rule="evenodd" d="M65.411 14.4924C65.2026 14.4924 64.95 14.4166 64.7605 14.3408C64.7037 14.3029 64.6468 14.265 64.5963 14.2335C64.5142 14.1703 64.4131 14.1071 64.3689 14.025C64.211 13.8356 64.0974 13.6082 64.0026 13.3808C63.9774 13.3051 63.9584 13.2293 63.9395 13.1598C63.9142 13.0209 63.8953 12.8882 63.8763 12.7556C63.8763 12.2251 63.8826 11.6377 64.1984 11.1767C64.1984 11.1514 64.2174 11.1388 64.2363 11.1325C64.331 10.9493 64.571 10.7409 64.7668 10.6714C64.7668 10.6651 64.7668 10.6588 64.7668 10.6525C64.8994 10.602 65.0258 10.5262 65.1647 10.4946C65.1773 10.482 65.19 10.4693 65.2089 10.463C65.7205 10.3178 66.2447 10.1283 66.7626 10.0272C66.8636 9.98304 66.9583 9.93883 67.0594 9.90093C67.1162 9.85041 67.1731 9.8062 67.2236 9.76199C67.2615 9.69252 67.2994 9.62304 67.3436 9.5662C67.3562 9.50936 67.3689 9.45252 67.3878 9.402C67.3878 9.30726 67.3878 9.22516 67.3941 9.13674C67.3689 9.02306 67.3436 8.92201 67.3246 8.81464C67.2994 8.76412 67.2741 8.71991 67.2552 8.6757C67.2489 8.6757 67.2425 8.6757 67.2362 8.6757C67.1415 8.51781 66.9836 8.44834 66.8068 8.3915C66.6489 8.3915 66.491 8.3915 66.3394 8.3915C66.1626 8.44202 66.0615 8.50518 65.9289 8.63149C65.8847 8.69465 65.8468 8.7578 65.8089 8.82096C65.7836 8.89043 65.7647 8.9599 65.7457 9.02306C65.7394 9.10516 65.7394 9.42094 65.6889 9.46515C65.1647 9.45884 64.6468 9.45884 64.1226 9.45884C64.1163 9.45252 64.11 9.44621 64.1037 9.43989C64.1037 9.21884 64.091 8.98517 64.1289 8.7578C64.1731 8.5557 64.2616 8.36623 64.3184 8.18308C64.3374 8.13887 64.3626 8.09466 64.3879 8.05677C64.3942 8.05677 64.4005 8.05677 64.4131 8.05677C64.4131 8.01256 64.4384 7.96835 64.4763 7.9494C64.5331 7.87361 64.59 7.80414 64.6405 7.72835C64.8489 7.57046 65.0826 7.38099 65.3415 7.31784C65.4426 7.26731 65.5563 7.261 65.6573 7.21047C65.8026 7.18521 65.9415 7.15995 66.0868 7.13469C66.4973 7.13469 66.9141 7.12837 67.3246 7.14732C67.4699 7.17889 67.6594 7.18521 67.792 7.25468C68.0952 7.30521 68.373 7.48204 68.6067 7.6652C68.6067 7.69678 68.6636 7.72204 68.6762 7.75362C68.8215 7.89888 68.9162 8.10098 68.992 8.29045C69.0109 8.35992 69.0299 8.43571 69.0488 8.50518C69.0678 8.64412 69.0867 8.77675 69.112 8.92201C69.1183 10.362 69.1246 11.8019 69.1309 13.2482C69.1372 13.3935 69.1435 13.5324 69.1499 13.684C69.1688 13.7724 69.1878 13.8545 69.213 13.9493C69.2509 14.0503 69.2888 14.1514 69.333 14.2587C69.333 14.2777 69.333 14.2966 69.333 14.3219C68.7646 14.3282 68.1962 14.3345 67.6278 14.3408C67.5078 14.2208 67.4762 14.0061 67.451 13.8545C67.4257 13.785 67.4068 13.7156 67.3878 13.6524C67.3815 13.6461 67.3752 13.6398 67.3689 13.6398C67.3057 13.7535 67.2173 13.8735 67.1352 13.9682C67.091 13.9871 66.9773 14.1008 66.971 14.1387C66.8636 14.2019 66.7626 14.265 66.6615 14.3282C66.472 14.385 66.2699 14.4356 66.0742 14.4671C65.8531 14.4671 65.6321 14.4735 65.4173 14.4798L65.411 14.4924ZM66.232 13.2987C66.1752 13.2861 66.1184 13.2735 66.0678 13.2608C65.9036 13.1787 65.7457 13.0524 65.7078 12.8566C65.6005 12.6482 65.6131 12.3956 65.6131 12.1556C65.6257 12.0672 65.6447 11.9851 65.6636 11.8967C65.6826 11.8461 65.7015 11.7956 65.7268 11.7514C65.8215 11.6062 65.8973 11.5051 66.0426 11.4041C66.1878 11.3409 66.3331 11.2777 66.4847 11.2209C66.6299 11.1767 66.7815 11.1388 66.9268 11.1009C67.0215 11.0314 67.2741 10.8925 67.3752 10.8925C67.3752 11.3598 67.3815 11.8398 67.3878 12.3135C67.3625 12.4082 67.3436 12.4967 67.3246 12.5977C67.2804 12.6798 67.2362 12.7556 67.1983 12.844C67.1604 12.8693 67.1352 12.8819 67.1352 12.9324C67.1225 12.9324 67.1162 12.9324 67.1099 12.9324C67.0152 13.0777 66.7941 13.1787 66.6426 13.2419C66.4973 13.2545 66.3647 13.2735 66.2257 13.2924L66.232 13.2987Z" fill="white"/>
<path fill-rule="evenodd" clip-rule="evenodd" d="M46.9252 14.3661C46.9062 14.3535 46.8936 14.3471 46.8809 14.3408C46.8746 11.2398 46.8746 8.13256 46.8746 5.0379C48.1567 5.0379 49.4325 5.0379 50.7209 5.0379C50.7209 5.04421 50.7209 5.05684 50.7209 5.06947C50.8219 5.09474 50.9798 5.0821 51.0493 5.15158C51.2829 5.20842 51.4914 5.33473 51.6998 5.4421C51.6998 5.46104 52.0598 5.74525 52.0724 5.75156C52.085 5.78946 52.0913 5.80209 52.1229 5.81472C52.2113 5.94735 52.2934 6.07366 52.3882 6.2126C52.445 6.33892 52.5145 6.45891 52.5461 6.59154C52.5524 6.61049 52.565 6.62943 52.5777 6.6547C52.6219 6.8568 52.6913 7.07784 52.7166 7.28626C52.7229 7.46941 52.7861 7.84835 52.7355 8.02519C52.7229 8.1894 52.7103 8.35992 52.6976 8.53044C52.6471 8.68833 52.6029 8.85254 52.5587 9.01043C52.5271 9.09253 52.4703 9.25674 52.4134 9.31358C52.325 9.50936 52.1924 9.67357 52.0598 9.84409C51.9587 9.91988 51.864 9.99567 51.7692 10.0778C51.7692 10.0841 51.7692 10.0904 51.7692 10.103C51.6871 10.1536 51.6114 10.2041 51.5293 10.2546C51.2829 10.3809 51.024 10.4883 50.7587 10.5388C50.7335 10.5451 50.7145 10.5514 50.6956 10.5641C50.563 10.583 50.443 10.602 50.3167 10.6272C49.8114 10.6399 49.2998 10.6525 48.7946 10.6651C48.7883 10.6778 48.782 10.6967 48.782 10.7156C48.7693 11.9282 48.763 13.1409 48.7567 14.3535C48.7441 14.3598 48.7314 14.3661 48.7251 14.3724C48.1188 14.3724 47.5188 14.3724 46.9188 14.3787L46.9252 14.3661ZM48.8262 9.25042C48.8072 9.23148 48.7946 9.21253 48.782 9.1999C48.782 8.29045 48.782 7.38099 48.782 6.47154C48.7946 6.45891 48.8072 6.44628 48.8198 6.43365C49.1988 6.43365 49.5967 6.4147 49.9693 6.4526C50.0388 6.47154 50.1146 6.49049 50.184 6.51575C50.2219 6.5347 50.2661 6.55365 50.3103 6.57891C50.3735 6.62943 50.443 6.67996 50.5061 6.73048C50.5503 6.79364 50.6009 6.8568 50.6514 6.91995C50.6766 6.98943 50.7019 7.0589 50.7335 7.12837C50.8661 7.38731 50.8535 7.74099 50.8535 8.02519C50.8282 8.14519 50.8093 8.26518 50.7903 8.3915C50.7651 8.46097 50.7398 8.53044 50.7145 8.59991C50.6514 8.68833 50.5882 8.77675 50.5314 8.87148C50.424 8.96622 50.2977 9.05464 50.1714 9.12411C50.0767 9.14937 49.9882 9.17463 49.8998 9.1999C49.5398 9.21253 49.1798 9.22516 48.8325 9.24411L48.8262 9.25042Z" fill="white"/>
<path fill-rule="evenodd" clip-rule="evenodd" d="M60.8385 14.3661C60.8195 14.3535 60.8006 14.3408 60.7816 14.3345C60.7753 11.2335 60.7753 8.13256 60.7753 5.0379C61.3816 5.0379 61.9879 5.0379 62.6005 5.0379C62.5942 8.13256 62.5942 11.2335 62.5942 14.3345C62.5753 14.3408 62.5627 14.3471 62.55 14.3535C61.9753 14.3535 61.4069 14.3598 60.8385 14.3661Z" fill="white"/>
<path fill-rule="evenodd" clip-rule="evenodd" d="M70.6403 14.3661C70.634 14.3535 70.6277 14.3471 70.6214 14.3408C70.6214 12.0167 70.6214 9.69251 70.6214 7.36836C70.6277 7.34941 70.634 7.33678 70.6403 7.32415C71.1898 7.31784 71.7393 7.31784 72.2887 7.31784C72.3014 7.31784 72.314 7.32415 72.3329 7.33047C72.3393 7.3431 72.3456 7.35573 72.3519 7.37468C72.3519 7.46941 72.3266 8.08203 72.3898 8.11361C72.4403 8.02519 72.4971 7.9494 72.5477 7.8673C72.7119 7.67151 72.9708 7.41257 73.2298 7.3431C73.375 7.24836 73.5582 7.23573 73.7161 7.17889C74.095 7.14731 74.5181 7.12837 74.8845 7.24205C74.9855 7.28626 75.1244 7.31784 75.2065 7.39362C75.3455 7.43783 75.4529 7.59572 75.5665 7.69046C75.6297 7.78519 75.6929 7.87361 75.7497 7.97466C75.7686 8.02519 75.7876 8.07571 75.8128 8.12624C75.8318 8.18939 75.8507 8.25887 75.876 8.32202C75.9013 8.45465 75.9265 8.58728 75.9518 8.72622C75.9518 10.602 75.9518 12.4714 75.9518 14.3535C75.9455 14.3535 75.9392 14.3598 75.9392 14.3661C75.3518 14.3661 74.7645 14.3661 74.1834 14.3661C74.1708 14.3598 74.1645 14.3535 74.1582 14.3535C74.1518 12.6924 74.1455 11.0314 74.1455 9.37673C74.1266 9.26305 74.1076 9.15569 74.095 9.04832C74.0571 8.92832 74.0066 8.82727 73.9371 8.72622C73.6529 8.51781 73.3498 8.53675 73.015 8.59991C72.9582 8.63149 72.9013 8.66307 72.8508 8.69464C72.674 8.78306 72.5729 9.00411 72.5035 9.18095C72.4782 9.32621 72.4529 9.46515 72.434 9.61673C72.4277 11.1956 72.4277 12.7682 72.4277 14.3471C72.415 14.3535 72.4087 14.3598 72.4024 14.3661C71.8151 14.3661 71.2277 14.3724 70.6403 14.3787V14.3661Z" fill="white"/>
</svg>
