<svg width="228" height="53" viewBox="0 0 228 53" fill="none" xmlns="http://www.w3.org/2000/svg">
<path fill-rule="evenodd" clip-rule="evenodd" d="M32.5697 31.3847C33.8139 32.7804 34.5718 34.6183 34.5718 36.6203C34.5718 40.9592 31.0287 44.5022 26.6899 44.5022C23.7468 44.5022 21.17 42.8728 19.8184 40.4729C18.4606 42.8475 15.8964 44.458 12.9723 44.458C8.63346 44.458 5.09039 40.9149 5.09039 36.5761C5.09039 34.5867 5.83563 32.7678 7.05455 31.3783C3.51148 30.6078 0.839966 27.4437 0.839966 23.6733C0.839966 19.3344 4.38304 15.7914 8.72188 15.7914C9.87764 15.7914 10.9702 16.044 11.9618 16.4924C11.9365 16.2398 11.9239 15.9808 11.9239 15.7156C11.9239 11.3767 15.467 7.83366 19.8058 7.83366C24.1447 7.83366 27.6877 11.3767 27.6877 15.7156C27.6877 15.9745 27.6751 16.2335 27.6498 16.4924C28.6351 16.0503 29.7214 15.804 30.8645 15.804C35.2033 15.804 38.7464 19.3471 38.7464 23.6859C38.7464 27.4437 36.0938 30.6015 32.5634 31.3847H32.5697Z" fill="#FEFEFE"/>
<path fill-rule="evenodd" clip-rule="evenodd" d="M33.9718 31.8331C34.3191 32.3573 34.6097 32.9257 34.837 33.5257C35.2033 34.4919 35.4054 35.534 35.4054 36.6203C35.4054 39.0203 34.4265 41.2055 32.8476 42.7844C31.2687 44.3633 29.0835 45.3422 26.6835 45.3422C25.0857 45.3422 23.5889 44.9064 22.2942 44.1486C21.3342 43.5865 20.4942 42.8475 19.8121 41.976C19.1301 42.8349 18.2901 43.5675 17.3364 44.1233C16.048 44.8749 14.5575 45.3043 12.966 45.3043C10.5661 45.3043 8.38085 44.3254 6.80194 42.7465C5.22303 41.1676 4.24411 38.9824 4.24411 36.5824C4.24411 35.5088 4.43989 34.473 4.8062 33.513C5.02724 32.9257 5.31145 32.3636 5.65249 31.8457C4.18095 31.2899 2.89888 30.3489 1.93258 29.1426C0.726298 27.6458 0 25.7448 0 23.6796C0 21.2796 0.978923 19.0944 2.55783 17.5155C4.13674 15.9366 6.32195 14.9577 8.72189 14.9577C9.34714 14.9577 9.95975 15.0272 10.5534 15.1535C10.7366 15.1914 10.9134 15.2356 11.0903 15.2861C11.1976 13.0567 12.1576 11.042 13.6418 9.55783C15.2207 7.97892 17.4059 7 19.8058 7C22.2058 7 24.391 7.97892 25.9699 9.55783C27.4541 11.042 28.4077 13.063 28.5214 15.2924C28.6982 15.2419 28.8688 15.1977 29.0519 15.1598C29.6456 15.0335 30.2519 14.964 30.8708 14.964C33.2708 14.964 35.456 15.9429 37.0349 17.5218C38.6138 19.1008 39.5927 21.286 39.5927 23.6859C39.5927 25.7448 38.8727 27.6395 37.6727 29.1363C36.7128 30.3363 35.437 31.2773 33.9781 31.8331H33.9718ZM11.9618 16.4924C11.9365 16.2398 11.9239 15.9808 11.9239 15.7156C11.9239 11.3767 15.467 7.83366 19.8058 7.83366C24.1447 7.83366 27.6877 11.3767 27.6877 15.7156C27.6877 15.9745 27.6751 16.2335 27.6498 16.4924C28.6351 16.0503 29.7214 15.804 30.8645 15.804C35.2033 15.804 38.7464 19.3471 38.7464 23.6859C38.7464 27.4437 36.0938 30.6015 32.5634 31.3847C33.8076 32.7804 34.5655 34.6183 34.5655 36.6203C34.5655 40.9592 31.0224 44.5022 26.6835 44.5022C23.7405 44.5022 21.1637 42.8728 19.8121 40.4729C18.4543 42.8475 15.8901 44.458 12.966 44.458C8.62715 44.458 5.08408 40.9149 5.08408 36.5761C5.08408 34.5867 5.82933 32.7678 7.04825 31.3783C3.50518 30.6078 0.833664 27.4437 0.833664 23.6733C0.833664 19.3344 4.37673 15.7914 8.71557 15.7914C9.87133 15.7914 10.9639 16.044 11.9555 16.4924H11.9618Z" fill="#E62129"/>
<path fill-rule="evenodd" clip-rule="evenodd" d="M15.9406 15.2672H23.6457V22.9596H31.3382V30.6647H23.6457V38.3634H15.9406V30.6647H8.24188V22.9596H15.9406V15.2672Z" fill="#E62129"/>
<path fill-rule="evenodd" clip-rule="evenodd" d="M58.8554 45.4559C58.647 45.4243 58.3817 45.3675 58.1985 45.2475C57.8386 45.1022 57.5101 44.6727 57.3901 44.3191C57.3838 44.3128 57.3775 44.3064 57.3712 44.3001C57.3017 44.0791 57.2323 43.858 57.1754 43.637C57.1501 43.517 57.1312 43.4096 57.1123 43.2959C57.087 43.0433 57.0617 42.797 57.0365 42.5507C57.0365 41.9886 57.0428 41.4328 57.0491 40.8771C57.1123 40.4539 57.1312 40.0308 57.2765 39.6266C57.3838 39.1845 57.6301 38.7739 57.9775 38.4897C58.0722 38.4266 58.1607 38.3634 58.2554 38.3129C58.3122 38.2813 58.3754 38.2561 58.4322 38.2308C58.5017 38.2055 58.5712 38.1866 58.6406 38.1676C58.8491 38.1424 59.0638 38.1045 59.2722 38.1045C59.4111 38.1234 59.5438 38.1424 59.689 38.1676C59.8217 38.2245 59.9543 38.2624 60.0743 38.3382C60.308 38.4582 60.5101 38.6855 60.6616 38.8876C60.668 38.8876 60.6743 38.8876 60.6869 38.8876C60.6932 38.875 60.6995 38.8624 60.7122 38.8497C60.7122 37.915 60.7122 36.9803 60.7185 36.0519C60.7501 36.0203 60.788 36.0203 60.8322 36.0014C61.369 36.0014 61.9058 36.0014 62.449 36.0014C62.4869 36.0014 62.5121 36.033 62.5374 36.0582C62.5311 39.1339 62.5311 42.2033 62.5311 45.2854C62.4932 45.3233 62.449 45.3296 62.3921 45.3359C61.8806 45.3359 61.3627 45.3359 60.8574 45.3359C60.8385 45.3169 60.8195 45.298 60.8006 45.279C60.7943 45.0833 60.788 44.8812 60.788 44.6917C60.769 44.6854 60.7501 44.6791 60.7311 44.6791C60.428 45.0706 60.2448 45.2096 59.7775 45.4117C59.5564 45.4748 59.0006 45.5064 58.8491 45.4559H58.8554ZM59.6322 44.117C59.5817 44.1043 59.5311 44.0917 59.4869 44.0791C59.2911 43.978 59.1522 43.8896 59.0575 43.6812C59.0069 43.6307 59.0259 43.5359 58.9754 43.4854C58.9438 43.3401 58.9185 43.1949 58.8933 43.0496C58.8743 42.8665 58.8554 42.677 58.8427 42.4939C58.8364 42.1654 58.8301 41.837 58.8301 41.5086C58.8491 41.1992 58.868 40.896 58.8933 40.5928C58.9312 40.3213 58.9817 40.0118 59.1522 39.7971C59.1522 39.6771 59.4932 39.5508 59.569 39.5255C59.7017 39.5255 59.828 39.5255 59.9606 39.5255C60.0238 39.5445 60.0869 39.5634 60.1438 39.5887C60.188 39.6202 60.2322 39.6518 60.2764 39.6834C60.409 39.8223 60.4848 39.9423 60.5227 40.1255C60.5859 40.1886 60.5606 40.3339 60.6111 40.416C60.6301 40.5802 60.6553 40.7507 60.6806 40.9213C60.7059 41.6728 60.7311 42.4433 60.6174 43.1886C60.5922 43.2959 60.5669 43.397 60.5416 43.5107C60.5101 43.5801 60.4785 43.6496 60.4532 43.7128C60.428 43.8138 60.308 43.9338 60.2385 43.9907C60.188 44.0159 60.1438 44.0412 60.0996 44.0664C59.948 44.098 59.7838 44.1107 59.6259 44.117H59.6322Z" fill="black"/>
<path fill-rule="evenodd" clip-rule="evenodd" d="M66.2131 45.4938C66.2068 45.4811 66.2005 45.4685 66.2005 45.4559C65.9352 45.4117 65.6257 45.3738 65.3794 45.2727C65.291 45.2285 65.2152 45.1843 65.1331 45.1464C65.0258 45.0643 64.9247 44.9885 64.8237 44.9064C64.7605 44.837 64.6531 44.7422 64.6152 44.6601C64.5142 44.6601 64.2931 44.0538 64.2552 43.9907C64.2047 43.8201 64.1605 43.6433 64.1163 43.4791C64.0721 43.138 64.0279 42.797 63.99 42.456C63.99 42.4433 63.99 42.437 63.99 42.4307C63.99 42.0454 63.99 41.6665 63.9963 41.2813C63.9963 41.1549 63.99 41.0223 64.0342 40.9023C64.0531 40.5486 64.1037 40.195 64.2174 39.8666C64.2679 39.6202 64.4068 39.4055 64.5205 39.1781C64.5584 39.115 64.5963 39.0581 64.6342 39.0076C64.6468 38.995 64.6594 38.9887 64.6721 38.9824C64.7163 38.8876 64.8994 38.6729 65.0005 38.6476C65.0005 38.5845 65.2342 38.4897 65.2847 38.4392C65.3226 38.414 65.3668 38.395 65.411 38.3761C65.5436 38.3255 65.6699 38.275 65.8089 38.2245C66.2131 38.1424 66.5983 38.0982 67.0089 38.0982C67.192 38.1171 67.3815 38.1361 67.5646 38.1613C67.7667 38.2119 67.9752 38.275 68.1709 38.3445C68.2594 38.395 68.3478 38.4455 68.4425 38.4897C68.4425 38.5087 68.6004 38.6097 68.6257 38.6224C68.6257 38.6287 68.6257 38.635 68.632 38.6476C68.9541 38.9255 69.1688 39.3108 69.2825 39.7087C69.2888 39.715 69.2951 39.7276 69.3078 39.7402C69.3646 40.0308 69.453 40.3213 69.4656 40.6181C69.5162 40.8581 69.5225 41.1234 69.5288 41.3697C69.5225 41.8118 69.5162 42.2475 69.5099 42.696C69.4404 42.8665 69.4972 43.1759 69.4025 43.3212C69.3709 43.4538 69.3456 43.5865 69.3204 43.7254C69.2951 43.8012 69.2699 43.877 69.2446 43.9591C69.2193 44.0096 69.2004 44.0601 69.1814 44.1107C69.0614 44.3317 68.9414 44.5527 68.7772 44.7548C68.7267 44.7864 68.5815 44.9064 68.5625 44.9506C68.4172 45.0517 68.2341 45.2033 68.0636 45.2348C67.792 45.3738 67.4446 45.4117 67.1415 45.4496C67.1415 45.4559 67.1415 45.4685 67.1415 45.4811C66.851 45.4811 66.5605 45.4811 66.2762 45.4811C66.2762 45.4685 66.2762 45.4559 66.2762 45.4496C66.2636 45.4496 66.251 45.4496 66.2384 45.4496C66.2384 45.4559 66.2384 45.4685 66.2384 45.4811C66.2257 45.4811 66.2131 45.4811 66.2068 45.4811L66.2131 45.4938ZM66.5857 44.2685C66.5099 44.237 66.4341 44.2117 66.371 44.1864C66.371 44.1738 66.371 44.1675 66.371 44.1612C66.2257 44.1043 66.1689 43.997 66.0868 43.877C66.0805 43.877 66.0741 43.877 66.0678 43.877C66.0236 43.7696 65.9794 43.6749 65.9415 43.5738C65.872 43.3275 65.8531 43.0686 65.8405 42.816C65.7394 42.2223 65.8152 41.5844 65.8152 40.9844C65.8657 40.6118 65.8531 40.2265 66.0047 39.8792C66.0426 39.8034 66.0868 39.7276 66.131 39.6645C66.2762 39.5002 66.3899 39.4245 66.6047 39.3739C66.7247 39.3739 66.9773 39.336 67.0657 39.4308C67.1289 39.4623 67.192 39.4939 67.2552 39.5318C67.2552 39.5697 67.2931 39.5823 67.3183 39.595C67.3815 39.715 67.4446 39.8287 67.5078 39.955C67.7352 40.7192 67.7036 41.5528 67.7036 42.3423C67.691 42.6391 67.6467 42.9486 67.6215 43.2454C67.5962 43.3401 67.5773 43.4349 67.5583 43.5359C67.5141 43.6433 67.4762 43.8328 67.4004 43.9149C67.3625 43.997 67.2804 44.0664 67.2362 44.1296C67.1478 44.1738 67.0657 44.218 66.9773 44.2622C66.8383 44.2685 66.7057 44.2749 66.5731 44.2812L66.5857 44.2685Z" fill="black"/>
<path fill-rule="evenodd" clip-rule="evenodd" d="M80.0822 45.4938C80.0822 45.4811 80.0822 45.4685 80.0822 45.4622C79.7664 45.4243 79.438 45.3801 79.1538 45.2412C79.078 45.2412 78.9201 45.1212 78.857 45.0896C78.857 45.0769 78.857 45.0706 78.857 45.0643C78.737 45.0643 78.4844 44.7612 78.4212 44.7043C78.2507 44.458 78.0675 44.1738 77.9981 43.8707C77.8907 43.6622 77.8654 43.3528 77.8338 43.1191C77.8275 42.9359 77.8212 42.7465 77.8149 42.5633C77.7328 42.3991 77.8465 42.1212 77.7707 41.9381C77.777 41.6981 77.7833 41.4581 77.796 41.2118C77.8086 41.0476 77.8212 40.8771 77.8338 40.7192C77.8528 40.5676 77.8717 40.416 77.897 40.2708C77.9475 40.0939 77.9981 39.9108 78.0486 39.7339C78.0928 39.6202 78.137 39.5129 78.1875 39.4055C78.2191 39.3866 78.2886 39.2224 78.3075 39.1781C78.4023 39.0518 78.4907 38.9382 78.5917 38.8182C78.6801 38.7424 78.7686 38.6729 78.8633 38.6034C78.8633 38.534 79.1412 38.4455 79.2043 38.3824C79.2422 38.3697 79.2801 38.3571 79.318 38.3508C79.3243 38.3382 79.337 38.3319 79.3496 38.3255C79.7917 38.1803 80.2464 38.1234 80.7201 38.1234C80.9222 38.155 81.2506 38.1171 81.4211 38.2308C81.699 38.2687 81.9643 38.4392 82.2043 38.5845C82.4632 38.8118 82.6779 39.0455 82.8169 39.3739C82.9053 39.5445 82.9748 39.7402 83.0064 39.936C83.0127 39.9487 83.019 39.9676 83.0316 39.9865C83.0569 40.1444 83.0821 40.315 83.1137 40.4792C83.1327 40.7571 83.1516 41.0349 83.1769 41.3128C83.1769 41.4202 83.2085 42.0518 83.1642 42.096C81.9958 42.096 80.8338 42.1023 79.6717 42.1086C79.6275 42.1275 79.6275 42.1465 79.6085 42.1907C79.6085 42.4054 79.5959 42.6328 79.6338 42.8475C79.6338 43.3275 79.7285 43.8643 80.1201 44.1801C80.1896 44.2117 80.2591 44.2433 80.3222 44.2749C80.4485 44.2749 80.5685 44.2749 80.6948 44.2749C80.7517 44.2496 80.8148 44.2307 80.8717 44.2117C81.0801 44.0791 81.2127 43.8833 81.3011 43.6622C81.3453 43.4601 81.4211 43.2391 81.4338 43.0307C81.4464 43.0054 81.459 42.9802 81.4717 42.9612C81.9895 42.9612 82.5074 42.9612 83.0316 42.9612C83.0442 42.9802 83.0569 42.9991 83.0695 43.0244C83.0569 43.1759 83.0442 43.3338 83.0379 43.4917C83 43.6054 83.0064 43.757 82.9495 43.8454C82.8611 44.2496 82.5453 44.8748 82.1537 45.0706C82.1537 45.1212 81.8127 45.2601 81.7432 45.3043C81.598 45.3296 81.4338 45.3801 81.3011 45.4306C81.1748 45.4433 81.0611 45.4559 80.9411 45.4748C80.9411 45.4811 80.9411 45.4938 80.9411 45.5064C80.6569 45.5064 80.3727 45.5064 80.0948 45.5064L80.0822 45.4938ZM79.6464 41.0034C79.6275 40.9907 79.6149 40.9781 79.6022 40.9718C79.5959 40.8834 79.5959 40.8013 79.5959 40.7192C79.6401 40.4034 79.6212 40.0623 79.8106 39.7908C79.817 39.7655 79.8296 39.7402 79.8422 39.715C79.8485 39.7087 79.8612 39.7087 79.8738 39.7087C79.8738 39.6202 80.0443 39.5066 80.1012 39.456C80.1454 39.4308 80.1959 39.4118 80.2464 39.3929C80.4169 39.3676 80.638 39.3424 80.8085 39.3929C80.9096 39.4434 81.0106 39.5066 81.099 39.576C81.3895 39.9929 81.3959 40.4792 81.4211 40.9718C81.4148 40.9718 81.4085 40.9781 81.4085 40.9844C80.8211 40.9844 80.2338 40.9907 79.6464 40.997V41.0034Z" fill="black"/>
<path fill-rule="evenodd" clip-rule="evenodd" d="M86.6757 45.4938C86.6757 45.4812 86.6757 45.4685 86.6757 45.4622C86.4358 45.4369 86.1894 45.3927 85.9495 45.3422C85.8358 45.3043 85.7347 45.2664 85.6274 45.2285C85.3684 45.0959 84.9958 44.8622 84.8884 44.5717C84.6863 44.3001 84.6674 43.8896 84.6295 43.5675C84.6232 43.4033 84.6232 43.2328 84.6232 43.0686C84.6358 43.0496 84.6484 43.0307 84.6674 43.0181C85.1853 43.0117 85.7095 43.0117 86.24 43.0117C86.2463 43.1823 86.2589 43.3591 86.2715 43.5359C86.3221 43.6749 86.3789 43.9401 86.5052 43.997C86.5052 44.1043 86.8968 44.237 86.9789 44.2496C87.1178 44.2496 87.2568 44.2496 87.402 44.2496C87.5284 44.2243 87.6736 44.1738 87.781 44.1043C87.901 44.0033 87.9705 43.8833 88.0462 43.757C88.0652 43.6307 88.0905 43.5044 88.0905 43.3717C88.0715 43.2896 88.0589 43.2138 88.0462 43.1381C88.0273 43.1065 88.0083 43.0749 87.9957 43.0433C87.9578 43.0054 87.9262 42.9675 87.8947 42.9296C87.7936 42.8538 87.6989 42.7781 87.6041 42.7149C87.4084 42.6581 87.2126 42.5444 87.0105 42.4939C86.9663 42.4496 86.8842 42.4433 86.8273 42.4244C86.8273 42.3991 86.6821 42.3675 86.6631 42.3675C86.5368 42.3107 86.3473 42.2728 86.24 42.2033C86.1073 42.1781 85.9684 42.1023 85.8421 42.0581C85.6652 41.9318 85.4 41.856 85.2674 41.6728C85.0905 41.5276 84.8884 41.3002 84.8253 41.0728C84.8126 41.0539 84.8 41.0349 84.7937 41.016C84.7621 40.9213 84.7369 40.8328 84.7116 40.7381C84.6926 40.6118 84.6737 40.4918 84.6547 40.3655C84.6547 40.2644 84.6547 40.176 84.6547 40.0813C84.7179 39.9234 84.68 39.7087 84.7621 39.5445C84.819 39.2476 85.0021 38.9697 85.2168 38.755C85.3432 38.654 85.4631 38.5655 85.5958 38.4708C85.7663 38.395 85.9368 38.3066 86.1137 38.2561C86.3915 38.1613 86.6884 38.1045 86.9915 38.1045C87.3199 38.054 87.6926 38.1171 88.0147 38.1487C88.2862 38.2119 88.5515 38.2876 88.7978 38.4076C88.9115 38.4897 89.0188 38.5655 89.1325 38.654C89.1578 38.7045 89.2273 38.7613 89.2652 38.7992C89.3725 38.9508 89.4988 39.1403 89.543 39.3297C89.682 39.6581 89.663 40.0244 89.663 40.3655C89.1325 40.3718 88.6083 40.3781 88.0778 40.3844C88.0083 40.315 88.0273 40.2265 88.021 40.1318C88.002 40.0371 87.9894 39.955 87.9768 39.8666C87.9262 39.7655 87.882 39.6708 87.8378 39.5697C87.781 39.5192 87.7241 39.475 87.6736 39.4308C87.6231 39.4055 87.5789 39.3866 87.5347 39.3676C87.3452 39.3424 87.1368 39.3487 86.9473 39.3676C86.8084 39.4308 86.6884 39.5002 86.5684 39.5824C86.5242 39.6455 86.48 39.7087 86.4421 39.7718C86.4231 39.8476 86.4042 39.9171 86.3915 39.9992C86.3979 40.075 86.4042 40.1508 86.4105 40.2265C86.4168 40.2708 86.4294 40.315 86.4421 40.3592C86.4673 40.4034 86.4926 40.4476 86.5179 40.4981C86.6379 40.6434 86.7831 40.7192 86.941 40.8076C87.2189 40.9023 87.522 41.0413 87.8062 41.0981C88.0589 41.1865 88.3115 41.2749 88.5704 41.3697C88.6968 41.4328 88.8673 41.4897 88.9683 41.5844C89.0188 41.616 89.0757 41.6476 89.1262 41.6791C89.1578 41.7044 89.1894 41.7297 89.2273 41.7549C89.2273 41.7612 89.2273 41.7676 89.2273 41.7802C89.2336 41.7802 89.2399 41.7802 89.2462 41.7802C89.322 41.8749 89.3978 41.9633 89.4799 42.0581C89.6062 42.0581 89.7388 42.6454 89.7767 42.7275C89.802 42.9738 89.8209 43.2265 89.8083 43.4791C89.7957 43.7696 89.7199 44.0728 89.5936 44.3317C89.4483 44.5338 89.3094 44.7738 89.101 44.9127C89.101 44.9885 88.6589 45.1969 88.5515 45.2348C88.5452 45.2412 88.5389 45.2475 88.5389 45.2538C88.3683 45.298 88.1978 45.3422 88.0336 45.3927C87.882 45.4054 87.7431 45.418 87.5978 45.4369C87.5978 45.4433 87.5978 45.4559 87.5978 45.4685C87.3199 45.4685 87.0421 45.4685 86.7642 45.4685C86.7642 45.4559 86.7642 45.4433 86.7642 45.4369C86.7389 45.4369 86.72 45.4369 86.701 45.4369C86.701 45.4433 86.701 45.4559 86.701 45.4685C86.6884 45.4685 86.6757 45.4685 86.6631 45.4685L86.6757 45.4938Z" fill="black"/>
<path fill-rule="evenodd" clip-rule="evenodd" d="M95.9534 45.4938C95.9471 45.4812 95.9408 45.4685 95.9408 45.4559C95.5997 45.4054 95.1766 45.2475 94.9871 44.9317C94.9808 44.9317 94.9745 44.9317 94.9682 44.9317C94.8734 44.8054 94.7913 44.6664 94.7471 44.5085C94.6334 44.3696 94.5955 44.0159 94.5703 43.8643C94.5703 43.5928 94.5703 43.3212 94.5703 43.0496C94.6019 42.9044 94.6082 42.7023 94.6903 42.5823C94.7471 42.2981 94.9619 41.976 95.2018 41.8181C95.2082 41.8055 95.2145 41.7928 95.2271 41.7802C95.4671 41.6286 95.6755 41.5086 95.9408 41.4265C96.0734 41.376 96.206 41.3191 96.345 41.3002C96.3829 41.2813 96.4208 41.2686 96.4587 41.256C96.7555 41.1992 97.046 41.0918 97.3428 41.0349C97.406 41.0097 97.4755 40.9907 97.5386 40.9718C97.5892 40.9465 97.6397 40.9276 97.6902 40.9086C97.7597 40.8581 97.8355 40.8076 97.9049 40.7571C97.9239 40.7255 97.9428 40.6939 97.9681 40.6623C97.9997 40.5739 98.0376 40.5107 98.0502 40.416C98.0502 40.2897 98.1007 39.9171 97.9997 39.816C97.987 39.7781 97.9744 39.7402 97.9681 39.7087C97.9555 39.7023 97.9491 39.696 97.9428 39.696C97.9428 39.6518 97.8544 39.5634 97.8291 39.5255C97.7913 39.5002 97.7534 39.475 97.7155 39.4497C97.6586 39.4245 97.6018 39.4055 97.5576 39.3866C97.2986 39.3424 96.8439 39.3045 96.6671 39.5571C96.5344 39.6392 96.4902 39.8413 96.4397 39.9739C96.4334 40.1255 96.4271 40.2834 96.4208 40.4413C95.8839 40.4413 95.3471 40.4476 94.804 40.4539C94.7913 40.4476 94.785 40.4413 94.7787 40.4413C94.7787 40.2897 94.7787 40.1318 94.785 39.9866C94.8545 39.475 94.9808 39.1718 95.2839 38.7676C95.3597 38.6982 95.4292 38.6287 95.5113 38.5718C95.6566 38.4708 95.7892 38.3887 95.9534 38.3382C96.0545 38.2876 96.1681 38.2498 96.2755 38.2182C96.3639 38.1929 96.446 38.174 96.5408 38.155C96.6987 38.1424 96.8692 38.1298 97.0334 38.1171C97.2481 38.0477 97.5386 38.1171 97.7723 38.1171C97.8923 38.1298 98.0123 38.1424 98.1386 38.155C98.2397 38.174 98.3344 38.1929 98.4354 38.2182C98.5302 38.2498 98.6439 38.2687 98.7197 38.3255C99.0039 38.395 99.3512 38.6476 99.4902 38.9129C99.6544 39.0771 99.6733 39.4055 99.7554 39.6202C99.7617 39.715 99.7744 39.8034 99.787 39.8981C99.8186 41.4328 99.8186 42.9865 99.8249 44.5149C99.8438 44.7043 99.8628 44.957 99.9638 45.1212C99.9701 45.1717 100.033 45.2727 99.9765 45.3106C99.427 45.3106 98.8775 45.3169 98.3344 45.3233C98.3155 45.3106 98.2965 45.298 98.2776 45.2917C98.246 45.2348 98.2144 45.178 98.1891 45.1275C98.1639 45.0517 98.1449 44.9759 98.126 44.9127C98.107 44.8243 98.0881 44.7422 98.0755 44.6538C98.0502 44.6601 98.0249 44.6664 98.006 44.6791C97.8355 44.9317 97.627 45.1969 97.3302 45.3043C97.1281 45.4054 96.8565 45.4369 96.6292 45.4622C96.6292 45.4685 96.6292 45.4748 96.6292 45.4875C96.4018 45.4875 96.1745 45.4875 95.9471 45.4875L95.9534 45.4938ZM96.7934 44.2685C96.7113 44.218 96.5976 44.1928 96.5408 44.1043C96.3008 43.8643 96.3008 43.4791 96.3008 43.1633C96.3387 42.7907 96.4839 42.5254 96.8123 42.3423C96.8755 42.317 96.9386 42.2918 96.9955 42.2728C97.3239 42.1402 97.6965 42.1086 97.9934 41.8876C98.006 41.8939 98.0249 41.9002 98.0439 41.9065C98.0439 42.4054 98.0439 42.917 98.0439 43.4223C98.0123 43.6054 97.9302 43.757 97.8228 43.9022C97.7344 43.978 97.6523 44.0538 97.5639 44.1233C97.4439 44.1612 97.3365 44.2054 97.2228 44.2496C97.0776 44.2559 96.9386 44.2622 96.7934 44.2685Z" fill="black"/>
<path fill-rule="evenodd" clip-rule="evenodd" d="M47.0136 45.3359C46.9693 45.3233 46.9251 45.3106 46.8872 45.3043C46.8872 42.2097 46.8872 39.115 46.8872 36.0266C46.9062 36.0203 46.9251 36.014 46.9504 36.0077C47.5188 36.0077 48.0935 36.0077 48.6682 36.0077C48.6998 36.014 48.7314 36.0203 48.763 36.0266C48.763 39.1087 48.7693 42.1907 48.7756 45.2791C48.7567 45.2917 48.744 45.3106 48.7314 45.3296C48.1567 45.3296 47.582 45.3359 47.0136 45.3422V45.3359Z" fill="black"/>
<path fill-rule="evenodd" clip-rule="evenodd" d="M50.3546 45.3359C50.304 45.3296 50.2598 45.3169 50.2282 45.2854C50.2219 42.9802 50.2219 40.6813 50.2219 38.3761C50.2282 38.3508 50.2346 38.3255 50.2409 38.3066C50.803 38.3003 51.3651 38.3003 51.9271 38.3003C51.9335 38.3129 51.9398 38.3255 51.9524 38.3445C51.9524 38.5718 51.9524 38.7992 51.9587 39.0392C51.965 39.0518 51.9714 39.0645 51.984 39.0834C51.9966 39.0329 52.0219 39.0266 52.0535 38.995C52.1356 38.8876 52.2113 38.7866 52.2935 38.6792C52.325 38.6539 52.3566 38.6287 52.3945 38.6034C52.3945 38.4834 52.9061 38.275 52.9882 38.2371C53.2724 38.155 53.5692 38.0982 53.866 38.0982C54.0176 38.1171 54.1818 38.1361 54.3397 38.1613C54.4092 38.1803 54.485 38.1992 54.5544 38.2245C54.6113 38.2497 54.6744 38.275 54.7313 38.3003C54.8576 38.4076 55.0155 38.4834 55.1292 38.6097C55.1607 38.6476 55.1923 38.6855 55.2302 38.7297C55.2871 38.8308 55.3439 38.9318 55.4007 39.0392C55.426 39.1087 55.4513 39.1781 55.4765 39.2413C55.5081 39.4245 55.546 39.6076 55.5586 39.7971C55.5586 41.6223 55.5586 43.4538 55.5586 45.279C55.546 45.2917 55.5334 45.3043 55.5207 45.3233C54.9397 45.3169 54.3587 45.3169 53.7839 45.3169C53.7713 45.3043 53.7587 45.2917 53.7524 45.279C53.746 43.5865 53.746 41.8939 53.746 40.2076C53.7208 40.0939 53.6955 39.9929 53.6703 39.8855C53.645 39.8413 53.6197 39.7971 53.5945 39.7529C53.5818 39.7529 53.5755 39.7529 53.5692 39.7529C53.4366 39.576 53.3292 39.5634 53.1208 39.5066C52.9313 39.5066 52.7671 39.5192 52.584 39.5697C52.5398 39.595 52.4956 39.6202 52.4513 39.6455C52.3882 39.696 52.3313 39.7466 52.2808 39.7971C52.2303 39.8729 52.1861 39.9487 52.1419 40.0308C52.1229 40.075 52.104 40.1255 52.0914 40.176C52.0724 40.2897 52.0598 40.3971 52.0471 40.5171C52.0408 42.0897 52.0408 43.6559 52.0408 45.2348C52.0408 45.3106 51.9461 45.3169 51.8956 45.3233C51.3777 45.3233 50.8661 45.3233 50.3482 45.3296L50.3546 45.3359Z" fill="black"/>
<path fill-rule="evenodd" clip-rule="evenodd" d="M71.0824 45.3359C71.0382 45.3296 71.0066 45.3043 70.9877 45.2664C70.9877 42.9675 70.9877 40.675 70.9877 38.3761C70.9877 38.3382 71.0066 38.3129 71.0256 38.294C71.5687 38.294 72.1182 38.294 72.6677 38.294C72.6803 38.294 72.6929 38.3003 72.7056 38.3066C72.7813 38.5276 72.6171 38.8371 72.7561 39.0455C72.775 39.0455 72.8761 38.8876 72.8887 38.8624C72.9077 38.8624 72.9961 38.7487 73.0087 38.7234C73.0466 38.6982 73.1603 38.5845 73.1792 38.5529C73.3371 38.4518 73.5013 38.3129 73.6908 38.2624C73.975 38.1171 74.335 38.0982 74.6508 38.0982C74.8023 38.1171 74.9476 38.1361 75.0992 38.1613C75.1939 38.1929 75.3013 38.2119 75.3834 38.2687C75.4592 38.2876 75.6802 38.3824 75.7055 38.4582C75.9455 38.5782 76.116 38.9255 76.1981 39.1718C76.2549 39.3802 76.3055 39.6076 76.3244 39.8223C76.3181 41.6476 76.3181 43.4791 76.3181 45.3043C76.2928 45.3106 76.2739 45.3169 76.2549 45.3296C75.6928 45.3296 75.1308 45.3296 74.5687 45.3296C74.5497 45.3169 74.5371 45.3043 74.5245 45.298C74.5118 43.6244 74.5055 41.9444 74.4992 40.2771C74.4866 40.1823 74.4739 40.0939 74.4613 39.9992C74.436 39.9423 74.4171 39.8855 74.3981 39.835C74.3224 39.7213 74.2339 39.6518 74.1203 39.5823C74.0634 39.5634 74.0066 39.5445 73.9624 39.5255C73.8171 39.5255 73.6782 39.5255 73.5329 39.5255C73.4571 39.5445 73.3813 39.5697 73.3182 39.595C73.2866 39.6076 73.255 39.6266 73.2234 39.6455C73.0845 39.7655 73.0213 39.816 72.9392 39.9676C72.9329 40.0055 72.914 40.0623 72.8824 40.0939C72.8508 40.2455 72.8192 40.4034 72.794 40.5613C72.7877 42.1465 72.7877 43.7254 72.7877 45.3106C72.775 45.3169 72.7687 45.3233 72.7624 45.3359C72.2003 45.3359 71.6382 45.3359 71.0761 45.3422L71.0824 45.3359Z" fill="black"/>
<path fill-rule="evenodd" clip-rule="evenodd" d="M91.3114 45.3359C91.2988 45.3233 91.2925 45.3106 91.2862 45.3043C91.2798 42.9928 91.2798 40.6813 91.2798 38.3697C91.2862 38.3445 91.2925 38.3192 91.3051 38.3003C91.8861 38.3003 92.4735 38.3003 93.0609 38.3066C93.0672 38.3129 93.0735 38.3255 93.0798 38.3382C93.0798 40.656 93.0798 42.9738 93.0798 45.2917C93.0735 45.298 93.0672 45.3043 93.0609 45.3169C92.4735 45.3233 91.8925 45.3296 91.3114 45.3359Z" fill="black"/>
<path fill-rule="evenodd" clip-rule="evenodd" d="M91.2988 37.574C91.2925 37.5487 91.2862 37.5235 91.2798 37.4982C91.2798 37.0182 91.2798 36.5382 91.2798 36.0645C91.2988 36.0203 91.2988 36.0203 91.343 36.0014C91.8988 36.0014 92.4546 36.0014 93.0103 36.0014C93.0293 36.0077 93.0482 36.014 93.0672 36.0203C93.0672 36.5193 93.0735 37.0245 93.0798 37.5298C93.0735 37.5361 93.0672 37.5487 93.0672 37.5613C92.4735 37.5613 91.8861 37.5677 91.2988 37.574Z" fill="black"/>
<path fill-rule="evenodd" clip-rule="evenodd" d="M58.9627 31.5173C58.7164 31.5173 58.4701 31.4731 58.2238 31.4604C58.1417 31.4352 57.9143 31.4036 57.8638 31.3531C57.8322 31.3468 57.8007 31.3404 57.7691 31.3341C57.4975 31.2141 57.1186 31.0184 56.9544 30.7657C56.847 30.7152 56.8028 30.5573 56.7207 30.4752C56.607 30.2289 56.4996 29.9889 56.4365 29.7236C56.367 29.5784 56.3607 29.3952 56.3291 29.2437C56.3102 29.01 56.2912 28.7763 56.2786 28.5426C56.2723 28.2268 56.266 27.9111 56.266 27.6016C56.2912 27.2227 56.3165 26.85 56.3481 26.4711C56.3796 26.3511 56.3733 26.1869 56.4365 26.0858C56.4554 25.9848 56.4933 25.7511 56.5628 25.6816C56.5944 25.5869 56.626 25.5048 56.6638 25.4164C56.7523 25.2711 56.8344 25.0753 56.967 24.9743C56.9733 24.9553 56.9796 24.9364 56.9859 24.9238C57.0365 24.8985 57.0933 24.8353 57.1249 24.7911C57.2386 24.7027 57.3459 24.6206 57.4596 24.5322C57.5417 24.4817 57.6175 24.4375 57.7059 24.3933C57.788 24.3617 57.8638 24.3301 57.9522 24.2985C58.0849 24.2606 58.2112 24.229 58.3438 24.1975C58.4764 24.1785 58.6091 24.1596 58.748 24.1406C58.9627 24.1406 59.1838 24.1406 59.3985 24.1406C59.5438 24.1596 59.6827 24.1785 59.828 24.2038C59.9859 24.2543 60.188 24.2859 60.3269 24.3806C60.409 24.3806 60.6111 24.5322 60.668 24.5701C60.7501 24.6332 60.8258 24.7027 60.908 24.7659C60.9648 24.8353 61.0216 24.9048 61.0785 24.968C61.1669 25.1195 61.249 25.2774 61.3374 25.4353C61.3627 25.4922 61.3879 25.5553 61.4132 25.6122C61.4321 25.6816 61.4511 25.7511 61.4764 25.8143C61.4953 25.9027 61.5143 25.9848 61.5395 26.0732C61.5585 26.2058 61.5774 26.3322 61.6027 26.4648C61.6216 26.7364 61.6406 27.0079 61.6658 27.2858C61.6595 27.5511 61.6595 27.8163 61.6595 28.0816C60.4722 28.0879 59.2848 28.1005 58.0975 28.1132C58.0975 28.3342 58.0975 28.5616 58.0975 28.7826C58.1164 28.9784 58.1354 29.1805 58.1607 29.3826C58.1796 29.4584 58.1985 29.5279 58.2238 29.6036C58.3122 29.85 58.4385 30.0521 58.6596 30.2099C58.7101 30.2289 58.767 30.2478 58.8175 30.2731C58.9375 30.2731 59.0575 30.2731 59.1838 30.2731C59.2785 30.2289 59.3669 30.1847 59.468 30.1468C59.5059 30.1026 59.5438 30.0647 59.5817 30.0268C59.6701 30.0268 59.8217 29.5405 59.8343 29.471C59.8785 29.3258 59.8974 29.1868 59.9227 29.0352C59.9353 29.01 59.9543 28.9847 59.9732 28.9658C60.4911 28.9658 61.0153 28.9658 61.5458 28.9721C61.5521 28.9847 61.5585 28.9973 61.5648 29.01C61.5648 29.3321 61.4953 29.6605 61.4195 29.9636C61.3627 30.0963 61.3058 30.2289 61.2616 30.3678C61.1795 30.5131 61.0848 30.671 60.9648 30.8036C60.8953 30.8226 60.7311 31.0184 60.668 31.0752C60.5795 31.1257 60.4974 31.1762 60.409 31.2268C60.3585 31.2394 60.2953 31.2583 60.2638 31.2899C60.1753 31.3152 60.0995 31.3404 60.0174 31.372C59.9227 31.391 59.8343 31.4099 59.7396 31.4352C59.6132 31.4478 59.4932 31.4604 59.3669 31.4794C59.2406 31.4794 59.1206 31.4857 58.9943 31.492L58.9627 31.5173ZM58.1417 27.0458C58.1164 27.0332 58.0975 27.0206 58.0785 27.0142C58.0849 26.4521 58.0975 25.8458 58.5964 25.4859C58.767 25.4101 58.8996 25.3911 59.0954 25.3911C59.2785 25.4227 59.3796 25.4669 59.5311 25.568C59.569 25.6122 59.6132 25.6564 59.6575 25.7069C59.6764 25.7448 59.6953 25.7827 59.7206 25.8206C59.7396 25.8711 59.7585 25.928 59.7838 25.9785C59.8027 26.0606 59.8217 26.1427 59.8469 26.2311C59.8659 26.4837 59.8911 26.7364 59.9164 26.9953C59.9101 27.0016 59.9038 27.0079 59.9038 27.0206C59.3164 27.0269 58.7291 27.0332 58.148 27.0395L58.1417 27.0458Z" fill="black"/>
<path fill-rule="evenodd" clip-rule="evenodd" d="M69.0425 31.511C68.9351 31.492 68.8341 31.4731 68.733 31.4604C68.5562 31.4099 68.1835 31.2647 68.0951 31.0878C67.9183 30.9489 67.8299 30.7278 67.7225 30.551C67.7036 30.5005 67.6846 30.4563 67.672 30.412C67.6467 30.3173 67.6215 30.2352 67.5962 30.1468C67.5709 30.0015 67.552 29.85 67.533 29.7047C67.533 29.3952 67.5204 29.01 67.6404 28.7258C67.6909 28.4163 67.912 27.9932 68.1835 27.8605C68.1835 27.8479 68.1835 27.8353 68.1835 27.829C68.3604 27.7405 68.5435 27.57 68.7456 27.5321C68.9983 27.4058 69.3014 27.3237 69.5793 27.2669C69.6614 27.229 69.7814 27.229 69.8572 27.1784C70.0656 27.1216 70.2803 27.0648 70.4888 27.0206C70.5393 26.9953 70.5898 26.9763 70.6403 26.9574C70.7414 26.8879 70.8361 26.8185 70.9245 26.7364C70.9435 26.6985 70.9624 26.6606 70.9877 26.6227C71.0066 26.5343 71.0256 26.4585 71.0508 26.3764C71.0508 26.2816 71.0508 26.1932 71.0508 26.0985C71.0256 26.0101 71.0066 25.928 70.9877 25.8395C70.874 25.6501 70.7793 25.4985 70.5456 25.429C70.3056 25.4101 69.914 25.3343 69.7182 25.5364C69.5098 25.6059 69.4404 25.9785 69.3961 26.149C69.3898 26.2627 69.3835 26.37 69.3772 26.49C68.8404 26.49 68.3099 26.49 67.773 26.49C67.7667 26.3511 67.7667 26.2185 67.7667 26.0858C67.7857 25.7764 67.8551 25.4669 67.9941 25.2017C68.0193 25.1574 68.0446 25.1195 68.0762 25.0817C68.2783 24.6396 68.7772 24.4185 69.2004 24.2733C69.2888 24.248 69.3772 24.229 69.4719 24.2101C69.6235 24.1848 69.7814 24.1659 69.933 24.1469C70.4509 24.1469 70.9751 24.1406 71.4866 24.2859C71.6003 24.3238 71.7077 24.368 71.8277 24.4122C72.0108 24.5006 72.1624 24.6143 72.314 24.7406C72.3834 24.8353 72.4529 24.9238 72.5224 25.0248C72.5476 25.1132 72.5982 25.2395 72.6487 25.3153C72.6676 25.3974 72.6866 25.4732 72.7119 25.5616C72.7308 25.688 72.7497 25.8143 72.775 25.9469C72.7813 27.4626 72.7876 28.9784 72.794 30.5005C72.8129 30.772 72.8697 31.0373 72.9771 31.2836C72.9708 31.3089 72.9645 31.3341 72.9645 31.3657C72.415 31.3657 71.8656 31.3657 71.3161 31.372C71.215 31.3404 71.1772 31.1762 71.1393 31.0815C71.1203 30.9489 71.0824 30.8036 71.0319 30.6773C71.0256 30.671 71.0193 30.671 71.0129 30.671C70.9245 30.8415 70.754 31.0626 70.5961 31.1699C70.5961 31.2268 70.2867 31.3341 70.2424 31.3783C70.1351 31.4036 70.034 31.4289 69.933 31.4604C69.8382 31.4668 69.6867 31.4541 69.6109 31.5047C69.4151 31.5047 69.213 31.5047 69.0235 31.511H69.0425ZM69.8888 30.311C69.7372 30.311 69.6046 30.2036 69.4972 30.1152C69.4593 30.0647 69.4277 30.0142 69.3961 29.9636C69.3709 29.9068 69.3519 29.85 69.333 29.7994C69.3077 29.6794 69.2888 29.5658 69.2698 29.4458C69.2698 29.1868 69.3014 28.9658 69.4151 28.7258C69.4277 28.6942 69.4467 28.6689 69.4656 28.6437C69.5288 28.5805 69.5919 28.5174 69.6488 28.4605C69.9014 28.3089 70.154 28.2268 70.4445 28.17C70.5077 28.1447 70.5709 28.1258 70.6277 28.1068C70.7224 28.0563 70.874 27.9995 70.9498 27.93C70.9751 27.9237 71.0003 27.9237 71.0256 27.9237C71.0256 28.4037 71.0319 28.8963 71.0382 29.3826C71.0129 29.471 70.994 29.5531 70.9751 29.6479C70.8993 29.7868 70.8172 29.9131 70.7035 30.0331C70.5961 30.0963 70.4951 30.1657 70.3877 30.2289C70.2172 30.2731 70.053 30.3047 69.8761 30.311H69.8888Z" fill="black"/>
<path fill-rule="evenodd" clip-rule="evenodd" d="M46.9378 31.3783C46.9188 31.372 46.8999 31.3657 46.8873 31.3594C46.8809 28.2647 46.8746 25.1638 46.8746 22.0754C46.8936 22.0565 46.9125 22.0438 46.9315 22.0312C47.8409 22.0312 48.7567 22.0312 49.6725 22.0375C49.6914 22.1007 49.7104 22.1701 49.7356 22.2333C49.7672 22.4165 49.7988 22.6059 49.8367 22.7891C49.843 22.808 49.8493 22.827 49.8619 22.8522C49.9125 23.1806 49.9819 23.5343 50.064 23.8564C50.0703 23.9764 50.1019 24.1027 50.1398 24.2164C50.1461 24.3175 50.1651 24.4185 50.203 24.5132C50.2219 24.6964 50.2788 24.8859 50.304 25.069C50.3356 25.1764 50.3356 25.3469 50.3924 25.4353C50.424 25.6248 50.4556 25.8206 50.4935 26.0101C50.5566 26.1364 50.5503 26.3195 50.6009 26.4585C50.6261 26.6606 50.6766 26.8753 50.7272 27.0711C50.7903 27.5574 50.9356 28.05 51.0177 28.53C51.0177 28.5363 51.024 28.5426 51.0303 28.5489C51.0872 28.4037 51.1314 28.2521 51.1503 28.0942C51.1756 27.9742 51.2072 27.8605 51.2387 27.7405C51.2703 27.5574 51.3019 27.3679 51.3398 27.1848C51.384 27.0395 51.3903 26.8753 51.4472 26.7364C51.504 26.2879 51.6556 25.8332 51.7124 25.3848C51.744 25.2332 51.7819 25.0753 51.8198 24.9238C51.9145 24.4248 52.0408 23.9006 52.1166 23.408C52.1229 23.3827 52.1292 23.3638 52.1419 23.3449C52.1734 23.1175 52.224 22.8838 52.2871 22.6565C52.3124 22.4544 52.325 22.208 52.445 22.0375C53.3545 22.0375 54.2639 22.0375 55.1734 22.0438C55.1797 22.0691 55.1923 22.0944 55.205 22.1196C55.1986 25.1953 55.1986 28.2647 55.1986 31.3404C55.186 31.3531 55.1797 31.3657 55.1734 31.3783C54.605 31.372 54.0366 31.372 53.4745 31.372C53.4618 28.9595 53.4492 26.5469 53.4429 24.1469C53.4366 24.128 53.4303 24.109 53.4239 24.0964C53.2913 24.488 53.2661 24.9238 53.1397 25.3216C53.064 25.7637 52.925 26.2122 52.8555 26.6669C52.7798 26.8185 52.7545 27.0648 52.7292 27.2353C52.6534 27.3869 52.6219 27.6079 52.6029 27.7721C52.5082 28.0879 52.4577 28.4289 52.3755 28.7447C52.2492 29.3005 52.1292 29.8563 52.0092 30.412C51.9713 30.551 51.9398 30.6836 51.9082 30.8226C51.8892 30.9615 51.845 31.271 51.7566 31.3783C51.2893 31.3783 50.8156 31.3783 50.3545 31.3783C50.3356 31.372 50.323 31.3657 50.3103 31.3657C50.2661 31.2331 50.2282 31.0941 50.2156 30.9552C50.1019 30.5573 50.0009 30.1215 49.9377 29.711C49.8935 29.6163 49.8935 29.49 49.8493 29.3889C49.7925 29.1237 49.7356 28.8647 49.6914 28.6058C49.6409 28.5047 49.6598 28.3658 49.603 28.2774C49.5904 28.1953 49.584 28.0563 49.5398 27.9868C49.4135 27.3111 49.224 26.6479 49.0977 25.9722C49.0093 25.7953 49.0346 25.5427 48.9525 25.3722C48.8956 25.0122 48.7883 24.6522 48.7314 24.2985C48.7125 24.2669 48.6999 24.2354 48.6872 24.2038C48.6683 24.1406 48.6556 24.0838 48.643 24.0333C48.6367 24.0585 48.6304 24.0838 48.6241 24.1154C48.6177 26.5343 48.6114 28.9531 48.6051 31.372C48.0557 31.3783 47.5062 31.3847 46.9567 31.391L46.9378 31.3783Z" fill="black"/>
<path fill-rule="evenodd" clip-rule="evenodd" d="M62.7837 31.3783C62.7711 31.3594 62.7584 31.3468 62.7521 31.3341C62.7521 29.01 62.7521 26.6858 62.7521 24.3617C62.7584 24.3554 62.7647 24.349 62.7711 24.3427C63.3268 24.3427 63.8889 24.3427 64.451 24.3427C64.4573 24.3427 64.4636 24.349 64.4763 24.3554C64.4763 24.608 64.4763 24.8606 64.4826 25.1195C64.4952 25.1448 64.5079 25.1701 64.5268 25.1953C64.6721 24.949 64.8426 24.7406 65.051 24.5385C65.1331 24.4754 65.2089 24.4185 65.2973 24.368C65.3352 24.3427 65.3794 24.3175 65.4236 24.2922C65.4741 24.2669 65.531 24.2417 65.5815 24.2227C65.8278 24.1785 66.1878 24.0775 66.4215 24.1975C66.4215 24.7469 66.4215 25.3027 66.4278 25.8585C66.4152 25.8711 66.4025 25.8837 66.3962 25.9027C66.1689 25.8964 65.9415 25.8901 65.7078 25.8901C65.5941 25.909 65.4868 25.9343 65.3794 25.9595C65.2215 26.0416 65.0257 26.1048 64.9121 26.2437C64.8615 26.2879 64.811 26.3385 64.7668 26.389C64.7163 26.4711 64.6721 26.5469 64.6278 26.629C64.6026 26.6985 64.5836 26.7742 64.5647 26.8437C64.5584 28.3342 64.5521 29.8247 64.5457 31.3152C64.5394 31.3278 64.5331 31.3468 64.5268 31.3657C63.9394 31.3657 63.3521 31.372 62.7711 31.3783H62.7837Z" fill="black"/>
<path fill-rule="evenodd" clip-rule="evenodd" d="M74.1771 31.3783C74.1518 31.3531 74.1266 31.3341 74.1013 31.3152C74.1013 28.2395 74.1013 25.1764 74.1013 22.107C74.1139 22.0565 74.1139 22.0438 74.1582 22.0249C74.7266 22.0249 75.3013 22.0249 75.876 22.0249C75.895 22.0502 75.9139 22.0754 75.9329 22.107C75.9265 23.048 75.9265 23.9891 75.9265 24.9301C75.9518 24.9553 75.9518 24.9617 76.0023 24.9617C76.1981 24.6017 76.577 24.3301 76.9749 24.2417C77.0444 24.1722 77.2591 24.1722 77.3602 24.1533C77.537 24.1469 77.7202 24.1469 77.9033 24.1469C78.0296 24.1659 78.1496 24.1848 78.2823 24.2101C78.5159 24.2859 78.7307 24.3806 78.9265 24.5385C78.9265 24.5448 78.9265 24.5511 78.9265 24.5575C78.9454 24.5701 78.9644 24.5827 78.9896 24.6017C78.9896 24.608 78.9896 24.6143 78.9896 24.6206C79.1222 24.709 79.2233 24.9175 79.2801 25.0564C79.3243 25.1006 79.3307 25.2017 79.3622 25.2585C79.3812 25.3532 79.4001 25.448 79.4254 25.549C79.4317 25.6564 79.4443 25.7574 79.457 25.8648C79.4507 27.69 79.4507 29.5152 79.4507 31.3341C79.4443 31.3404 79.438 31.3468 79.4317 31.3594C78.838 31.3531 78.2507 31.3531 77.6633 31.3531C77.6507 29.6289 77.6381 27.9047 77.6318 26.1806C77.5939 26.0606 77.5686 25.9343 77.5054 25.8206C77.2907 25.5427 76.9749 25.5238 76.6402 25.5616C76.4886 25.6311 76.3055 25.669 76.2044 25.808C76.1476 25.808 76.0528 26.0353 76.0276 26.0985C75.9897 26.269 75.9518 26.4458 75.9329 26.6227C75.9329 28.1637 75.9329 29.7047 75.9392 31.2394C75.9265 31.2773 75.9139 31.3152 75.9013 31.3531C75.3266 31.3594 74.7518 31.3657 74.1834 31.372L74.1771 31.3783Z" fill="black"/>
<path fill-rule="evenodd" clip-rule="evenodd" d="M79.6464 18.7344C79.5454 18.6839 79.4064 18.7344 79.3054 18.6966C78.9201 18.665 78.5538 18.5639 78.2065 18.3934C78.1623 18.3681 78.1244 18.3492 78.0865 18.3302C78.0865 18.3239 78.0865 18.3176 78.0865 18.3113C77.7833 18.1534 77.6065 17.8692 77.4549 17.5724C77.4233 17.4587 77.3918 17.3513 77.3665 17.2376C77.3539 17.0987 77.3412 16.9661 77.3349 16.8334C77.897 16.8271 78.4654 16.8271 79.0338 16.8271C79.0843 16.8587 79.1033 17.0292 79.1222 17.0924C79.1412 17.1303 79.1664 17.1745 79.1917 17.2187C79.217 17.244 79.2422 17.2692 79.2675 17.3008C79.337 17.345 79.4064 17.3955 79.4759 17.4461C79.5138 17.465 79.5517 17.4839 79.5959 17.5092C79.8359 17.5534 80.1012 17.5661 80.3348 17.4966C80.4927 17.4271 80.6759 17.3197 80.7327 17.1429C80.7832 17.0924 80.8275 16.9408 80.859 16.865C80.9664 16.4229 80.9222 15.9429 80.9222 15.4945C80.9032 15.4882 80.8843 15.4819 80.8717 15.4756C80.8211 15.5829 80.7011 15.6714 80.6254 15.7724C80.5496 15.8293 80.4801 15.8861 80.4043 15.9429C80.3664 15.9682 80.3285 15.9935 80.2969 16.025C80.2022 16.0692 80.1138 16.1198 80.0191 16.1703C79.9559 16.1892 79.8991 16.2082 79.8485 16.2335C79.7285 16.2524 79.6212 16.2713 79.5075 16.2966C79.4254 16.2966 79.3496 16.2966 79.2675 16.2966C79.1286 16.2713 78.9959 16.2524 78.857 16.2335C78.7686 16.2019 78.6865 16.1766 78.598 16.1514C78.3833 15.9808 78.0865 15.9177 77.9286 15.665C77.9159 15.665 77.9096 15.665 77.9033 15.665C77.9033 15.6145 77.7265 15.3998 77.7202 15.3872C77.6507 15.2419 77.5812 15.0903 77.5244 14.9451C77.4107 14.5724 77.3349 14.1998 77.3096 13.8146C77.2907 13.7072 77.2781 13.6125 77.2654 13.5114C77.2591 13.0946 77.2528 12.6841 77.2528 12.2672C77.2654 11.9578 77.316 11.6483 77.3286 11.3452C77.3728 11.1431 77.3918 10.8462 77.4928 10.6631C77.5054 10.6062 77.5181 10.5241 77.556 10.4925C77.6065 10.3662 77.6633 10.2462 77.7138 10.1199C77.8023 9.98729 77.8907 9.8673 77.9854 9.74098C78.0423 9.74098 78.137 9.5452 78.2128 9.5452C78.2886 9.39362 78.598 9.31152 78.7307 9.24836C78.838 9.2231 78.9391 9.19784 79.0464 9.17258C79.2928 9.17258 79.5517 9.15994 79.798 9.18521C79.9306 9.23573 80.0885 9.261 80.2022 9.33678C80.379 9.41257 80.5685 9.56415 80.6696 9.72835C80.7706 9.77888 80.8085 9.96835 80.8843 10.0504C80.8906 10.0378 80.9032 10.0252 80.9159 10.0126C80.9159 9.81677 80.9159 9.61467 80.9222 9.4252C80.9411 9.34941 80.9538 9.35573 81.0043 9.32415C81.5095 9.32415 82.0211 9.32415 82.5327 9.32415C82.5643 9.32415 82.5958 9.33047 82.6337 9.33678C82.64 9.34941 82.6464 9.36205 82.659 9.37468C82.6527 11.7304 82.6527 14.0861 82.6527 16.4419C82.6274 16.5871 82.6085 16.7387 82.5895 16.884C82.5327 17.0419 82.4822 17.2124 82.4379 17.3766C82.3685 17.5029 82.299 17.6229 82.2422 17.7492C82.179 17.8187 82.1222 17.8881 82.0716 17.9576C81.9832 18.0145 81.8759 18.1345 81.8064 18.2166C81.579 18.3492 81.3011 18.526 81.0359 18.5639C80.9411 18.5955 80.859 18.6208 80.758 18.6271C80.6001 18.7092 80.3601 18.6587 80.1959 18.7155C80.0191 18.7218 79.8359 18.7281 79.6591 18.7408L79.6464 18.7344ZM79.8106 14.8819C79.6843 14.844 79.5517 14.7998 79.4633 14.7051C79.3433 14.6482 79.2422 14.3956 79.1917 14.2882C79.1664 14.1872 79.1412 14.0988 79.1159 14.004C79.0907 13.8398 79.0717 13.6693 79.0528 13.5114C79.0528 13.0883 79.0528 12.6778 79.0528 12.2609C79.0717 12.122 79.0464 11.9515 79.097 11.8251C79.1159 11.4652 79.1728 11.0925 79.3749 10.7894C79.4191 10.7452 79.4633 10.701 79.5075 10.6631C79.558 10.6315 79.6149 10.6062 79.6654 10.581C79.8864 10.5431 80.0569 10.5178 80.278 10.581C80.3475 10.6252 80.4233 10.6694 80.4927 10.7199C80.5433 10.7831 80.5938 10.8462 80.638 10.9031C80.6569 10.9473 80.6759 10.9915 80.7011 11.042C80.7201 11.1052 80.739 11.1683 80.7643 11.2252C80.7832 11.3136 80.8022 11.3957 80.8275 11.4841C80.8527 11.743 80.8969 12.002 80.9096 12.2609C80.9096 12.6083 80.9096 12.9556 80.9096 13.303C80.878 13.524 80.8527 13.7451 80.8275 13.9788C80.8085 14.0104 80.7959 14.0419 80.7832 14.0798C80.7706 14.1746 80.7264 14.2693 80.7011 14.3577C80.6254 14.4651 80.5496 14.5661 80.4801 14.6735C80.4169 14.7177 80.3601 14.7619 80.3096 14.8061C80.2338 14.8251 80.158 14.844 80.0948 14.8693C79.9938 14.8693 79.9054 14.8756 79.8106 14.8819Z" fill="black"/>
<path fill-rule="evenodd" clip-rule="evenodd" d="M55.5523 16.4924C54.9207 16.4924 54.3586 16.0314 54.1818 15.4377C54.0807 15.2419 54.0681 14.983 54.0302 14.7619C54.0239 14.5977 54.0239 14.4272 54.0239 14.2693C54.0492 14.0356 54.0681 13.7198 54.1818 13.5114C54.327 13.082 54.7186 12.703 55.1481 12.5578C55.2491 12.5072 55.3502 12.4504 55.4702 12.4314C55.8428 12.2799 56.2659 12.1978 56.6575 12.0967C56.6765 12.0841 56.7017 12.0715 56.727 12.0651C56.8912 12.0272 57.068 11.9704 57.2133 11.9009C57.3207 11.8251 57.4217 11.7367 57.4722 11.6104C57.4912 11.5346 57.5101 11.4652 57.5354 11.3894C57.5354 11.2946 57.5354 11.2062 57.5354 11.1115C57.5101 11.0167 57.4912 10.9283 57.4722 10.8336C57.4343 10.7704 57.3964 10.7073 57.3585 10.6504C57.2196 10.5115 57.1375 10.4673 56.948 10.4041C56.8091 10.3978 56.6765 10.3978 56.5438 10.3978C56.348 10.4546 56.1144 10.5052 56.0386 10.7136C56.0323 10.7136 56.026 10.7136 56.0196 10.7136C55.9881 10.7641 55.9628 10.821 55.9375 10.8715C55.9123 10.9536 55.8933 11.0294 55.8744 11.1115C55.8617 11.2378 55.8554 11.3578 55.8491 11.4841C55.3249 11.4841 54.807 11.4841 54.2828 11.4841C54.1881 11.4399 54.2576 10.9283 54.2639 10.802C54.2828 10.7136 54.3018 10.6315 54.327 10.5431C54.3776 10.4168 54.4281 10.3031 54.4723 10.1831C54.5544 10.0568 54.6365 9.93677 54.7249 9.81677C54.7628 9.77256 54.807 9.72835 54.8512 9.69046C54.9649 9.61467 55.0723 9.5073 55.2112 9.46309C55.3312 9.3431 55.6533 9.27994 55.8112 9.23573C55.9186 9.21047 56.0196 9.19152 56.127 9.17258C56.7712 9.13468 57.4533 9.1031 58.0722 9.31152C58.1733 9.34941 58.3312 9.39362 58.4069 9.46309C58.5143 9.49467 58.5901 9.58941 58.6848 9.62099C58.6848 9.6273 58.6848 9.63362 58.6848 9.63993C58.7669 9.69677 58.8427 9.78519 58.8932 9.86098C59.0132 9.98098 59.0764 10.1831 59.1396 10.3347C59.1396 10.4104 59.1648 10.4799 59.1901 10.5431C59.209 10.682 59.228 10.8146 59.2532 10.9536C59.2596 12.4693 59.2659 13.9851 59.2722 15.5008C59.2722 15.7661 59.3796 16.0629 59.468 16.3029C59.4553 16.3156 59.449 16.3282 59.4427 16.3471C58.8806 16.3471 58.3185 16.3471 57.7564 16.3535C57.668 16.265 57.6554 16.1261 57.6049 16.025C57.5985 15.9682 57.5543 15.6714 57.4975 15.6461C57.4407 15.7029 57.428 15.804 57.3585 15.8356C57.2133 16.0882 56.9165 16.2903 56.6449 16.3787C56.4933 16.4103 56.3417 16.4419 56.1965 16.4734C55.9754 16.4734 55.7544 16.4798 55.5333 16.4861L55.5523 16.4924ZM56.3859 15.2987C56.247 15.2672 56.1396 15.2356 56.026 15.1535C55.7354 14.8061 55.7165 14.3261 55.8239 13.8967C55.8681 13.8019 55.9123 13.7198 55.9565 13.6314C56.007 13.5809 56.0575 13.5304 56.1081 13.4862C56.2091 13.4293 56.2786 13.3535 56.3986 13.3283C56.5438 13.2588 56.7017 13.2083 56.8596 13.183C56.8722 13.1704 56.8849 13.1641 56.9038 13.1577C57.0112 13.1388 57.2954 13.0567 57.3522 12.9746C57.3901 12.9493 57.428 12.9304 57.4722 12.9114C57.4912 12.9051 57.5101 12.9051 57.5291 12.9051C57.5291 13.3788 57.5291 13.8651 57.5354 14.3451C57.5101 14.484 57.4785 14.6419 57.4091 14.7682C57.3396 14.8503 57.2764 14.9261 57.2196 15.0082C57.1312 15.0714 57.0491 15.1345 56.9607 15.1914C56.9038 15.2103 56.847 15.2293 56.7965 15.2545C56.6575 15.2672 56.5249 15.2861 56.3923 15.3051L56.3859 15.2987Z" fill="black"/>
<path fill-rule="evenodd" clip-rule="evenodd" d="M65.411 16.4924C65.2026 16.4924 64.95 16.4166 64.7605 16.3408C64.7037 16.3029 64.6468 16.265 64.5963 16.2335C64.5142 16.1703 64.4131 16.1071 64.3689 16.025C64.211 15.8356 64.0974 15.6082 64.0026 15.3808C63.9774 15.3051 63.9584 15.2293 63.9395 15.1598C63.9142 15.0209 63.8953 14.8882 63.8763 14.7556C63.8763 14.2251 63.8826 13.6377 64.1984 13.1767C64.1984 13.1514 64.2174 13.1388 64.2363 13.1325C64.331 12.9493 64.571 12.7409 64.7668 12.6714C64.7668 12.6651 64.7668 12.6588 64.7668 12.6525C64.8994 12.602 65.0258 12.5262 65.1647 12.4946C65.1773 12.482 65.19 12.4693 65.2089 12.463C65.7205 12.3178 66.2447 12.1283 66.7626 12.0272C66.8636 11.983 66.9583 11.9388 67.0594 11.9009C67.1162 11.8504 67.1731 11.8062 67.2236 11.762C67.2615 11.6925 67.2994 11.623 67.3436 11.5662C67.3562 11.5094 67.3689 11.4525 67.3878 11.402C67.3878 11.3073 67.3878 11.2252 67.3941 11.1367C67.3689 11.0231 67.3436 10.922 67.3246 10.8146C67.2994 10.7641 67.2741 10.7199 67.2552 10.6757C67.2489 10.6757 67.2425 10.6757 67.2362 10.6757C67.1415 10.5178 66.9836 10.4483 66.8068 10.3915C66.6489 10.3915 66.491 10.3915 66.3394 10.3915C66.1626 10.442 66.0615 10.5052 65.9289 10.6315C65.8847 10.6946 65.8468 10.7578 65.8089 10.821C65.7836 10.8904 65.7647 10.9599 65.7457 11.0231C65.7394 11.1052 65.7394 11.4209 65.6889 11.4652C65.1647 11.4588 64.6468 11.4588 64.1226 11.4588C64.1163 11.4525 64.11 11.4462 64.1037 11.4399C64.1037 11.2188 64.091 10.9852 64.1289 10.7578C64.1731 10.5557 64.2616 10.3662 64.3184 10.1831C64.3374 10.1389 64.3626 10.0947 64.3879 10.0568C64.3942 10.0568 64.4005 10.0568 64.4131 10.0568C64.4131 10.0126 64.4384 9.96835 64.4763 9.9494C64.5331 9.87361 64.59 9.80414 64.6405 9.72835C64.8489 9.57046 65.0826 9.38099 65.3415 9.31784C65.4426 9.26731 65.5563 9.261 65.6573 9.21047C65.8026 9.18521 65.9415 9.15995 66.0868 9.13469C66.4973 9.13469 66.9141 9.12837 67.3246 9.14732C67.4699 9.17889 67.6594 9.18521 67.792 9.25468C68.0952 9.30521 68.373 9.48204 68.6067 9.6652C68.6067 9.69678 68.6636 9.72204 68.6762 9.75362C68.8215 9.89888 68.9162 10.101 68.992 10.2904C69.0109 10.3599 69.0299 10.4357 69.0488 10.5052C69.0678 10.6441 69.0867 10.7767 69.112 10.922C69.1183 12.362 69.1246 13.8019 69.1309 15.2482C69.1372 15.3935 69.1435 15.5324 69.1499 15.684C69.1688 15.7724 69.1878 15.8545 69.213 15.9493C69.2509 16.0503 69.2888 16.1514 69.333 16.2587C69.333 16.2777 69.333 16.2966 69.333 16.3219C68.7646 16.3282 68.1962 16.3345 67.6278 16.3408C67.5078 16.2208 67.4762 16.0061 67.451 15.8545C67.4257 15.785 67.4068 15.7156 67.3878 15.6524C67.3815 15.6461 67.3752 15.6398 67.3689 15.6398C67.3057 15.7535 67.2173 15.8735 67.1352 15.9682C67.091 15.9871 66.9773 16.1008 66.971 16.1387C66.8636 16.2019 66.7626 16.265 66.6615 16.3282C66.472 16.385 66.2699 16.4356 66.0742 16.4671C65.8531 16.4671 65.6321 16.4735 65.4173 16.4798L65.411 16.4924ZM66.232 15.2987C66.1752 15.2861 66.1184 15.2735 66.0678 15.2608C65.9036 15.1787 65.7457 15.0524 65.7078 14.8566C65.6005 14.6482 65.6131 14.3956 65.6131 14.1556C65.6257 14.0672 65.6447 13.9851 65.6636 13.8967C65.6826 13.8461 65.7015 13.7956 65.7268 13.7514C65.8215 13.6062 65.8973 13.5051 66.0426 13.4041C66.1878 13.3409 66.3331 13.2777 66.4847 13.2209C66.6299 13.1767 66.7815 13.1388 66.9268 13.1009C67.0215 13.0314 67.2741 12.8925 67.3752 12.8925C67.3752 13.3598 67.3815 13.8398 67.3878 14.3135C67.3625 14.4082 67.3436 14.4967 67.3246 14.5977C67.2804 14.6798 67.2362 14.7556 67.1983 14.844C67.1604 14.8693 67.1352 14.8819 67.1352 14.9324C67.1225 14.9324 67.1162 14.9324 67.1099 14.9324C67.0152 15.0777 66.7941 15.1787 66.6426 15.2419C66.4973 15.2545 66.3647 15.2735 66.2257 15.2924L66.232 15.2987Z" fill="black"/>
<path fill-rule="evenodd" clip-rule="evenodd" d="M46.9252 16.3661C46.9062 16.3534 46.8936 16.3471 46.8809 16.3408C46.8746 13.2398 46.8746 10.1326 46.8746 7.03789C48.1567 7.03789 49.4325 7.03789 50.7209 7.03789C50.7209 7.04421 50.7209 7.05684 50.7209 7.06947C50.8219 7.09473 50.9798 7.0821 51.0493 7.15157C51.2829 7.20841 51.4914 7.33473 51.6998 7.44209C51.6998 7.46104 52.0598 7.74524 52.0724 7.75156C52.085 7.78945 52.0913 7.80208 52.1229 7.81471C52.2113 7.94734 52.2934 8.07366 52.3882 8.2126C52.445 8.33891 52.5145 8.45891 52.5461 8.59154C52.5524 8.61048 52.565 8.62943 52.5777 8.65469C52.6219 8.85679 52.6913 9.07784 52.7166 9.28626C52.7229 9.46941 52.7861 9.84835 52.7355 10.0252C52.7229 10.1894 52.7103 10.3599 52.6976 10.5304C52.6471 10.6883 52.6029 10.8525 52.5587 11.0104C52.5271 11.0925 52.4703 11.2567 52.4134 11.3136C52.325 11.5094 52.1924 11.6736 52.0598 11.8441C51.9587 11.9199 51.864 11.9957 51.7692 12.0778C51.7692 12.0841 51.7692 12.0904 51.7692 12.103C51.6871 12.1536 51.6114 12.2041 51.5293 12.2546C51.2829 12.3809 51.024 12.4883 50.7587 12.5388C50.7335 12.5451 50.7145 12.5514 50.6956 12.5641C50.563 12.583 50.443 12.602 50.3167 12.6272C49.8114 12.6399 49.2998 12.6525 48.7946 12.6651C48.7883 12.6778 48.782 12.6967 48.782 12.7156C48.7693 13.9282 48.763 15.1408 48.7567 16.3534C48.7441 16.3598 48.7314 16.3661 48.7251 16.3724C48.1188 16.3724 47.5188 16.3724 46.9188 16.3787L46.9252 16.3661ZM48.8262 11.2504C48.8072 11.2315 48.7946 11.2125 48.782 11.1999C48.782 10.2904 48.782 9.38099 48.782 8.47154C48.7946 8.45891 48.8072 8.44628 48.8198 8.43365C49.1988 8.43365 49.5967 8.4147 49.9693 8.45259C50.0388 8.47154 50.1146 8.49049 50.184 8.51575C50.2219 8.5347 50.2661 8.55364 50.3103 8.57891C50.3735 8.62943 50.443 8.67996 50.5061 8.73048C50.5503 8.79364 50.6009 8.85679 50.6514 8.91995C50.6766 8.98942 50.7019 9.05889 50.7335 9.12837C50.8661 9.38731 50.8535 9.74098 50.8535 10.0252C50.8282 10.1452 50.8093 10.2652 50.7903 10.3915C50.7651 10.461 50.7398 10.5304 50.7145 10.5999C50.6514 10.6883 50.5882 10.7767 50.5314 10.8715C50.424 10.9662 50.2977 11.0546 50.1714 11.1241C50.0767 11.1494 49.9882 11.1746 49.8998 11.1999C49.5398 11.2125 49.1798 11.2252 48.8325 11.2441L48.8262 11.2504Z" fill="black"/>
<path fill-rule="evenodd" clip-rule="evenodd" d="M60.8385 16.3661C60.8195 16.3534 60.8006 16.3408 60.7816 16.3345C60.7753 13.2335 60.7753 10.1326 60.7753 7.03789C61.3816 7.03789 61.9879 7.03789 62.6005 7.03789C62.5942 10.1326 62.5942 13.2335 62.5942 16.3345C62.5753 16.3408 62.5627 16.3471 62.55 16.3534C61.9753 16.3534 61.4069 16.3598 60.8385 16.3661Z" fill="black"/>
<path fill-rule="evenodd" clip-rule="evenodd" d="M70.6403 16.3661C70.634 16.3535 70.6277 16.3471 70.6214 16.3408C70.6214 14.0167 70.6214 11.6925 70.6214 9.36836C70.6277 9.34941 70.634 9.33678 70.6403 9.32415C71.1898 9.31784 71.7393 9.31784 72.2887 9.31784C72.3014 9.31784 72.314 9.32415 72.3329 9.33047C72.3393 9.3431 72.3456 9.35573 72.3519 9.37468C72.3519 9.46941 72.3266 10.082 72.3898 10.1136C72.4403 10.0252 72.4971 9.9494 72.5477 9.8673C72.7119 9.67151 72.9708 9.41257 73.2298 9.3431C73.375 9.24836 73.5582 9.23573 73.7161 9.17889C74.095 9.14731 74.5181 9.12837 74.8845 9.24205C74.9855 9.28626 75.1244 9.31784 75.2065 9.39362C75.3455 9.43783 75.4529 9.59572 75.5665 9.69046C75.6297 9.78519 75.6929 9.87361 75.7497 9.97466C75.7686 10.0252 75.7876 10.0757 75.8128 10.1262C75.8318 10.1894 75.8507 10.2589 75.876 10.322C75.9013 10.4547 75.9265 10.5873 75.9518 10.7262C75.9518 12.602 75.9518 14.4714 75.9518 16.3535C75.9455 16.3535 75.9392 16.3598 75.9392 16.3661C75.3518 16.3661 74.7645 16.3661 74.1834 16.3661C74.1708 16.3598 74.1645 16.3535 74.1582 16.3535C74.1518 14.6924 74.1455 13.0314 74.1455 11.3767C74.1266 11.2631 74.1076 11.1557 74.095 11.0483C74.0571 10.9283 74.0066 10.8273 73.9371 10.7262C73.6529 10.5178 73.3498 10.5368 73.015 10.5999C72.9582 10.6315 72.9013 10.6631 72.8508 10.6946C72.674 10.7831 72.5729 11.0041 72.5035 11.1809C72.4782 11.3262 72.4529 11.4652 72.434 11.6167C72.4277 13.1956 72.4277 14.7682 72.4277 16.3471C72.415 16.3535 72.4087 16.3598 72.4024 16.3661C71.8151 16.3661 71.2277 16.3724 70.6403 16.3787V16.3661Z" fill="black"/>
<path d="M137.91 11.29H135.75V22H137.91V18.82L138.705 17.605L140.91 22H143.34L140.1 15.88L143.01 11.29H140.67L137.94 15.58H137.91V11.29ZM145.254 17.965C145.254 17.555 145.264 17.175 145.284 16.825C145.304 16.475 145.349 16.175 145.419 15.925C145.499 15.675 145.614 15.48 145.764 15.34C145.914 15.2 146.114 15.13 146.364 15.13C146.784 15.13 147.074 15.35 147.234 15.79C147.394 16.23 147.474 16.955 147.474 17.965C147.474 18.975 147.394 19.7 147.234 20.14C147.074 20.58 146.784 20.8 146.364 20.8C146.114 20.8 145.914 20.73 145.764 20.59C145.614 20.45 145.499 20.255 145.419 20.005C145.349 19.755 145.304 19.455 145.284 19.105C145.264 18.755 145.254 18.375 145.254 17.965ZM143.184 17.965C143.184 18.665 143.234 19.285 143.334 19.825C143.434 20.355 143.604 20.8 143.844 21.16C144.084 21.51 144.409 21.77 144.819 21.94C145.229 22.1 145.744 22.175 146.364 22.165C146.954 22.165 147.449 22.08 147.849 21.91C148.259 21.74 148.589 21.48 148.839 21.13C149.089 20.77 149.269 20.325 149.379 19.795C149.489 19.265 149.544 18.655 149.544 17.965C149.544 17.255 149.494 16.635 149.394 16.105C149.294 15.575 149.124 15.13 148.884 14.77C148.644 14.41 148.319 14.145 147.909 13.975C147.499 13.795 146.984 13.71 146.364 13.72C145.774 13.72 145.274 13.815 144.864 14.005C144.464 14.185 144.139 14.455 143.889 14.815C143.639 15.165 143.459 15.605 143.349 16.135C143.239 16.665 143.184 17.275 143.184 17.965ZM151.111 11.62V13.93H150.061V15.34H151.111V19.96C151.111 20.37 151.136 20.71 151.186 20.98C151.236 21.25 151.326 21.47 151.456 21.64C151.596 21.8 151.791 21.91 152.041 21.97C152.301 22.02 152.631 22.045 153.031 22.045C153.271 22.045 153.496 22.035 153.706 22.015C153.926 22.005 154.151 22 154.381 22V20.56C154.311 20.57 154.236 20.58 154.156 20.59C154.076 20.59 153.996 20.59 153.916 20.59C153.616 20.59 153.416 20.525 153.316 20.395C153.226 20.255 153.181 20.025 153.181 19.705V15.34H154.381V13.93H153.181V11.62H151.111ZM158.864 17.965V19.555C158.864 19.775 158.824 19.965 158.744 20.125C158.664 20.285 158.559 20.415 158.429 20.515C158.309 20.615 158.174 20.69 158.024 20.74C157.874 20.78 157.729 20.8 157.589 20.8C157.309 20.8 157.109 20.69 156.989 20.47C156.869 20.25 156.809 19.985 156.809 19.675C156.809 19.315 156.899 19.03 157.079 18.82C157.259 18.61 157.559 18.46 157.979 18.37C158.109 18.34 158.254 18.295 158.414 18.235C158.574 18.165 158.724 18.075 158.864 17.965ZM155.084 16.405H156.944V16.18C156.944 15.86 157.024 15.605 157.184 15.415C157.344 15.225 157.584 15.13 157.904 15.13C158.254 15.13 158.499 15.22 158.639 15.4C158.789 15.57 158.864 15.81 158.864 16.12C158.864 16.39 158.804 16.595 158.684 16.735C158.564 16.875 158.349 16.985 158.039 17.065L156.869 17.38C156.509 17.48 156.199 17.595 155.939 17.725C155.689 17.855 155.479 18.02 155.309 18.22C155.149 18.41 155.029 18.645 154.949 18.925C154.869 19.195 154.829 19.52 154.829 19.9C154.829 20.17 154.864 20.445 154.934 20.725C155.004 20.995 155.114 21.24 155.264 21.46C155.414 21.68 155.614 21.855 155.864 21.985C156.114 22.105 156.419 22.165 156.779 22.165C157.279 22.165 157.684 22.105 157.994 21.985C158.314 21.855 158.594 21.58 158.834 21.16H158.864C158.894 21.3 158.924 21.445 158.954 21.595C158.994 21.735 159.049 21.87 159.119 22H161.099C160.999 21.76 160.929 21.535 160.889 21.325C160.859 21.115 160.844 20.82 160.844 20.44V16.195C160.844 15.835 160.804 15.505 160.724 15.205C160.654 14.895 160.514 14.63 160.304 14.41C160.094 14.19 159.799 14.02 159.419 13.9C159.039 13.78 158.539 13.72 157.919 13.72C157.529 13.72 157.159 13.765 156.809 13.855C156.469 13.935 156.169 14.075 155.909 14.275C155.659 14.465 155.459 14.72 155.309 15.04C155.159 15.35 155.084 15.74 155.084 16.21V16.405ZM136.007 31.434V45H138.515V34.17H138.553L140.966 45H143.094L145.507 34.17H145.545V45H148.053V31.434H144.006L142.049 41.01H142.011L140.073 31.434H136.007ZM154.707 39.889V41.903C154.707 42.1817 154.657 42.4223 154.555 42.625C154.454 42.8277 154.321 42.9923 154.156 43.119C154.004 43.2457 153.833 43.3407 153.643 43.404C153.453 43.4547 153.27 43.48 153.092 43.48C152.738 43.48 152.484 43.3407 152.332 43.062C152.18 42.7833 152.104 42.4477 152.104 42.055C152.104 41.599 152.218 41.238 152.446 40.972C152.674 40.706 153.054 40.516 153.586 40.402C153.751 40.364 153.935 40.307 154.137 40.231C154.34 40.1423 154.53 40.0283 154.707 39.889ZM149.919 37.913H152.275V37.628C152.275 37.2227 152.377 36.8997 152.579 36.659C152.782 36.4183 153.086 36.298 153.491 36.298C153.935 36.298 154.245 36.412 154.422 36.64C154.612 36.8553 154.707 37.1593 154.707 37.552C154.707 37.894 154.631 38.1537 154.479 38.331C154.327 38.5083 154.055 38.6477 153.662 38.749L152.18 39.148C151.724 39.2747 151.332 39.4203 151.002 39.585C150.686 39.7497 150.42 39.9587 150.204 40.212C150.002 40.4527 149.85 40.7503 149.748 41.105C149.647 41.447 149.596 41.8587 149.596 42.34C149.596 42.682 149.641 43.0303 149.729 43.385C149.818 43.727 149.957 44.0373 150.147 44.316C150.337 44.5947 150.591 44.8163 150.907 44.981C151.224 45.133 151.61 45.209 152.066 45.209C152.7 45.209 153.213 45.133 153.605 44.981C154.011 44.8163 154.365 44.468 154.669 43.936H154.707C154.745 44.1133 154.783 44.297 154.821 44.487C154.872 44.6643 154.942 44.8353 155.03 45H157.538C157.412 44.696 157.323 44.411 157.272 44.145C157.234 43.879 157.215 43.5053 157.215 43.024V37.647C157.215 37.191 157.165 36.773 157.063 36.393C156.975 36.0003 156.797 35.6647 156.531 35.386C156.265 35.1073 155.892 34.892 155.41 34.74C154.929 34.588 154.296 34.512 153.51 34.512C153.016 34.512 152.548 34.569 152.104 34.683C151.674 34.7843 151.294 34.9617 150.964 35.215C150.648 35.4557 150.394 35.7787 150.204 36.184C150.014 36.5767 149.919 37.0707 149.919 37.666V37.913ZM159.181 31.434V45H161.803V31.434H159.181ZM168.419 39.889V41.903C168.419 42.1817 168.369 42.4223 168.267 42.625C168.166 42.8277 168.033 42.9923 167.868 43.119C167.716 43.2457 167.545 43.3407 167.355 43.404C167.165 43.4547 166.982 43.48 166.804 43.48C166.45 43.48 166.196 43.3407 166.044 43.062C165.892 42.7833 165.816 42.4477 165.816 42.055C165.816 41.599 165.93 41.238 166.158 40.972C166.386 40.706 166.766 40.516 167.298 40.402C167.463 40.364 167.647 40.307 167.849 40.231C168.052 40.1423 168.242 40.0283 168.419 39.889ZM163.631 37.913H165.987V37.628C165.987 37.2227 166.089 36.8997 166.291 36.659C166.494 36.4183 166.798 36.298 167.203 36.298C167.647 36.298 167.957 36.412 168.134 36.64C168.324 36.8553 168.419 37.1593 168.419 37.552C168.419 37.894 168.343 38.1537 168.191 38.331C168.039 38.5083 167.767 38.6477 167.374 38.749L165.892 39.148C165.436 39.2747 165.044 39.4203 164.714 39.585C164.398 39.7497 164.132 39.9587 163.916 40.212C163.714 40.4527 163.562 40.7503 163.46 41.105C163.359 41.447 163.308 41.8587 163.308 42.34C163.308 42.682 163.353 43.0303 163.441 43.385C163.53 43.727 163.669 44.0373 163.859 44.316C164.049 44.5947 164.303 44.8163 164.619 44.981C164.936 45.133 165.322 45.209 165.778 45.209C166.412 45.209 166.925 45.133 167.317 44.981C167.723 44.8163 168.077 44.468 168.381 43.936H168.419C168.457 44.1133 168.495 44.297 168.533 44.487C168.584 44.6643 168.654 44.8353 168.742 45H171.25C171.124 44.696 171.035 44.411 170.984 44.145C170.946 43.879 170.927 43.5053 170.927 43.024V37.647C170.927 37.191 170.877 36.773 170.775 36.393C170.687 36.0003 170.509 35.6647 170.243 35.386C169.977 35.1073 169.604 34.892 169.122 34.74C168.641 34.588 168.008 34.512 167.222 34.512C166.728 34.512 166.26 34.569 165.816 34.683C165.386 34.7843 165.006 34.9617 164.676 35.215C164.36 35.4557 164.106 35.7787 163.916 36.184C163.726 36.5767 163.631 37.0707 163.631 37.666V37.913ZM172.798 34.778V45H175.42V38.217C175.42 37.0897 175.882 36.526 176.807 36.526C177.199 36.526 177.484 36.6337 177.662 36.849C177.839 37.0517 177.928 37.419 177.928 37.951V45H180.55V37.419C180.55 36.393 180.322 35.652 179.866 35.196C179.422 34.74 178.783 34.512 177.947 34.512C177.377 34.512 176.87 34.6323 176.427 34.873C175.983 35.101 175.622 35.4683 175.344 35.975H175.306V34.778H172.798ZM184.711 40.212C184.711 39.528 184.723 38.9517 184.749 38.483C184.787 38.0017 184.856 37.6217 184.958 37.343C185.059 37.0517 185.198 36.8427 185.376 36.716C185.553 36.5893 185.787 36.526 186.079 36.526C186.598 36.526 186.953 36.7857 187.143 37.305C187.345 37.8243 187.447 38.7047 187.447 39.946C187.447 40.3767 187.421 40.7757 187.371 41.143C187.333 41.4977 187.257 41.8017 187.143 42.055C187.041 42.3083 186.896 42.511 186.706 42.663C186.528 42.8023 186.3 42.872 186.022 42.872C185.743 42.872 185.515 42.8023 185.338 42.663C185.173 42.511 185.04 42.3147 184.939 42.074C184.85 41.8207 184.787 41.5357 184.749 41.219C184.723 40.9023 184.711 40.5667 184.711 40.212ZM189.955 34.778H187.447V35.918H187.409C187.155 35.386 186.832 35.0187 186.44 34.816C186.047 34.6133 185.667 34.512 185.3 34.512C184.59 34.512 184.02 34.6703 183.59 34.987C183.172 35.3037 182.849 35.7153 182.621 36.222C182.405 36.716 182.26 37.2733 182.184 37.894C182.12 38.5147 182.089 39.1227 182.089 39.718C182.089 41.58 182.348 42.91 182.868 43.708C183.4 44.4933 184.185 44.886 185.224 44.886C185.642 44.886 186.041 44.772 186.421 44.544C186.813 44.316 187.143 44.012 187.409 43.632H187.447V44.981C187.447 45.4877 187.339 45.912 187.124 46.254C186.908 46.596 186.535 46.767 186.003 46.767C185.838 46.767 185.68 46.7417 185.528 46.691C185.388 46.6403 185.255 46.5707 185.129 46.482C184.863 46.292 184.73 46.0323 184.73 45.703H182.222C182.222 46.577 182.519 47.2483 183.115 47.717C183.723 48.1983 184.584 48.439 185.699 48.439C187.231 48.439 188.321 48.1097 188.967 47.451C189.625 46.7923 189.955 45.8043 189.955 44.487V34.778Z" fill="black"/>
<line x1="112.5" y1="9" x2="112.5" y2="45" stroke="black" stroke-opacity="0.05"/>
</svg>
