<svg width="250" height="66" viewBox="0 0 250 66" fill="none" xmlns="http://www.w3.org/2000/svg">
<path d="M148.198 12.72H145.318V27H148.198V22.76L149.258 21.14L152.198 27H155.438L151.118 18.84L154.998 12.72H151.878L148.238 18.44H148.198V12.72ZM157.99 21.62C157.99 21.0733 158.003 20.5667 158.03 20.1C158.056 19.6333 158.116 19.2333 158.21 18.9C158.316 18.5667 158.47 18.3067 158.67 18.12C158.87 17.9333 159.136 17.84 159.47 17.84C160.03 17.84 160.416 18.1333 160.63 18.72C160.843 19.3067 160.95 20.2733 160.95 21.62C160.95 22.9667 160.843 23.9333 160.63 24.52C160.416 25.1067 160.03 25.4 159.47 25.4C159.136 25.4 158.87 25.3067 158.67 25.12C158.47 24.9333 158.316 24.6733 158.21 24.34C158.116 24.0067 158.056 23.6067 158.03 23.14C158.003 22.6733 157.99 22.1667 157.99 21.62ZM155.23 21.62C155.23 22.5533 155.296 23.38 155.43 24.1C155.563 24.8067 155.79 25.4 156.11 25.88C156.43 26.3467 156.863 26.6933 157.41 26.92C157.956 27.1333 158.643 27.2333 159.47 27.22C160.256 27.22 160.916 27.1067 161.45 26.88C161.996 26.6533 162.436 26.3067 162.77 25.84C163.103 25.36 163.343 24.7667 163.49 24.06C163.636 23.3533 163.71 22.54 163.71 21.62C163.71 20.6733 163.643 19.8467 163.51 19.14C163.376 18.4333 163.15 17.84 162.83 17.36C162.51 16.88 162.076 16.5267 161.53 16.3C160.983 16.06 160.296 15.9467 159.47 15.96C158.683 15.96 158.016 16.0867 157.47 16.34C156.936 16.58 156.503 16.94 156.17 17.42C155.836 17.8867 155.596 18.4733 155.45 19.18C155.303 19.8867 155.23 20.7 155.23 21.62ZM165.799 13.16V16.24H164.399V18.12H165.799V24.28C165.799 24.8267 165.832 25.28 165.899 25.64C165.966 26 166.086 26.2933 166.259 26.52C166.446 26.7333 166.706 26.88 167.039 26.96C167.386 27.0267 167.826 27.06 168.359 27.06C168.679 27.06 168.979 27.0467 169.259 27.02C169.552 27.0067 169.852 27 170.159 27V25.08C170.066 25.0933 169.966 25.1067 169.859 25.12C169.752 25.12 169.646 25.12 169.539 25.12C169.139 25.12 168.872 25.0333 168.739 24.86C168.619 24.6733 168.559 24.3667 168.559 23.94V18.12H170.159V16.24H168.559V13.16H165.799ZM176.137 21.62V23.74C176.137 24.0333 176.084 24.2867 175.977 24.5C175.87 24.7133 175.73 24.8867 175.557 25.02C175.397 25.1533 175.217 25.2533 175.017 25.32C174.817 25.3733 174.624 25.4 174.437 25.4C174.064 25.4 173.797 25.2533 173.637 24.96C173.477 24.6667 173.397 24.3133 173.397 23.9C173.397 23.42 173.517 23.04 173.757 22.76C173.997 22.48 174.397 22.28 174.957 22.16C175.13 22.12 175.324 22.06 175.537 21.98C175.75 21.8867 175.95 21.7667 176.137 21.62ZM171.097 19.54H173.577V19.24C173.577 18.8133 173.684 18.4733 173.897 18.22C174.11 17.9667 174.43 17.84 174.857 17.84C175.324 17.84 175.65 17.96 175.837 18.2C176.037 18.4267 176.137 18.7467 176.137 19.16C176.137 19.52 176.057 19.7933 175.897 19.98C175.737 20.1667 175.45 20.3133 175.037 20.42L173.477 20.84C172.997 20.9733 172.584 21.1267 172.237 21.3C171.904 21.4733 171.624 21.6933 171.397 21.96C171.184 22.2133 171.024 22.5267 170.917 22.9C170.81 23.26 170.757 23.6933 170.757 24.2C170.757 24.56 170.804 24.9267 170.897 25.3C170.99 25.66 171.137 25.9867 171.337 26.28C171.537 26.5733 171.804 26.8067 172.137 26.98C172.47 27.14 172.877 27.22 173.357 27.22C174.024 27.22 174.564 27.14 174.977 26.98C175.404 26.8067 175.777 26.44 176.097 25.88H176.137C176.177 26.0667 176.217 26.26 176.257 26.46C176.31 26.6467 176.384 26.8267 176.477 27H179.117C178.984 26.68 178.89 26.38 178.837 26.1C178.797 25.82 178.777 25.4267 178.777 24.92V19.26C178.777 18.78 178.724 18.34 178.617 17.94C178.524 17.5267 178.337 17.1733 178.057 16.88C177.777 16.5867 177.384 16.36 176.877 16.2C176.37 16.04 175.704 15.96 174.877 15.96C174.357 15.96 173.864 16.02 173.397 16.14C172.944 16.2467 172.544 16.4333 172.197 16.7C171.864 16.9533 171.597 17.2933 171.397 17.72C171.197 18.1333 171.097 18.6533 171.097 19.28V19.54ZM145.59 38.864V56H148.758V42.32H148.806L151.854 56H154.542L157.59 42.32H157.638V56H160.806V38.864H155.694L153.222 50.96H153.174L150.726 38.864H145.59ZM169.212 49.544V52.088C169.212 52.44 169.148 52.744 169.02 53C168.892 53.256 168.724 53.464 168.516 53.624C168.324 53.784 168.108 53.904 167.868 53.984C167.628 54.048 167.396 54.08 167.172 54.08C166.724 54.08 166.404 53.904 166.212 53.552C166.02 53.2 165.924 52.776 165.924 52.28C165.924 51.704 166.068 51.248 166.356 50.912C166.644 50.576 167.124 50.336 167.796 50.192C168.004 50.144 168.236 50.072 168.492 49.976C168.748 49.864 168.988 49.72 169.212 49.544ZM163.164 47.048H166.14V46.688C166.14 46.176 166.268 45.768 166.524 45.464C166.78 45.16 167.164 45.008 167.676 45.008C168.236 45.008 168.628 45.152 168.852 45.44C169.092 45.712 169.212 46.096 169.212 46.592C169.212 47.024 169.116 47.352 168.924 47.576C168.732 47.8 168.388 47.976 167.892 48.104L166.02 48.608C165.444 48.768 164.948 48.952 164.532 49.16C164.132 49.368 163.796 49.632 163.524 49.952C163.268 50.256 163.076 50.632 162.948 51.08C162.82 51.512 162.756 52.032 162.756 52.64C162.756 53.072 162.812 53.512 162.924 53.96C163.036 54.392 163.212 54.784 163.452 55.136C163.692 55.488 164.012 55.768 164.412 55.976C164.812 56.168 165.3 56.264 165.876 56.264C166.676 56.264 167.324 56.168 167.82 55.976C168.332 55.768 168.78 55.328 169.164 54.656H169.212C169.26 54.88 169.308 55.112 169.356 55.352C169.42 55.576 169.508 55.792 169.62 56H172.788C172.628 55.616 172.516 55.256 172.452 54.92C172.404 54.584 172.38 54.112 172.38 53.504V46.712C172.38 46.136 172.316 45.608 172.188 45.128C172.076 44.632 171.852 44.208 171.516 43.856C171.18 43.504 170.708 43.232 170.1 43.04C169.492 42.848 168.692 42.752 167.7 42.752C167.076 42.752 166.484 42.824 165.924 42.968C165.38 43.096 164.9 43.32 164.484 43.64C164.084 43.944 163.764 44.352 163.524 44.864C163.284 45.36 163.164 45.984 163.164 46.736V47.048ZM174.863 38.864V56H178.175V38.864H174.863ZM186.532 49.544V52.088C186.532 52.44 186.468 52.744 186.34 53C186.212 53.256 186.044 53.464 185.836 53.624C185.644 53.784 185.428 53.904 185.188 53.984C184.948 54.048 184.716 54.08 184.492 54.08C184.044 54.08 183.724 53.904 183.532 53.552C183.34 53.2 183.244 52.776 183.244 52.28C183.244 51.704 183.388 51.248 183.676 50.912C183.964 50.576 184.444 50.336 185.116 50.192C185.324 50.144 185.556 50.072 185.812 49.976C186.068 49.864 186.308 49.72 186.532 49.544ZM180.484 47.048H183.46V46.688C183.46 46.176 183.588 45.768 183.844 45.464C184.1 45.16 184.484 45.008 184.996 45.008C185.556 45.008 185.948 45.152 186.172 45.44C186.412 45.712 186.532 46.096 186.532 46.592C186.532 47.024 186.436 47.352 186.244 47.576C186.052 47.8 185.708 47.976 185.212 48.104L183.34 48.608C182.764 48.768 182.268 48.952 181.852 49.16C181.452 49.368 181.116 49.632 180.844 49.952C180.588 50.256 180.396 50.632 180.268 51.08C180.14 51.512 180.076 52.032 180.076 52.64C180.076 53.072 180.132 53.512 180.244 53.96C180.356 54.392 180.532 54.784 180.772 55.136C181.012 55.488 181.332 55.768 181.732 55.976C182.132 56.168 182.62 56.264 183.196 56.264C183.996 56.264 184.644 56.168 185.14 55.976C185.652 55.768 186.1 55.328 186.484 54.656H186.532C186.58 54.88 186.628 55.112 186.676 55.352C186.74 55.576 186.828 55.792 186.94 56H190.108C189.948 55.616 189.836 55.256 189.772 54.92C189.724 54.584 189.7 54.112 189.7 53.504V46.712C189.7 46.136 189.636 45.608 189.508 45.128C189.396 44.632 189.172 44.208 188.836 43.856C188.5 43.504 188.028 43.232 187.42 43.04C186.812 42.848 186.012 42.752 185.02 42.752C184.396 42.752 183.804 42.824 183.244 42.968C182.7 43.096 182.22 43.32 181.804 43.64C181.404 43.944 181.084 44.352 180.844 44.864C180.604 45.36 180.484 45.984 180.484 46.736V47.048ZM192.063 43.088V56H195.375V47.432C195.375 46.008 195.959 45.296 197.127 45.296C197.623 45.296 197.983 45.432 198.207 45.704C198.431 45.96 198.543 46.424 198.543 47.096V56H201.855V46.424C201.855 45.128 201.567 44.192 200.991 43.616C200.431 43.04 199.623 42.752 198.567 42.752C197.847 42.752 197.207 42.904 196.647 43.208C196.087 43.496 195.631 43.96 195.279 44.6H195.231V43.088H192.063ZM207.111 49.952C207.111 49.088 207.127 48.36 207.159 47.768C207.207 47.16 207.295 46.68 207.423 46.328C207.551 45.96 207.727 45.696 207.951 45.536C208.175 45.376 208.471 45.296 208.839 45.296C209.495 45.296 209.943 45.624 210.183 46.28C210.439 46.936 210.567 48.048 210.567 49.616C210.567 50.16 210.535 50.664 210.471 51.128C210.423 51.576 210.327 51.96 210.183 52.28C210.055 52.6 209.871 52.856 209.631 53.048C209.407 53.224 209.119 53.312 208.767 53.312C208.415 53.312 208.127 53.224 207.903 53.048C207.695 52.856 207.527 52.608 207.399 52.304C207.287 51.984 207.207 51.624 207.159 51.224C207.127 50.824 207.111 50.4 207.111 49.952ZM213.735 43.088H210.567V44.528H210.519C210.199 43.856 209.791 43.392 209.295 43.136C208.799 42.88 208.319 42.752 207.855 42.752C206.959 42.752 206.239 42.952 205.695 43.352C205.167 43.752 204.759 44.272 204.471 44.912C204.199 45.536 204.015 46.24 203.919 47.024C203.839 47.808 203.799 48.576 203.799 49.328C203.799 51.68 204.127 53.36 204.783 54.368C205.455 55.36 206.447 55.856 207.759 55.856C208.287 55.856 208.791 55.712 209.271 55.424C209.767 55.136 210.183 54.752 210.519 54.272H210.567V55.976C210.567 56.616 210.431 57.152 210.159 57.584C209.887 58.016 209.415 58.232 208.743 58.232C208.535 58.232 208.335 58.2 208.143 58.136C207.967 58.072 207.799 57.984 207.639 57.872C207.303 57.632 207.135 57.304 207.135 56.888H203.967C203.967 57.992 204.343 58.84 205.095 59.432C205.863 60.04 206.951 60.344 208.359 60.344C210.295 60.344 211.671 59.928 212.487 59.096C213.319 58.264 213.735 57.016 213.735 55.352V43.088Z" fill="white"/>
<line x1="131.182" y1="9.96227" x2="131.182" y2="54.7925" stroke="white" stroke-opacity="0.05"/>
<path fill-rule="evenodd" clip-rule="evenodd" d="M37.011 39.0828C38.4249 40.8209 39.2861 43.1095 39.2861 45.6027C39.2861 51.0057 35.2599 55.4179 30.3294 55.4179C26.985 55.4179 24.0568 53.3888 22.521 50.4002C20.9779 53.3573 18.0641 55.3628 14.7412 55.3628C9.81074 55.3628 5.78452 50.9507 5.78452 45.5476C5.78452 43.0702 6.63139 40.8052 8.01652 39.0749C3.99031 38.1154 0.954498 34.1752 0.954498 29.4799C0.954498 24.0768 4.98071 19.6647 9.91121 19.6647C11.2246 19.6647 12.4662 19.9793 13.5929 20.5377C13.5642 20.2231 13.5499 19.9007 13.5499 19.5703C13.5499 14.1673 17.5761 9.75513 22.5066 9.75513C27.4371 9.75513 31.4633 14.1673 31.4633 19.5703C31.4633 19.8928 31.449 20.2152 31.4203 20.5377C32.5398 19.9872 33.7743 19.6804 35.0733 19.6804C40.0038 19.6804 44.03 24.0926 44.03 29.4956C44.03 34.1752 41.0157 38.1075 37.0038 39.0828H37.011Z" fill="#FEFEFE"/>
<path fill-rule="evenodd" clip-rule="evenodd" d="M38.6043 39.6412C38.999 40.294 39.3292 41.0018 39.5875 41.7489C40.0038 42.9522 40.2334 44.2499 40.2334 45.6027C40.2334 48.5913 39.121 51.3125 37.3268 53.2787C35.5326 55.2448 33.0494 56.4639 30.3222 56.4639C28.5065 56.4639 26.8056 55.9212 25.3343 54.9774C24.2434 54.2775 23.2889 53.3573 22.5138 52.272C21.7387 53.3416 20.7842 54.2539 19.7005 54.946C18.2364 55.8819 16.5426 56.4167 14.7341 56.4167C12.0069 56.4167 9.52369 55.1977 7.72947 53.2315C5.93526 51.2653 4.82285 48.5441 4.82285 45.5555C4.82285 44.2185 5.04533 42.9286 5.46159 41.7332C5.71278 41.0018 6.03573 40.3018 6.42328 39.6569C4.75108 38.9648 3.29418 37.793 2.19612 36.2908C0.825338 34.4268 0 32.0596 0 29.4878C0 26.4992 1.11241 23.778 2.90663 21.8118C4.70084 19.8456 7.18403 18.6266 9.91124 18.6266C10.6217 18.6266 11.3179 18.7131 11.9925 18.8704C12.2007 18.9176 12.4016 18.9726 12.6026 19.0355C12.7246 16.2593 13.8154 13.7504 15.502 11.9022C17.2962 9.93602 19.7794 8.71698 22.5066 8.71698C25.2338 8.71698 27.717 9.93602 29.5112 11.9022C31.1978 13.7504 32.2815 16.2671 32.4107 19.0434C32.6116 18.9805 32.8054 18.9254 33.0135 18.8782C33.6882 18.7209 34.3771 18.6344 35.0805 18.6344C37.8077 18.6344 40.2909 19.8535 42.0851 21.8197C43.8793 23.7858 44.9917 26.507 44.9917 29.4956C44.9917 32.0596 44.1735 34.419 42.8099 36.2829C41.7191 37.7772 40.2693 38.9491 38.6115 39.6412H38.6043ZM13.593 20.5377C13.5643 20.2231 13.5499 19.9007 13.5499 19.5703C13.5499 14.1673 17.5761 9.75513 22.5066 9.75513C27.4371 9.75513 31.4633 14.1673 31.4633 19.5703C31.4633 19.8928 31.449 20.2152 31.4203 20.5377C32.5399 19.9872 33.7743 19.6804 35.0733 19.6804C40.0038 19.6804 44.03 24.0926 44.03 29.4956C44.03 34.1752 41.0157 38.1076 37.0039 39.0828C38.4177 40.8209 39.2789 43.1095 39.2789 45.6027C39.2789 51.0057 35.2527 55.4179 30.3222 55.4179C26.9778 55.4179 24.0496 53.3888 22.5138 50.4002C20.9708 53.3573 18.057 55.3628 14.7341 55.3628C9.80358 55.3628 5.77737 50.9507 5.77737 45.5476C5.77737 43.0702 6.62424 40.8052 8.00937 39.0749C3.98315 38.1154 0.947345 34.1752 0.947345 29.4799C0.947345 24.0768 4.97356 19.6647 9.90406 19.6647C11.2174 19.6647 12.459 19.9793 13.5858 20.5377H13.593Z" fill="#E62129"/>
<path fill-rule="evenodd" clip-rule="evenodd" d="M18.1144 19.0119H26.8701V28.5912H35.6115V38.1862H26.8701V47.7733H18.1144V38.1862H9.36578V28.5912H18.1144V19.0119Z" fill="#E62129"/>
<path fill-rule="evenodd" clip-rule="evenodd" d="M66.8811 56.6054C66.6443 56.5661 66.3428 56.4953 66.1347 56.3459C65.7256 56.165 65.3524 55.6302 65.2161 55.1898C65.2089 55.1819 65.2017 55.1741 65.1946 55.1662C65.1156 54.8909 65.0367 54.6157 64.9721 54.3404C64.9434 54.191 64.9218 54.0573 64.9003 53.9157C64.8716 53.6011 64.8429 53.2944 64.8142 52.9877C64.8142 52.2877 64.8214 51.5956 64.8285 50.9035C64.9003 50.3766 64.9218 49.8496 65.0869 49.3463C65.2089 48.7957 65.4888 48.2845 65.8835 47.9306C65.9912 47.852 66.0917 47.7733 66.1993 47.7104C66.2639 47.6711 66.3357 47.6396 66.4003 47.6082C66.4792 47.5767 66.5582 47.5531 66.6371 47.5295C66.8739 47.4981 67.1179 47.4509 67.3548 47.4509C67.5127 47.4745 67.6634 47.4981 67.8285 47.5295C67.9792 47.6003 68.1299 47.6475 68.2662 47.7419C68.5318 47.8913 68.7614 48.1744 68.9337 48.4261C68.9409 48.4261 68.948 48.4261 68.9624 48.4261C68.9696 48.4104 68.9768 48.3946 68.9911 48.3789C68.9911 47.2149 68.9911 46.0509 68.9983 44.8948C69.0342 44.8555 69.0772 44.8555 69.1275 44.8319C69.7375 44.8319 70.3475 44.8319 70.9647 44.8319C71.0078 44.8319 71.0365 44.8712 71.0652 44.9027C71.058 48.7328 71.058 52.5551 71.058 56.3931C71.015 56.4403 70.9647 56.4481 70.9002 56.456C70.3188 56.456 69.7303 56.456 69.1562 56.456C69.1346 56.4324 69.1131 56.4088 69.0916 56.3852C69.0844 56.1414 69.0772 55.8897 69.0772 55.6538C69.0557 55.6459 69.0342 55.6381 69.0126 55.6381C68.6681 56.1257 68.46 56.2987 67.9289 56.5504C67.6777 56.629 67.0462 56.6684 66.8739 56.6054H66.8811ZM67.7639 54.9381C67.7065 54.9224 67.649 54.9067 67.5988 54.8909C67.3763 54.7651 67.2184 54.655 67.1108 54.3954C67.0534 54.3325 67.0749 54.2146 67.0175 54.1516C66.9816 53.9707 66.9529 53.7899 66.9242 53.609C66.9026 53.3809 66.8811 53.1449 66.8668 52.9169C66.8596 52.5079 66.8524 52.0989 66.8524 51.69C66.8739 51.3046 66.8955 50.9271 66.9242 50.5496C66.9672 50.2114 67.0246 49.826 67.2184 49.5586C67.2184 49.4092 67.606 49.2519 67.6921 49.2204C67.8428 49.2204 67.9863 49.2204 68.1371 49.2204C68.2088 49.244 68.2806 49.2676 68.3452 49.2991C68.3954 49.3384 68.4457 49.3777 68.4959 49.4171C68.6466 49.5901 68.7327 49.7395 68.7758 49.9676C68.8476 50.0462 68.8189 50.2271 68.8763 50.3294C68.8978 50.5339 68.9265 50.7462 68.9552 50.9585C68.9839 51.8945 69.0126 52.854 68.8835 53.782C68.8547 53.9157 68.826 54.0415 68.7973 54.1831C68.7614 54.2696 68.7256 54.3561 68.6969 54.4348C68.6681 54.5606 68.5318 54.71 68.4528 54.7808C68.3954 54.8123 68.3452 54.8437 68.295 54.8752C68.1227 54.9145 67.9361 54.9302 67.7567 54.9381H67.7639Z" fill="white"/>
<path fill-rule="evenodd" clip-rule="evenodd" d="M75.2421 56.6526C75.235 56.6369 75.2278 56.6212 75.2278 56.6054C74.9264 56.5504 74.5747 56.5032 74.2948 56.3774C74.1943 56.3223 74.1082 56.2673 74.0149 56.2201C73.8929 56.1178 73.7781 56.0235 73.6632 55.9212C73.5915 55.8347 73.4695 55.7167 73.4264 55.6145C73.3116 55.6145 73.0604 54.8595 73.0173 54.7808C72.9599 54.5685 72.9097 54.3483 72.8594 54.1438C72.8092 53.7191 72.7589 53.2944 72.7159 52.8697C72.7159 52.854 72.7159 52.8461 72.7159 52.8382C72.7159 52.3585 72.7159 51.8866 72.7231 51.4069C72.7231 51.2496 72.7159 51.0844 72.7661 50.935C72.7876 50.4945 72.8451 50.0541 72.9742 49.6451C73.0317 49.3384 73.1896 49.071 73.3187 48.7879C73.3618 48.7092 73.4049 48.6385 73.4479 48.5755C73.4623 48.5598 73.4766 48.5519 73.491 48.5441C73.5412 48.4261 73.7493 48.1587 73.8642 48.1272C73.8642 48.0486 74.1297 47.9306 74.1871 47.8677C74.2302 47.8363 74.2804 47.8127 74.3307 47.7891C74.4814 47.7261 74.6249 47.6632 74.7828 47.6003C75.2421 47.4981 75.6799 47.443 76.1464 47.443C76.3545 47.4666 76.5699 47.4902 76.778 47.5217C77.0076 47.5846 77.2445 47.6632 77.467 47.7497C77.5674 47.8127 77.6679 47.8756 77.7756 47.9306C77.7756 47.9542 77.955 48.0801 77.9837 48.0958C77.9837 48.1037 77.9837 48.1115 77.9909 48.1272C78.3569 48.4733 78.6009 48.953 78.7301 49.4485C78.7373 49.4564 78.7444 49.4721 78.7588 49.4879C78.8234 49.8496 78.9239 50.2114 78.9382 50.5811C78.9956 50.8799 79.0028 51.2102 79.01 51.517C79.0028 52.0675 78.9956 52.6102 78.9885 53.1686C78.9095 53.3809 78.9741 53.7663 78.8664 53.9472C78.8306 54.1123 78.8019 54.2775 78.7731 54.4505C78.7444 54.5449 78.7157 54.6393 78.687 54.7415C78.6583 54.8044 78.6368 54.8673 78.6153 54.9303C78.4789 55.2055 78.3425 55.4808 78.1559 55.7325C78.0985 55.7718 77.9335 55.9212 77.9119 55.9763C77.7469 56.1021 77.5387 56.2909 77.345 56.3302C77.0363 56.5032 76.6416 56.5504 76.2971 56.5976C76.2971 56.6054 76.2971 56.6212 76.2971 56.6369C75.967 56.6369 75.6369 56.6369 75.3139 56.6369C75.3139 56.6212 75.3139 56.6054 75.3139 56.5976C75.2995 56.5976 75.2852 56.5976 75.2708 56.5976C75.2708 56.6054 75.2708 56.6212 75.2708 56.6369C75.2565 56.6369 75.2421 56.6369 75.235 56.6369L75.2421 56.6526ZM75.6656 55.1269C75.5794 55.0876 75.4933 55.0561 75.4216 55.0246C75.4216 55.0089 75.4216 55.001 75.4216 54.9932C75.2565 54.9224 75.1919 54.7887 75.0986 54.6393C75.0914 54.6393 75.0842 54.6393 75.0771 54.6393C75.0268 54.5056 74.9766 54.3876 74.9335 54.2618C74.8546 53.955 74.8331 53.6326 74.8187 53.318C74.7039 52.5787 74.79 51.7844 74.79 51.0372C74.8474 50.5732 74.8331 50.0934 75.0053 49.6609C75.0484 49.5665 75.0986 49.4721 75.1488 49.3935C75.3139 49.189 75.4431 49.0946 75.6871 49.0317C75.8235 49.0317 76.1105 48.9845 76.211 49.1025C76.2828 49.1418 76.3545 49.1811 76.4263 49.2283C76.4263 49.2755 76.4694 49.2912 76.4981 49.307C76.5699 49.4564 76.6416 49.598 76.7134 49.7553C76.9718 50.7069 76.9359 51.745 76.9359 52.7281C76.9215 53.0978 76.8713 53.4831 76.8426 53.8528C76.8139 53.9708 76.7923 54.0887 76.7708 54.2146C76.7206 54.3483 76.6775 54.5842 76.5914 54.6865C76.5483 54.7887 76.455 54.8752 76.4048 54.9539C76.3043 55.0089 76.211 55.064 76.1105 55.119C75.9526 55.1269 75.8019 55.1347 75.6512 55.1426L75.6656 55.1269Z" fill="white"/>
<path fill-rule="evenodd" clip-rule="evenodd" d="M91.0025 56.6526C91.0025 56.6369 91.0025 56.6212 91.0025 56.6133C90.6437 56.5661 90.2705 56.5111 89.9475 56.338C89.8614 56.338 89.682 56.1886 89.6102 56.1493C89.6102 56.1336 89.6102 56.1257 89.6102 56.1178C89.4739 56.1178 89.1868 55.7403 89.115 55.6695C88.9212 55.3628 88.7131 55.0089 88.6342 54.6314C88.5122 54.3719 88.4834 53.9865 88.4476 53.6955C88.4404 53.4674 88.4332 53.2315 88.426 53.0034C88.3327 52.7989 88.4619 52.4529 88.3758 52.2248C88.383 51.9259 88.3901 51.6271 88.4045 51.3203C88.4189 51.1158 88.4332 50.9035 88.4476 50.7069C88.4691 50.5181 88.4906 50.3294 88.5193 50.1485C88.5767 49.9283 88.6342 49.7002 88.6916 49.48C88.7418 49.3384 88.7921 49.2047 88.8495 49.071C88.8854 49.0474 88.9643 48.8429 88.9858 48.7879C89.0935 48.6306 89.194 48.489 89.3088 48.3396C89.4093 48.2452 89.5097 48.1587 89.6174 48.0722C89.6174 47.9857 89.9332 47.8756 90.0049 47.7969C90.048 47.7812 90.0911 47.7655 90.1341 47.7576C90.1413 47.7419 90.1557 47.734 90.17 47.7261C90.6724 47.5452 91.1891 47.4745 91.7274 47.4745C91.957 47.5138 92.3302 47.4666 92.524 47.6082C92.8398 47.6554 93.1412 47.8677 93.4139 48.0486C93.7082 48.3317 93.9522 48.6227 94.1101 49.0317C94.2106 49.244 94.2895 49.4878 94.3254 49.7316C94.3326 49.7474 94.3398 49.771 94.3541 49.7946C94.3828 49.9912 94.4115 50.2035 94.4474 50.408C94.4689 50.7541 94.4905 51.1001 94.5192 51.4462C94.5192 51.5799 94.5551 52.3663 94.5048 52.4214C93.1771 52.4214 91.8566 52.4293 90.536 52.4371C90.4858 52.4607 90.4858 52.4843 90.4643 52.5394C90.4643 52.8068 90.4499 53.0899 90.493 53.3573C90.493 53.955 90.6006 54.6235 91.0456 55.0168C91.1245 55.0561 91.2035 55.0954 91.2752 55.1347C91.4188 55.1347 91.5551 55.1347 91.6987 55.1347C91.7633 55.1033 91.835 55.0797 91.8996 55.0561C92.1365 54.8909 92.2872 54.6471 92.3877 54.3719C92.4379 54.1202 92.524 53.8449 92.5384 53.5854C92.5527 53.5539 92.5671 53.5225 92.5814 53.4989C93.1699 53.4989 93.7584 53.4989 94.3541 53.4989C94.3685 53.5225 94.3828 53.5461 94.3972 53.5775C94.3828 53.7663 94.3685 53.9629 94.3613 54.1595C94.3182 54.3011 94.3254 54.4898 94.2608 54.5999C94.1603 55.1033 93.8015 55.8819 93.3565 56.1257C93.3565 56.1886 92.969 56.3616 92.89 56.4167C92.725 56.4481 92.5384 56.5111 92.3877 56.574C92.2441 56.5897 92.1149 56.6054 91.9786 56.629C91.9786 56.6369 91.9786 56.6526 91.9786 56.6684C91.6556 56.6684 91.3327 56.6684 91.0169 56.6684L91.0025 56.6526ZM90.5073 51.0608C90.4858 51.0451 90.4714 51.0293 90.4571 51.0215C90.4499 50.9114 90.4499 50.8091 90.4499 50.7069C90.5001 50.3136 90.4786 49.8889 90.6939 49.5508C90.7011 49.5193 90.7154 49.4878 90.7298 49.4564C90.737 49.4485 90.7513 49.4485 90.7657 49.4485C90.7657 49.3384 90.9595 49.1968 91.0241 49.1339C91.0743 49.1025 91.1317 49.0789 91.1891 49.0553C91.3829 49.0238 91.6341 48.9924 91.8279 49.0553C91.9427 49.1182 92.0575 49.1968 92.158 49.2834C92.4881 49.8024 92.4953 50.408 92.524 51.0215C92.5168 51.0215 92.5097 51.0293 92.5097 51.0372C91.8422 51.0372 91.1748 51.0451 90.5073 51.0529V51.0608Z" fill="white"/>
<path fill-rule="evenodd" clip-rule="evenodd" d="M98.4951 56.6526C98.4951 56.6369 98.4951 56.6212 98.4951 56.6133C98.2224 56.5819 97.9425 56.5268 97.6698 56.4639C97.5406 56.4167 97.4258 56.3695 97.3038 56.3223C97.0095 56.1572 96.5861 55.8662 96.4641 55.5044C96.2344 55.1662 96.2129 54.655 96.1698 54.2539C96.1627 54.0494 96.1627 53.8371 96.1627 53.6326C96.177 53.609 96.1914 53.5854 96.2129 53.5697C96.8014 53.5618 97.3971 53.5618 97.9999 53.5618C98.0071 53.7741 98.0215 53.9944 98.0358 54.2146C98.0932 54.3876 98.1578 54.7179 98.3014 54.7887C98.3014 54.9224 98.7463 55.0876 98.8396 55.1033C98.9975 55.1033 99.1554 55.1033 99.3205 55.1033C99.464 55.0718 99.6291 55.0089 99.7511 54.9224C99.8874 54.7966 99.9664 54.6471 100.053 54.4898C100.074 54.3325 100.103 54.1752 100.103 54.0101C100.081 53.9078 100.067 53.8135 100.053 53.7191C100.031 53.6798 100.009 53.6404 99.9951 53.6011C99.952 53.5539 99.9162 53.5067 99.8803 53.4596C99.7654 53.3652 99.6578 53.2708 99.5501 53.1922C99.3277 53.1214 99.1052 52.9798 98.8755 52.9169C98.8253 52.8618 98.732 52.854 98.6674 52.8304C98.6674 52.7989 98.5023 52.7596 98.4808 52.7596C98.3372 52.6888 98.1219 52.6416 97.9999 52.5551C97.8492 52.5237 97.6913 52.4293 97.5478 52.3742C97.3468 52.2169 97.0454 52.1225 96.8947 51.8945C96.6937 51.7136 96.4641 51.4305 96.3923 51.1473C96.378 51.1237 96.3636 51.1001 96.3564 51.0765C96.3205 50.9586 96.2918 50.8485 96.2631 50.7305C96.2416 50.5732 96.2201 50.4238 96.1985 50.2665C96.1985 50.1406 96.1985 50.0305 96.1985 49.9126C96.2703 49.7159 96.2273 49.4485 96.3205 49.244C96.3851 48.8744 96.5933 48.5284 96.8373 48.261C96.9808 48.1351 97.1172 48.025 97.2679 47.907C97.4617 47.8127 97.6554 47.7026 97.8564 47.6396C98.1722 47.5217 98.5095 47.4509 98.854 47.4509C99.2272 47.388 99.6506 47.4666 100.017 47.5059C100.325 47.5846 100.627 47.679 100.907 47.8284C101.036 47.9306 101.158 48.025 101.287 48.1351C101.316 48.198 101.395 48.2688 101.438 48.316C101.56 48.5048 101.703 48.7407 101.753 48.9766C101.911 49.3856 101.89 49.8418 101.89 50.2665C101.287 50.2743 100.691 50.2822 100.088 50.2901C100.009 50.2035 100.031 50.0934 100.024 49.9755C100.002 49.8575 99.9879 49.7553 99.9736 49.6452C99.9162 49.5193 99.8659 49.4013 99.8157 49.2755C99.7511 49.2126 99.6865 49.1575 99.6291 49.1025C99.5717 49.071 99.5214 49.0474 99.4712 49.0238C99.2559 48.9924 99.019 49.0002 98.8037 49.0238C98.6459 49.1025 98.5095 49.189 98.3731 49.2912C98.3229 49.3699 98.2727 49.4485 98.2296 49.5272C98.2081 49.6216 98.1865 49.7081 98.1722 49.8103C98.1794 49.9047 98.1865 49.9991 98.1937 50.0934C98.2009 50.1485 98.2152 50.2035 98.2296 50.2586C98.2583 50.3137 98.287 50.3687 98.3157 50.4316C98.4521 50.6125 98.6171 50.7069 98.7966 50.817C99.1123 50.935 99.4568 51.108 99.7798 51.1788C100.067 51.2889 100.354 51.399 100.648 51.517C100.792 51.5956 100.986 51.6664 101.1 51.7844C101.158 51.8237 101.222 51.863 101.28 51.9023C101.316 51.9338 101.352 51.9653 101.395 51.9967C101.395 52.0046 101.395 52.0124 101.395 52.0282C101.402 52.0282 101.409 52.0282 101.416 52.0282C101.502 52.1461 101.588 52.2562 101.682 52.3742C101.825 52.3742 101.976 53.1056 102.019 53.2079C102.048 53.5146 102.069 53.8292 102.055 54.1438C102.041 54.5056 101.954 54.8831 101.811 55.2055C101.646 55.4572 101.488 55.7561 101.251 55.9291C101.251 56.0235 100.749 56.283 100.627 56.3302C100.619 56.3381 100.612 56.3459 100.612 56.3538C100.419 56.4088 100.225 56.4639 100.038 56.5268C99.8659 56.5425 99.708 56.5583 99.543 56.5819C99.543 56.5897 99.543 56.6055 99.543 56.6212C99.2272 56.6212 98.9114 56.6212 98.5956 56.6212C98.5956 56.6055 98.5956 56.5897 98.5956 56.5819C98.5669 56.5819 98.5454 56.5819 98.5238 56.5819C98.5238 56.5897 98.5238 56.6055 98.5238 56.6212C98.5095 56.6212 98.4951 56.6212 98.4808 56.6212L98.4951 56.6526Z" fill="white"/>
<path fill-rule="evenodd" clip-rule="evenodd" d="M109.038 56.6526C109.031 56.6369 109.024 56.6212 109.024 56.6054C108.636 56.5425 108.155 56.3459 107.94 55.9527C107.933 55.9527 107.926 55.9527 107.918 55.9527C107.811 55.7954 107.717 55.6223 107.667 55.4257C107.538 55.2527 107.495 54.8123 107.466 54.6235C107.466 54.2853 107.466 53.9472 107.466 53.609C107.502 53.4281 107.509 53.1764 107.603 53.027C107.667 52.6731 107.911 52.272 108.184 52.0753C108.191 52.0596 108.198 52.0439 108.213 52.0282C108.485 51.8394 108.722 51.69 109.024 51.5877C109.174 51.5248 109.325 51.454 109.483 51.4304C109.526 51.4068 109.569 51.3911 109.612 51.3754C109.949 51.3046 110.28 51.1709 110.617 51.1001C110.689 51.0687 110.768 51.0451 110.839 51.0215C110.897 50.99 110.954 50.9664 111.012 50.9428C111.091 50.8799 111.177 50.817 111.256 50.7541C111.277 50.7147 111.299 50.6754 111.327 50.6361C111.363 50.526 111.406 50.4473 111.421 50.3294C111.421 50.1721 111.478 49.708 111.363 49.5822C111.349 49.535 111.335 49.4878 111.327 49.4485C111.313 49.4406 111.306 49.4328 111.299 49.4328C111.299 49.3777 111.198 49.2676 111.17 49.2204C111.126 49.189 111.083 49.1575 111.04 49.1261C110.976 49.0946 110.911 49.071 110.861 49.0474C110.567 48.9924 110.05 48.9452 109.849 49.2598C109.698 49.362 109.648 49.6137 109.591 49.7788C109.583 49.9676 109.576 50.1642 109.569 50.3608C108.959 50.3608 108.349 50.3687 107.732 50.3766C107.717 50.3687 107.71 50.3608 107.703 50.3608C107.703 50.1721 107.703 49.9755 107.71 49.7946C107.789 49.1575 107.933 48.78 108.277 48.2767C108.363 48.1902 108.442 48.1036 108.536 48.0329C108.701 47.907 108.851 47.8048 109.038 47.7419C109.153 47.6789 109.282 47.6318 109.404 47.5924C109.504 47.561 109.598 47.5374 109.705 47.5138C109.885 47.4981 110.079 47.4823 110.265 47.4666C110.509 47.3801 110.839 47.4666 111.105 47.4666C111.241 47.4823 111.378 47.4981 111.521 47.5138C111.636 47.5374 111.744 47.561 111.858 47.5924C111.966 47.6318 112.095 47.6554 112.181 47.7261C112.504 47.8126 112.899 48.1272 113.057 48.4576C113.244 48.662 113.265 49.071 113.358 49.3384C113.366 49.4564 113.38 49.5665 113.394 49.6845C113.43 51.5956 113.43 53.5303 113.437 55.4336C113.459 55.6695 113.48 55.9841 113.595 56.1886C113.602 56.2515 113.674 56.3774 113.61 56.4245C112.985 56.4245 112.361 56.4324 111.744 56.4403C111.722 56.4245 111.701 56.4088 111.679 56.401C111.643 56.3302 111.607 56.2594 111.579 56.1965C111.55 56.1021 111.528 56.0077 111.507 55.9291C111.485 55.819 111.464 55.7167 111.449 55.6066C111.421 55.6145 111.392 55.6223 111.37 55.6381C111.177 55.9527 110.94 56.283 110.603 56.4167C110.373 56.5425 110.064 56.5818 109.806 56.6133C109.806 56.6212 109.806 56.629 109.806 56.6448C109.548 56.6448 109.289 56.6448 109.031 56.6448L109.038 56.6526ZM109.993 55.1269C109.899 55.0639 109.77 55.0325 109.705 54.9224C109.433 54.6235 109.433 54.1438 109.433 53.7505C109.476 53.2865 109.641 52.9562 110.014 52.7281C110.086 52.6967 110.158 52.6652 110.222 52.6416C110.595 52.4764 111.019 52.4371 111.356 52.1619C111.37 52.1697 111.392 52.1776 111.414 52.1854C111.414 52.8068 111.414 53.4438 111.414 54.073C111.378 54.3011 111.284 54.4898 111.162 54.6707C111.062 54.7651 110.969 54.8595 110.868 54.946C110.732 54.9932 110.61 55.0482 110.481 55.1033C110.315 55.1111 110.158 55.119 109.993 55.1269Z" fill="white"/>
<path fill-rule="evenodd" clip-rule="evenodd" d="M53.4245 56.456C53.3742 56.4403 53.324 56.4246 53.2809 56.4167C53.2809 52.563 53.2809 48.7092 53.2809 44.8634C53.3025 44.8555 53.324 44.8476 53.3527 44.8398C53.9986 44.8398 54.6517 44.8398 55.3048 44.8398C55.3407 44.8476 55.3766 44.8555 55.4125 44.8634C55.4125 48.7014 55.4196 52.5394 55.4268 56.3852C55.4053 56.401 55.3909 56.4246 55.3766 56.4482C54.7235 56.4482 54.0704 56.456 53.4245 56.4639V56.456Z" fill="white"/>
<path fill-rule="evenodd" clip-rule="evenodd" d="M57.2211 56.456C57.1637 56.4482 57.1134 56.4324 57.0776 56.3931C57.0704 53.5225 57.0704 50.6597 57.0704 47.7891C57.0776 47.7576 57.0847 47.7261 57.0919 47.7026C57.7306 47.6947 58.3694 47.6947 59.0081 47.6947C59.0153 47.7104 59.0225 47.7261 59.0368 47.7497C59.0368 48.0329 59.0368 48.316 59.044 48.6149C59.0512 48.6306 59.0584 48.6463 59.0727 48.6699C59.0871 48.607 59.1158 48.5991 59.1517 48.5598C59.245 48.4261 59.3311 48.3003 59.4244 48.1666C59.4603 48.1351 59.4962 48.1037 59.5392 48.0722C59.5392 47.9228 60.1205 47.6632 60.2138 47.616C60.5368 47.5138 60.8741 47.443 61.2114 47.443C61.3837 47.4666 61.5703 47.4902 61.7497 47.5217C61.8286 47.5453 61.9148 47.5689 61.9937 47.6003C62.0583 47.6318 62.1301 47.6632 62.1946 47.6947C62.3382 47.8284 62.5176 47.9228 62.6468 48.0801C62.6827 48.1272 62.7186 48.1744 62.7616 48.2295C62.8262 48.3553 62.8908 48.4812 62.9554 48.6149C62.9841 48.7014 63.0128 48.7879 63.0415 48.8665C63.0774 49.0946 63.1205 49.3227 63.1348 49.5586C63.1348 51.8315 63.1348 54.1123 63.1348 56.3852C63.1205 56.401 63.1061 56.4167 63.0918 56.4403C62.4315 56.4324 61.7712 56.4324 61.1181 56.4324C61.1038 56.4167 61.0894 56.401 61.0822 56.3852C61.0751 54.2775 61.0751 52.1697 61.0751 50.0698C61.0464 49.9283 61.0176 49.8024 60.9889 49.6687C60.9602 49.6137 60.9315 49.5586 60.9028 49.5036C60.8885 49.5036 60.8813 49.5036 60.8741 49.5036C60.7234 49.2834 60.6014 49.2676 60.3646 49.1969C60.1492 49.1969 59.9626 49.2126 59.7545 49.2755C59.7043 49.307 59.654 49.3384 59.6038 49.3699C59.532 49.4328 59.4674 49.4957 59.41 49.5586C59.3526 49.653 59.3024 49.7474 59.2521 49.8496C59.2306 49.9047 59.2091 49.9676 59.1947 50.0305C59.1732 50.1721 59.1588 50.3058 59.1445 50.4552C59.1373 52.4135 59.1373 54.364 59.1373 56.3302C59.1373 56.4246 59.0297 56.4324 58.9722 56.4403C58.3837 56.4403 57.8024 56.4403 57.2139 56.4482L57.2211 56.456Z" fill="white"/>
<path fill-rule="evenodd" clip-rule="evenodd" d="M80.7755 56.456C80.7253 56.4482 80.6894 56.4167 80.6678 56.3695C80.6678 53.5067 80.6678 50.6518 80.6678 47.7891C80.6678 47.7419 80.6894 47.7104 80.7109 47.6868C81.3281 47.6868 81.9525 47.6868 82.5769 47.6868C82.5912 47.6868 82.6056 47.6947 82.62 47.7026C82.7061 47.9778 82.5195 48.3632 82.6774 48.6227C82.6989 48.6227 82.8137 48.4261 82.8281 48.3947C82.8496 48.3947 82.9501 48.2531 82.9644 48.2216C83.0075 48.1902 83.1367 48.0486 83.1582 48.0093C83.3376 47.8834 83.5242 47.7104 83.7395 47.6475C84.0625 47.4666 84.4716 47.443 84.8304 47.443C85.0027 47.4666 85.1677 47.4902 85.34 47.5217C85.4476 47.561 85.5696 47.5846 85.6629 47.6554C85.7491 47.679 86.0003 47.7969 86.029 47.8913C86.3017 48.0407 86.4955 48.4733 86.5888 48.78C86.6533 49.0396 86.7108 49.3227 86.7323 49.5901C86.7251 51.863 86.7251 54.1438 86.7251 56.4167C86.6964 56.4246 86.6749 56.4324 86.6533 56.4482C86.0146 56.4482 85.3759 56.4482 84.7371 56.4482C84.7156 56.4324 84.7012 56.4167 84.6869 56.4088C84.6725 54.3247 84.6654 52.2326 84.6582 50.1564C84.6438 50.0384 84.6295 49.9283 84.6151 49.8103C84.5864 49.7395 84.5649 49.6687 84.5433 49.6058C84.4572 49.4643 84.3568 49.3777 84.2276 49.2912C84.163 49.2676 84.0984 49.244 84.0481 49.2204C83.8831 49.2204 83.7252 49.2204 83.5601 49.2204C83.474 49.244 83.3879 49.2755 83.3161 49.307C83.2802 49.3227 83.2443 49.3463 83.2085 49.3699C83.0506 49.5193 82.9788 49.5822 82.8855 49.771C82.8783 49.8182 82.8568 49.889 82.8209 49.9283C82.785 50.117 82.7491 50.3136 82.7204 50.5103C82.7133 52.4843 82.7133 54.4505 82.7133 56.4246C82.6989 56.4324 82.6917 56.4403 82.6845 56.456C82.0458 56.456 81.4071 56.456 80.7683 56.4639L80.7755 56.456Z" fill="white"/>
<path fill-rule="evenodd" clip-rule="evenodd" d="M103.763 56.456C103.749 56.4403 103.741 56.4246 103.734 56.4167C103.727 53.5382 103.727 50.6597 103.727 47.7812C103.734 47.7497 103.741 47.7183 103.756 47.6947C104.416 47.6947 105.084 47.6947 105.751 47.7026C105.758 47.7104 105.765 47.7261 105.773 47.7419C105.773 50.6282 105.773 53.5146 105.773 56.401C105.765 56.4088 105.758 56.4167 105.751 56.4324C105.084 56.4403 104.423 56.4482 103.763 56.456Z" fill="white"/>
<path fill-rule="evenodd" clip-rule="evenodd" d="M103.749 46.7902C103.741 46.7588 103.734 46.7273 103.727 46.6959C103.727 46.0981 103.727 45.5004 103.727 44.9106C103.749 44.8555 103.749 44.8555 103.799 44.8319C104.43 44.8319 105.062 44.8319 105.694 44.8319C105.715 44.8398 105.737 44.8476 105.758 44.8555C105.758 45.4768 105.765 46.106 105.773 46.7352C105.765 46.743 105.758 46.7588 105.758 46.7745C105.084 46.7745 104.416 46.7824 103.749 46.7902Z" fill="white"/>
<path fill-rule="evenodd" clip-rule="evenodd" d="M67.0031 39.2479C66.7232 39.2479 66.4433 39.1929 66.1634 39.1772C66.0701 39.1457 65.8118 39.1064 65.7543 39.0434C65.7185 39.0356 65.6826 39.0277 65.6467 39.0199C65.3381 38.8704 64.9075 38.6266 64.7209 38.312C64.5989 38.2491 64.5486 38.0525 64.4553 37.9502C64.3261 37.6435 64.2041 37.3447 64.1324 37.0143C64.0534 36.8335 64.0463 36.6054 64.0104 36.4166C63.9888 36.1256 63.9673 35.8346 63.953 35.5436C63.9458 35.1504 63.9386 34.7572 63.9386 34.3718C63.9673 33.8999 63.996 33.4359 64.0319 32.964C64.0678 32.8146 64.0606 32.6101 64.1324 32.4842C64.1539 32.3584 64.197 32.0674 64.2759 31.9809C64.3118 31.8629 64.3477 31.7607 64.3907 31.6506C64.4912 31.4697 64.5845 31.2259 64.7352 31.1001C64.7424 31.0765 64.7496 31.0529 64.7568 31.0371C64.8142 31.0057 64.8788 30.927 64.9147 30.872C65.0438 30.7619 65.1658 30.6596 65.295 30.5495C65.3883 30.4866 65.4744 30.4315 65.5749 30.3765C65.6682 30.3372 65.7543 30.2978 65.8548 30.2585C66.0055 30.2113 66.1491 30.172 66.2998 30.1327C66.4505 30.1091 66.6012 30.0855 66.7591 30.0619C67.0031 30.0619 67.2543 30.0619 67.4983 30.0619C67.6634 30.0855 67.8213 30.1091 67.9863 30.1406C68.1658 30.2035 68.3954 30.2428 68.5533 30.3608C68.6466 30.3608 68.8763 30.5495 68.9409 30.5967C69.0342 30.6754 69.1203 30.7619 69.2136 30.8405C69.2782 30.927 69.3428 31.0135 69.4074 31.0922C69.5078 31.2809 69.6011 31.4776 69.7016 31.6742C69.7303 31.745 69.759 31.8236 69.7877 31.8944C69.8093 31.9809 69.8308 32.0674 69.8595 32.1461C69.881 32.2562 69.9026 32.3584 69.9313 32.4685C69.9528 32.6337 69.9743 32.791 70.003 32.9561C70.0246 33.2943 70.0461 33.6325 70.0748 33.9786C70.0676 34.3089 70.0676 34.6392 70.0676 34.9695C68.7184 34.9774 67.3691 34.9931 66.0199 35.0088C66.0199 35.2841 66.0199 35.5672 66.0199 35.8425C66.0414 36.0863 66.0629 36.338 66.0917 36.5896C66.1132 36.684 66.1347 36.7705 66.1634 36.8649C66.2639 37.1716 66.4074 37.4233 66.6586 37.6199C66.716 37.6435 66.7806 37.6671 66.838 37.6986C66.9744 37.6986 67.1108 37.6986 67.2543 37.6986C67.362 37.6435 67.4624 37.5885 67.5773 37.5413C67.6203 37.4862 67.6634 37.439 67.7064 37.3919C67.8069 37.3919 67.9792 36.7863 67.9935 36.6998C68.0438 36.5189 68.0653 36.3458 68.094 36.1571C68.1084 36.1256 68.1299 36.0942 68.1514 36.0706C68.7399 36.0706 69.3356 36.0706 69.9384 36.0784C69.9456 36.0942 69.9528 36.1099 69.96 36.1256C69.96 36.5267 69.881 36.9357 69.7949 37.3132C69.7303 37.4784 69.6657 37.6435 69.6155 37.8165C69.5222 37.9974 69.4145 38.1941 69.2782 38.3592C69.1992 38.3828 69.0126 38.6266 68.9409 38.6974C68.8404 38.7603 68.7471 38.8232 68.6466 38.8862C68.5892 38.9019 68.5174 38.9255 68.4815 38.9648C68.3811 38.9963 68.2949 39.0277 68.2017 39.067C68.094 39.0906 67.9935 39.1142 67.8859 39.1457C67.7423 39.1614 67.606 39.1772 67.4624 39.2007C67.3189 39.2007 67.1825 39.2086 67.039 39.2165L67.0031 39.2479ZM66.0701 33.6797C66.0414 33.664 66.0199 33.6482 65.9984 33.6404C66.0055 32.9404 66.0199 32.1854 66.5869 31.7371C66.7806 31.6427 66.9313 31.6191 67.1538 31.6191C67.362 31.6584 67.4768 31.7135 67.649 31.8393C67.6921 31.8944 67.7423 31.9494 67.7926 32.0124C67.8141 32.0596 67.8356 32.1067 67.8643 32.1539C67.8859 32.2168 67.9074 32.2876 67.9361 32.3505C67.9576 32.4528 67.9792 32.555 68.0079 32.6651C68.0294 32.9797 68.0581 33.2943 68.0868 33.6168C68.0796 33.6246 68.0725 33.6325 68.0725 33.6482C67.405 33.6561 66.7376 33.664 66.0773 33.6718L66.0701 33.6797Z" fill="white"/>
<path fill-rule="evenodd" clip-rule="evenodd" d="M78.4574 39.2401C78.3354 39.2165 78.2205 39.1929 78.1057 39.1772C77.9048 39.1142 77.4813 38.9334 77.3808 38.7131C77.1799 38.5401 77.0794 38.2649 76.9574 38.0446C76.9359 37.9817 76.9143 37.9267 76.9 37.8716C76.8713 37.7536 76.8426 37.6514 76.8139 37.5413C76.7852 37.3604 76.7636 37.1717 76.7421 36.9908C76.7421 36.6054 76.7277 36.1256 76.8641 35.7717C76.9215 35.3864 77.1727 34.8594 77.4813 34.6943C77.4813 34.6785 77.4813 34.6628 77.4813 34.6549C77.6823 34.5448 77.8904 34.3325 78.1201 34.2853C78.4071 34.128 78.7516 34.0258 79.0674 33.955C79.1607 33.9078 79.2971 33.9078 79.3832 33.8449C79.62 33.7741 79.864 33.7033 80.1009 33.6482C80.1583 33.6168 80.2157 33.5932 80.2731 33.5696C80.3879 33.4831 80.4956 33.3966 80.5961 33.2943C80.6176 33.2471 80.6391 33.2 80.6678 33.1528C80.6894 33.0427 80.7109 32.9483 80.7396 32.846C80.7396 32.7281 80.7396 32.618 80.7396 32.5C80.7109 32.3899 80.6894 32.2876 80.6678 32.1775C80.5387 31.9416 80.431 31.7528 80.1655 31.6663C79.8927 31.6427 79.4478 31.5484 79.2253 31.8C78.9885 31.8865 78.9095 32.3506 78.8593 32.5629C78.8521 32.7045 78.8449 32.8382 78.8377 32.9876C78.2277 32.9876 77.6249 32.9876 77.0148 32.9876C77.0076 32.8146 77.0076 32.6494 77.0076 32.4843C77.0292 32.0989 77.1081 31.7135 77.266 31.3832C77.2947 31.3281 77.3234 31.281 77.3593 31.2338C77.589 30.6832 78.1559 30.408 78.6368 30.2271C78.7373 30.1956 78.8377 30.172 78.9454 30.1484C79.1176 30.117 79.2971 30.0934 79.4693 30.0698C80.0578 30.0698 80.6535 30.0619 81.2348 30.2428C81.364 30.29 81.486 30.345 81.6224 30.4001C81.8305 30.5102 82.0027 30.6518 82.175 30.8091C82.2539 30.927 82.3329 31.0371 82.4118 31.163C82.4405 31.2731 82.4979 31.4304 82.5554 31.5248C82.5769 31.627 82.5984 31.7214 82.6271 31.8315C82.6487 31.9888 82.6702 32.1461 82.6989 32.3112C82.7061 34.1988 82.7132 36.0863 82.7204 37.9817C82.742 38.3199 82.8065 38.6502 82.9286 38.957C82.9214 38.9884 82.9142 39.0199 82.9142 39.0592C82.2898 39.0592 81.6654 39.0592 81.041 39.0671C80.9262 39.0277 80.8831 38.8232 80.8401 38.7053C80.8186 38.5401 80.7755 38.3592 80.7181 38.2019C80.7109 38.1941 80.7037 38.1941 80.6965 38.1941C80.5961 38.4064 80.4023 38.6817 80.2229 38.8154C80.2229 38.8862 79.8712 39.0199 79.821 39.0749C79.699 39.1064 79.5841 39.1378 79.4693 39.1772C79.3617 39.185 79.1894 39.1693 79.1033 39.2322C78.8808 39.2322 78.6511 39.2322 78.4358 39.2401H78.4574ZM79.4191 37.7458C79.2468 37.7458 79.0961 37.6121 78.9741 37.502C78.931 37.4391 78.8952 37.3761 78.8593 37.3132C78.8306 37.2424 78.809 37.1717 78.7875 37.1087C78.7588 36.9593 78.7373 36.8177 78.7157 36.6683C78.7157 36.3459 78.7516 36.0706 78.8808 35.7717C78.8952 35.7324 78.9167 35.7009 78.9382 35.6695C79.01 35.5908 79.0818 35.5122 79.1463 35.4414C79.4334 35.2527 79.7205 35.1504 80.0506 35.0796C80.1224 35.0482 80.1942 35.0246 80.2588 35.001C80.3664 34.9381 80.5387 34.8673 80.6248 34.7808C80.6535 34.7729 80.6822 34.7729 80.7109 34.7729C80.7109 35.3706 80.7181 35.9841 80.7253 36.5897C80.6965 36.6998 80.675 36.802 80.6535 36.92C80.5674 37.093 80.4741 37.2503 80.3449 37.3997C80.2229 37.4784 80.108 37.5649 79.986 37.6435C79.7923 37.6986 79.6057 37.7379 79.4047 37.7458H79.4191Z" fill="white"/>
<path fill-rule="evenodd" clip-rule="evenodd" d="M53.3384 39.0749C53.3168 39.067 53.2953 39.0592 53.281 39.0513C53.2738 35.1976 53.2666 31.336 53.2666 27.4901C53.2881 27.4665 53.3097 27.4508 53.3312 27.4351C54.3647 27.4351 55.4053 27.4351 56.4459 27.4429C56.4675 27.5216 56.489 27.6081 56.5177 27.6868C56.5536 27.9148 56.5895 28.1508 56.6325 28.3789C56.6397 28.4024 56.6469 28.426 56.6613 28.4575C56.7187 28.8665 56.7976 29.3069 56.8909 29.708C56.8981 29.8574 56.934 30.0147 56.977 30.1563C56.9842 30.2821 57.0057 30.408 57.0488 30.5259C57.0703 30.754 57.1349 30.9899 57.1636 31.218C57.1995 31.3517 57.1995 31.5641 57.2641 31.6742C57.3 31.9101 57.3359 32.1539 57.3789 32.3899C57.4507 32.5472 57.4435 32.7752 57.5009 32.9483C57.5297 33.1999 57.5871 33.4673 57.6445 33.7112C57.7163 34.3167 57.8813 34.9302 57.9746 35.5279C57.9746 35.5358 57.9818 35.5436 57.989 35.5515C58.0536 35.3706 58.1038 35.1819 58.1253 34.9852C58.154 34.8358 58.1899 34.6942 58.2258 34.5448C58.2617 34.3167 58.2976 34.0808 58.3406 33.8527C58.3909 33.6718 58.3981 33.4673 58.4626 33.2943C58.5272 32.7359 58.6995 32.1697 58.7641 31.6113C58.8 31.4225 58.843 31.2259 58.8861 31.0371C58.9937 30.4158 59.1373 29.763 59.2234 29.1496C59.2306 29.1181 59.2377 29.0945 59.2521 29.0709C59.288 28.7878 59.3454 28.4968 59.4172 28.2137C59.4459 27.962 59.4602 27.6553 59.5966 27.4429C60.6301 27.4429 61.6635 27.4429 62.697 27.4508C62.7042 27.4823 62.7185 27.5137 62.7329 27.5452C62.7257 31.3753 62.7257 35.1976 62.7257 39.0277C62.7113 39.0435 62.7042 39.0592 62.697 39.0749C62.0511 39.067 61.4052 39.067 60.7664 39.067C60.7521 36.0627 60.7377 33.0584 60.7305 30.0698C60.7234 30.0462 60.7162 30.0226 60.709 30.0069C60.5583 30.4945 60.5296 31.0371 60.386 31.5326C60.2999 32.0831 60.142 32.6415 60.0631 33.2078C59.977 33.3966 59.9483 33.7033 59.9195 33.9156C59.8334 34.1044 59.7975 34.3797 59.776 34.5841C59.6684 34.9774 59.6109 35.4021 59.5176 35.7953C59.3741 36.4874 59.2377 37.1795 59.1014 37.8716C59.0583 38.0446 59.0224 38.2098 58.9866 38.3828C58.965 38.5558 58.9148 38.9412 58.8143 39.0749C58.2832 39.0749 57.745 39.0749 57.221 39.0749C57.1995 39.067 57.1852 39.0592 57.1708 39.0592C57.1206 38.894 57.0775 38.721 57.0632 38.548C56.934 38.0525 56.8191 37.5098 56.7474 36.9986C56.6971 36.8806 56.6971 36.7234 56.6469 36.5975C56.5823 36.2672 56.5177 35.9447 56.4675 35.6223C56.4101 35.4965 56.4316 35.3234 56.367 35.2133C56.3526 35.1111 56.3455 34.9381 56.2952 34.8515C56.1517 34.01 55.9364 33.1842 55.7929 32.3427C55.6924 32.1225 55.7211 31.8079 55.6278 31.5955C55.5632 31.1472 55.4412 30.699 55.3766 30.2585C55.3551 30.2192 55.3407 30.1799 55.3264 30.1406C55.3048 30.0619 55.2905 29.9911 55.2761 29.9282C55.2689 29.9597 55.2618 29.9911 55.2546 30.0304C55.2474 33.0426 55.2402 36.0548 55.2331 39.067C54.6087 39.0749 53.9843 39.0828 53.3599 39.0906L53.3384 39.0749Z" fill="white"/>
<path fill-rule="evenodd" clip-rule="evenodd" d="M71.3451 39.0749C71.3307 39.0513 71.3164 39.0356 71.3092 39.0199C71.3092 36.1256 71.3092 33.2314 71.3092 30.3372C71.3164 30.3293 71.3236 30.3214 71.3307 30.3136C71.9623 30.3136 72.601 30.3136 73.2398 30.3136C73.247 30.3136 73.2541 30.3214 73.2685 30.3293C73.2685 30.6439 73.2685 30.9585 73.2757 31.2809C73.29 31.3124 73.3044 31.3439 73.3259 31.3753C73.491 31.0686 73.6847 30.8091 73.9216 30.5574C74.0149 30.4787 74.101 30.408 74.2015 30.345C74.2445 30.3136 74.2948 30.2821 74.345 30.2507C74.4024 30.2192 74.467 30.1877 74.5244 30.1641C74.8043 30.1091 75.2134 29.9833 75.479 30.1327C75.479 30.8169 75.479 31.509 75.4861 32.2011C75.4718 32.2168 75.4574 32.2326 75.4502 32.2562C75.1919 32.2483 74.9335 32.2404 74.668 32.2404C74.5388 32.264 74.4168 32.2955 74.2948 32.327C74.1154 32.4292 73.8929 32.5078 73.7637 32.6809C73.7063 32.7359 73.6489 32.7988 73.5986 32.8618C73.5412 32.964 73.491 33.0584 73.4407 33.1606C73.412 33.2471 73.3905 33.3415 73.369 33.428C73.3618 35.2841 73.3546 37.1402 73.3474 38.9963C73.3403 39.012 73.3331 39.0356 73.3259 39.0592C72.6585 39.0592 71.991 39.067 71.3307 39.0749H71.3451Z" fill="white"/>
<path fill-rule="evenodd" clip-rule="evenodd" d="M84.2922 39.0749C84.2635 39.0435 84.2348 39.0199 84.2061 38.9963C84.2061 35.1661 84.2061 31.3517 84.2061 27.5295C84.2204 27.4665 84.2204 27.4508 84.2706 27.4272C84.9166 27.4272 85.5697 27.4272 86.2228 27.4272C86.2443 27.4587 86.2658 27.4901 86.2873 27.5295C86.2802 28.7013 86.2802 29.8732 86.2802 31.045C86.3089 31.0765 86.3089 31.0843 86.3663 31.0843C86.5888 30.636 87.0194 30.2978 87.4715 30.1877C87.5505 30.1012 87.7945 30.1012 87.9093 30.0776C88.1103 30.0698 88.3184 30.0698 88.5265 30.0698C88.6701 30.0934 88.8064 30.117 88.9571 30.1484C89.2227 30.2428 89.4667 30.3608 89.6892 30.5574C89.6892 30.5653 89.6892 30.5731 89.6892 30.581C89.7107 30.5967 89.7322 30.6124 89.7609 30.636C89.7609 30.6439 89.7609 30.6518 89.7609 30.6596C89.9117 30.7697 90.0265 31.0293 90.0911 31.2023C90.1413 31.2573 90.1485 31.3832 90.1844 31.454C90.2059 31.5719 90.2274 31.6899 90.2561 31.8157C90.2633 31.9494 90.2777 32.0753 90.292 32.209C90.2849 34.4819 90.2849 36.7548 90.2849 39.0199C90.2777 39.0277 90.2705 39.0356 90.2633 39.0513C89.5887 39.0435 88.9212 39.0435 88.2538 39.0435C88.2394 36.8964 88.2251 34.7493 88.2179 32.6022C88.1749 32.4528 88.1461 32.2955 88.0744 32.1539C87.8304 31.8079 87.4715 31.7843 87.0912 31.8315C86.9189 31.918 86.7108 31.9652 86.5959 32.1382C86.5314 32.1382 86.4237 32.4213 86.395 32.5C86.3519 32.7123 86.3089 32.9325 86.2873 33.1528C86.2873 35.0718 86.2873 36.9908 86.2945 38.9019C86.2802 38.9491 86.2658 38.9963 86.2515 39.0435C85.5984 39.0513 84.9453 39.0592 84.2994 39.067L84.2922 39.0749Z" fill="white"/>
<path fill-rule="evenodd" clip-rule="evenodd" d="M90.5074 23.3297C90.3925 23.2668 90.2346 23.3297 90.1198 23.2825C89.682 23.2432 89.2658 23.1173 88.871 22.905C88.8208 22.8735 88.7777 22.8499 88.7347 22.8263C88.7347 22.8185 88.7347 22.8106 88.7347 22.8027C88.3902 22.6061 88.1892 22.2522 88.017 21.8826C87.9811 21.741 87.9452 21.6073 87.9165 21.4657C87.9022 21.2927 87.8878 21.1276 87.8806 20.9624C88.5194 20.9545 89.1653 20.9545 89.8112 20.9545C89.8686 20.9939 89.8901 21.2062 89.9117 21.2848C89.9332 21.332 89.9619 21.3871 89.9906 21.4421C90.0193 21.4736 90.048 21.5051 90.0767 21.5444C90.1557 21.5994 90.2346 21.6624 90.3136 21.7253C90.3566 21.7489 90.3997 21.7725 90.4499 21.8039C90.7227 21.859 91.0241 21.8747 91.2896 21.7882C91.469 21.7017 91.6772 21.568 91.7418 21.3478C91.7992 21.2848 91.8494 21.0961 91.8853 21.0017C92.0073 20.4512 91.9571 19.8535 91.9571 19.2951C91.9355 19.2872 91.914 19.2793 91.8997 19.2715C91.8422 19.4052 91.7059 19.5153 91.6198 19.6411C91.5336 19.7119 91.4547 19.7827 91.3686 19.8535C91.3255 19.8849 91.2825 19.9164 91.2466 19.9557C91.1389 20.0108 91.0384 20.0737 90.9308 20.1366C90.859 20.1602 90.7944 20.1838 90.737 20.2152C90.6007 20.2388 90.4786 20.2624 90.3495 20.2939C90.2562 20.2939 90.17 20.2939 90.0767 20.2939C89.9188 20.2624 89.7681 20.2388 89.6102 20.2152C89.5098 20.1759 89.4165 20.1445 89.316 20.113C89.072 19.9007 88.7347 19.822 88.5552 19.5074C88.5409 19.5074 88.5337 19.5074 88.5265 19.5074C88.5265 19.4445 88.3256 19.1771 88.3184 19.1614C88.2395 18.9805 88.1605 18.7917 88.0959 18.6108C87.9667 18.1468 87.8806 17.6828 87.8519 17.203C87.8304 17.0693 87.816 16.9514 87.8017 16.8255C87.7945 16.3065 87.7873 15.7953 87.7873 15.2762C87.8017 14.8908 87.8591 14.5054 87.8734 14.1279C87.9237 13.8763 87.9452 13.5066 88.06 13.2785C88.0744 13.2077 88.0888 13.1055 88.1318 13.0662C88.1892 12.9089 88.2538 12.7595 88.3112 12.6022C88.4117 12.437 88.5122 12.2876 88.6198 12.1303C88.6844 12.1303 88.7921 11.8865 88.8782 11.8865C88.9643 11.6977 89.316 11.5955 89.4667 11.5168C89.5887 11.4854 89.7035 11.4539 89.8255 11.4225C90.1054 11.4225 90.3997 11.4067 90.6796 11.4382C90.8303 11.5011 91.0097 11.5326 91.1389 11.6269C91.3399 11.7213 91.5552 11.9101 91.67 12.1145C91.7848 12.1775 91.8279 12.4134 91.914 12.5157C91.9212 12.4999 91.9355 12.4842 91.9499 12.4685C91.9499 12.2247 91.9499 11.973 91.9571 11.737C91.9786 11.6427 91.993 11.6505 92.0504 11.6112C92.6245 11.6112 93.2058 11.6112 93.7872 11.6112C93.8231 11.6112 93.8589 11.6191 93.902 11.6269C93.9092 11.6427 93.9164 11.6584 93.9307 11.6741C93.9235 14.6077 93.9235 17.5412 93.9235 20.4748C93.8948 20.6557 93.8733 20.8444 93.8518 21.0253C93.7872 21.2219 93.7298 21.4343 93.6795 21.6388C93.6006 21.7961 93.5216 21.9455 93.457 22.1028C93.3853 22.1893 93.3207 22.2758 93.2633 22.3623C93.1628 22.4331 93.0408 22.5825 92.9618 22.6848C92.7035 22.8499 92.3877 23.0701 92.0863 23.1173C91.9786 23.1567 91.8853 23.1881 91.7705 23.196C91.5911 23.2982 91.3183 23.2353 91.1317 23.3061C90.9308 23.314 90.7227 23.3218 90.5217 23.3375L90.5074 23.3297ZM90.6939 18.5322C90.5504 18.485 90.3997 18.4299 90.2992 18.312C90.1629 18.2412 90.048 17.9266 89.9906 17.7929C89.9619 17.6671 89.9332 17.557 89.9045 17.439C89.8758 17.2345 89.8543 17.0222 89.8327 16.8255C89.8327 16.2986 89.8327 15.7874 89.8327 15.2683C89.8543 15.0953 89.8255 14.8829 89.883 14.7256C89.9045 14.2774 89.9691 13.8133 90.1987 13.4358C90.249 13.3808 90.2992 13.3257 90.3495 13.2785C90.4069 13.2392 90.4715 13.2077 90.5289 13.1763C90.7801 13.1291 90.9738 13.0976 91.225 13.1763C91.304 13.2313 91.3901 13.2864 91.469 13.3493C91.5265 13.428 91.5839 13.5066 91.6341 13.5774C91.6556 13.6324 91.6772 13.6875 91.7059 13.7504C91.7274 13.8291 91.7489 13.9077 91.7777 13.9785C91.7992 14.0886 91.8207 14.1908 91.8494 14.3009C91.8781 14.6234 91.9284 14.9459 91.9427 15.2683C91.9427 15.7009 91.9427 16.1334 91.9427 16.566C91.9068 16.8413 91.8781 17.1165 91.8494 17.4075C91.8279 17.4468 91.8135 17.4862 91.7992 17.5334C91.7848 17.6513 91.7346 17.7693 91.7059 17.8794C91.6198 18.0131 91.5336 18.1389 91.4547 18.2726C91.3829 18.3277 91.3183 18.3828 91.2609 18.4378C91.1748 18.4614 91.0887 18.485 91.0169 18.5165C90.9021 18.5165 90.8016 18.5243 90.6939 18.5322Z" fill="white"/>
<path fill-rule="evenodd" clip-rule="evenodd" d="M63.1276 20.5377C62.4099 20.5377 61.7712 19.9636 61.5702 19.2243C61.4554 18.9805 61.441 18.658 61.398 18.3828C61.3908 18.1783 61.3908 17.9659 61.3908 17.7693C61.4195 17.4783 61.441 17.0851 61.5702 16.8255C61.7353 16.2907 62.1803 15.8189 62.6683 15.638C62.7831 15.575 62.8979 15.5043 63.0343 15.4807C63.4577 15.2919 63.9386 15.1897 64.3836 15.0638C64.4051 15.0481 64.4338 15.0324 64.4625 15.0245C64.6491 14.9773 64.8501 14.9065 65.0151 14.82C65.1371 14.7257 65.252 14.6155 65.3094 14.4582C65.3309 14.3639 65.3524 14.2774 65.3811 14.183C65.3811 14.065 65.3811 13.9549 65.3811 13.8369C65.3524 13.719 65.3309 13.6089 65.3094 13.4909C65.2663 13.4122 65.2232 13.3336 65.1802 13.2628C65.0223 13.0898 64.929 13.0347 64.7137 12.9561C64.5558 12.9482 64.4051 12.9482 64.2544 12.9482C64.0319 13.019 63.7663 13.0819 63.6802 13.3415C63.673 13.3415 63.6659 13.3415 63.6587 13.3415C63.6228 13.4044 63.5941 13.4752 63.5654 13.5381C63.5367 13.6403 63.5152 13.7347 63.4936 13.8369C63.4793 13.9942 63.4721 14.1437 63.4649 14.301C62.8692 14.301 62.2807 14.301 61.6851 14.301C61.5774 14.2459 61.6564 13.6089 61.6635 13.4516C61.6851 13.3415 61.7066 13.2392 61.7353 13.1291C61.7927 12.9718 61.8501 12.8302 61.9004 12.6808C61.9937 12.5235 62.087 12.3741 62.1874 12.2247C62.2305 12.1696 62.2807 12.1146 62.331 12.0674C62.4602 11.973 62.5822 11.8393 62.7401 11.7842C62.8764 11.6348 63.2424 11.5562 63.4219 11.5011C63.5439 11.4696 63.6587 11.446 63.7807 11.4225C64.5127 11.3753 65.2878 11.3359 65.9912 11.5955C66.106 11.6427 66.2854 11.6977 66.3715 11.7842C66.4936 11.8236 66.5797 11.9415 66.6873 11.9809C66.6873 11.9887 66.6873 11.9966 66.6873 12.0044C66.7806 12.0752 66.8667 12.1853 66.9242 12.2797C67.0605 12.4291 67.1323 12.6808 67.2041 12.8696C67.2041 12.9639 67.2328 13.0505 67.2615 13.1291C67.283 13.3021 67.3045 13.4673 67.3332 13.6403C67.3404 15.5279 67.3476 17.4154 67.3548 19.3029C67.3548 19.6333 67.4768 20.0029 67.5773 20.3018C67.5629 20.3175 67.5557 20.3332 67.5485 20.3568C66.9098 20.3568 66.2711 20.3568 65.6323 20.3647C65.5319 20.2546 65.5175 20.0815 65.4601 19.9557C65.4529 19.8849 65.4027 19.5153 65.3381 19.4838C65.2735 19.5546 65.2591 19.6804 65.1802 19.7198C65.0151 20.0344 64.6778 20.286 64.3692 20.3961C64.197 20.4355 64.0247 20.4748 63.8596 20.5141C63.6085 20.5141 63.3573 20.522 63.1061 20.5298L63.1276 20.5377ZM64.075 19.0513C63.9171 19.0119 63.7951 18.9726 63.6659 18.8704C63.3357 18.4378 63.3142 17.8401 63.4362 17.3053C63.4864 17.1873 63.5367 17.0851 63.5869 16.975C63.6443 16.9121 63.7018 16.8491 63.7592 16.7941C63.874 16.7233 63.9529 16.6289 64.0893 16.5975C64.2544 16.5109 64.4338 16.448 64.6132 16.4166C64.6276 16.4008 64.6419 16.393 64.6635 16.3851C64.7855 16.3615 65.1084 16.2593 65.173 16.157C65.2161 16.1256 65.2591 16.102 65.3094 16.0784C65.3309 16.0705 65.3524 16.0705 65.374 16.0705C65.374 16.6604 65.374 17.266 65.3811 17.8637C65.3524 18.0367 65.3165 18.2333 65.2376 18.3906C65.1587 18.4929 65.0869 18.5872 65.0223 18.6895C64.9218 18.7681 64.8285 18.8468 64.728 18.9176C64.6635 18.9412 64.5989 18.9648 64.5414 18.9962C64.3836 19.0119 64.2328 19.0355 64.0821 19.0591L64.075 19.0513Z" fill="white"/>
<path fill-rule="evenodd" clip-rule="evenodd" d="M74.3307 20.5377C74.0939 20.5377 73.8068 20.4433 73.5915 20.3489C73.5269 20.3018 73.4623 20.2546 73.4049 20.2152C73.3116 20.1366 73.1968 20.058 73.1465 19.9557C72.9671 19.7198 72.8379 19.4366 72.7303 19.1535C72.7016 19.0591 72.68 18.9648 72.6585 18.8782C72.6298 18.7052 72.6083 18.5401 72.5867 18.3749C72.5867 17.7143 72.5939 16.9828 72.9528 16.4087C72.9528 16.3772 72.9743 16.3615 72.9958 16.3537C73.1035 16.1256 73.3762 15.866 73.5987 15.7795C73.5987 15.7717 73.5987 15.7638 73.5987 15.7559C73.7494 15.693 73.8929 15.5986 74.0508 15.5593C74.0652 15.5436 74.0795 15.5279 74.101 15.52C74.6824 15.3391 75.2781 15.1032 75.8666 14.9773C75.9814 14.9223 76.089 14.8672 76.2039 14.82C76.2685 14.7571 76.333 14.7021 76.3905 14.647C76.4335 14.5605 76.4766 14.474 76.5268 14.4032C76.5412 14.3324 76.5555 14.2616 76.5771 14.1987C76.5771 14.0807 76.5771 13.9785 76.5842 13.8684C76.5555 13.7268 76.5268 13.601 76.5053 13.4673C76.4766 13.4044 76.4479 13.3493 76.4263 13.2943C76.4192 13.2943 76.412 13.2943 76.4048 13.2943C76.2972 13.0976 76.1177 13.0111 75.9168 12.9404C75.7374 12.9404 75.5579 12.9404 75.3857 12.9404C75.1848 13.0033 75.0699 13.0819 74.9192 13.2392C74.869 13.3179 74.8259 13.3965 74.7828 13.4752C74.7541 13.5617 74.7326 13.6482 74.7111 13.7268C74.7039 13.8291 74.7039 14.2223 74.6465 14.2774C74.0508 14.2695 73.4623 14.2695 72.8666 14.2695C72.8595 14.2616 72.8523 14.2538 72.8451 14.2459C72.8451 13.9706 72.8307 13.6796 72.8738 13.3965C72.924 13.1448 73.0245 12.9089 73.0891 12.6808C73.1106 12.6258 73.1393 12.5707 73.1681 12.5235C73.1752 12.5235 73.1824 12.5235 73.1968 12.5235C73.1968 12.4685 73.2255 12.4134 73.2685 12.3898C73.3331 12.2954 73.3977 12.2089 73.4551 12.1146C73.692 11.9179 73.9575 11.682 74.2518 11.6033C74.3666 11.5404 74.4958 11.5326 74.6106 11.4696C74.7757 11.4382 74.9336 11.4067 75.0986 11.3753C75.5651 11.3753 76.0388 11.3674 76.5053 11.391C76.6704 11.4303 76.8857 11.4382 77.0364 11.5247C77.3809 11.5876 77.6967 11.8078 77.9622 12.0359C77.9622 12.0752 78.0268 12.1067 78.0411 12.146C78.2062 12.3269 78.3139 12.5786 78.4 12.8145C78.4215 12.901 78.443 12.9954 78.4646 13.0819C78.4861 13.2549 78.5076 13.4201 78.5363 13.601C78.5435 15.3942 78.5507 17.1873 78.5579 18.9883C78.5651 19.1692 78.5722 19.3423 78.5794 19.531C78.6009 19.6411 78.6225 19.7434 78.6512 19.8613C78.6942 19.9872 78.7373 20.113 78.7875 20.2467C78.7875 20.2703 78.7875 20.2939 78.7875 20.3254C78.1416 20.3332 77.4957 20.3411 76.8498 20.3489C76.7134 20.1995 76.6775 19.9321 76.6488 19.7434C76.6201 19.6568 76.5986 19.5703 76.5771 19.4917C76.5699 19.4838 76.5627 19.476 76.5555 19.476C76.4838 19.6175 76.3833 19.767 76.29 19.8849C76.2397 19.9085 76.1106 20.0501 76.1034 20.0973C75.9814 20.1759 75.8666 20.2546 75.7517 20.3332C75.5364 20.404 75.3068 20.4669 75.0843 20.5062C74.8331 20.5062 74.5819 20.5141 74.3379 20.522L74.3307 20.5377ZM75.2637 19.0513C75.1991 19.0355 75.1345 19.0198 75.0771 19.0041C74.8905 18.9018 74.7111 18.7445 74.668 18.5007C74.546 18.2412 74.5604 17.9266 74.5604 17.6277C74.5747 17.5176 74.5963 17.4154 74.6178 17.3053C74.6393 17.2424 74.6608 17.1795 74.6895 17.1244C74.7972 16.9435 74.8833 16.8177 75.0484 16.6918C75.2135 16.6132 75.3785 16.5345 75.5508 16.4638C75.7158 16.4087 75.8881 16.3615 76.0532 16.3143C76.1608 16.2278 76.4479 16.0548 76.5627 16.0548C76.5627 16.6368 76.5699 17.2345 76.5771 17.8244C76.5484 17.9423 76.5268 18.0524 76.5053 18.1783C76.4551 18.2805 76.4048 18.3749 76.3618 18.485C76.3187 18.5165 76.29 18.5322 76.29 18.5951C76.2756 18.5951 76.2685 18.5951 76.2613 18.5951C76.1536 18.776 75.9024 18.9018 75.7302 18.9805C75.5651 18.9962 75.4144 19.0198 75.2565 19.0434L75.2637 19.0513Z" fill="white"/>
<path fill-rule="evenodd" clip-rule="evenodd" d="M53.324 20.3804C53.3025 20.3647 53.2881 20.3568 53.2738 20.349C53.2666 16.4874 53.2666 12.6179 53.2666 8.76418C54.7235 8.76418 56.1732 8.76418 57.6373 8.76418C57.6373 8.77204 57.6373 8.78777 57.6373 8.8035C57.7521 8.83496 57.9316 8.81923 58.0105 8.90574C58.276 8.97652 58.5129 9.13382 58.7497 9.26752C58.7497 9.29111 59.1588 9.64503 59.1732 9.65289C59.1875 9.70008 59.1947 9.71581 59.2306 9.73154C59.331 9.8967 59.4243 10.054 59.532 10.227C59.5966 10.3843 59.6755 10.5337 59.7114 10.6989C59.7186 10.7225 59.7329 10.7461 59.7473 10.7776C59.7975 11.0292 59.8765 11.3045 59.9052 11.564C59.9124 11.7921 59.9841 12.264 59.9267 12.4842C59.9124 12.6887 59.898 12.901 59.8837 13.1134C59.8262 13.31 59.776 13.5145 59.7258 13.7111C59.6899 13.8133 59.6253 14.0178 59.5607 14.0886C59.4602 14.3324 59.3095 14.5369 59.1588 14.7493C59.044 14.8436 58.9363 14.938 58.8287 15.0402C58.8287 15.0481 58.8287 15.056 58.8287 15.0717C58.7354 15.1346 58.6492 15.1975 58.5559 15.2605C58.276 15.4178 57.9818 15.5515 57.6804 15.6144C57.6517 15.6222 57.6301 15.6301 57.6086 15.6458C57.4579 15.6694 57.3215 15.693 57.178 15.7245C56.6038 15.7402 56.0225 15.7559 55.4484 15.7717C55.4412 15.7874 55.434 15.811 55.434 15.8346C55.4197 17.3446 55.4125 18.8546 55.4053 20.3647C55.391 20.3725 55.3766 20.3804 55.3694 20.3883C54.6804 20.3883 53.9986 20.3883 53.3168 20.3961L53.324 20.3804ZM55.4842 14.01C55.4627 13.9864 55.4484 13.9628 55.434 13.947C55.434 12.8145 55.434 11.682 55.434 10.5495C55.4484 10.5337 55.4627 10.518 55.4771 10.5023C55.9077 10.5023 56.3598 10.4787 56.7833 10.5259C56.8622 10.5495 56.9483 10.5731 57.0273 10.6045C57.0703 10.6281 57.1206 10.6517 57.1708 10.6832C57.2426 10.7461 57.3215 10.809 57.3933 10.8719C57.4435 10.9506 57.5009 11.0292 57.5584 11.1079C57.5871 11.1944 57.6158 11.2809 57.6517 11.3674C57.8024 11.6899 57.788 12.1303 57.788 12.4842C57.7593 12.6336 57.7378 12.7831 57.7163 12.9404C57.6875 13.0269 57.6588 13.1134 57.6301 13.1999C57.5584 13.31 57.4866 13.4201 57.422 13.5381C57.3 13.656 57.1565 13.7662 57.0129 13.8527C56.9053 13.8841 56.8048 13.9156 56.7043 13.947C56.2952 13.9628 55.8862 13.9785 55.4914 14.0021L55.4842 14.01Z" fill="white"/>
<path fill-rule="evenodd" clip-rule="evenodd" d="M69.1346 20.3804C69.1131 20.3647 69.0916 20.349 69.07 20.3411C69.0629 16.4795 69.0629 12.6179 69.0629 8.76418C69.7518 8.76418 70.4408 8.76418 71.137 8.76418C71.1298 12.6179 71.1298 16.4795 71.1298 20.3411C71.1083 20.349 71.0939 20.3568 71.0796 20.3647C70.4265 20.3647 69.7806 20.3725 69.1346 20.3804Z" fill="white"/>
<path fill-rule="evenodd" clip-rule="evenodd" d="M80.2731 20.3804C80.2659 20.3647 80.2588 20.3568 80.2516 20.3489C80.2516 17.4547 80.2516 14.5605 80.2516 11.6663C80.2588 11.6427 80.2659 11.6269 80.2731 11.6112C80.8975 11.6033 81.5219 11.6033 82.1463 11.6033C82.1606 11.6033 82.175 11.6112 82.1965 11.6191C82.2037 11.6348 82.2109 11.6505 82.218 11.6741C82.218 11.7921 82.1893 12.555 82.2611 12.5943C82.3185 12.4842 82.3831 12.3898 82.4405 12.2876C82.6271 12.0438 82.9214 11.7213 83.2156 11.6348C83.3807 11.5168 83.5888 11.5011 83.7682 11.4303C84.1989 11.391 84.6797 11.3674 85.096 11.509C85.2108 11.564 85.3687 11.6033 85.462 11.6977C85.6199 11.7528 85.7419 11.9494 85.8711 12.0674C85.9428 12.1853 86.0146 12.2954 86.0792 12.4213C86.1007 12.4842 86.1223 12.5471 86.151 12.61C86.1725 12.6887 86.194 12.7752 86.2227 12.8538C86.2514 13.019 86.2801 13.1842 86.3089 13.3572C86.3089 15.693 86.3089 18.021 86.3089 20.3647C86.3017 20.3647 86.2945 20.3725 86.2945 20.3804C85.6271 20.3804 84.9596 20.3804 84.2993 20.3804C84.285 20.3725 84.2778 20.3647 84.2706 20.3647C84.2634 18.2962 84.2563 16.2278 84.2563 14.1672C84.2347 14.0257 84.2132 13.892 84.1989 13.7583C84.1558 13.6089 84.0984 13.483 84.0194 13.3572C83.6965 13.0976 83.352 13.1212 82.9716 13.1999C82.907 13.2392 82.8424 13.2785 82.785 13.3179C82.5841 13.428 82.4692 13.7032 82.3903 13.9234C82.3616 14.1043 82.3329 14.2774 82.3113 14.4661C82.3042 16.4323 82.3042 18.3906 82.3042 20.3568C82.2898 20.3647 82.2826 20.3725 82.2755 20.3804C81.608 20.3804 80.9406 20.3883 80.2731 20.3961V20.3804Z" fill="white"/>
</svg>
